<svg width="453" height="74" viewBox="0 0 453 74" fill="none" xmlns="http://www.w3.org/2000/svg">
<path d="M58.6521 0.896362H0V59.5484H58.6521V0.896362Z" fill="#57EB9F"/>
<path d="M58.6521 0.896362V59.5484H0L14.4434 73.9918H73.0954V15.3397L58.6521 0.896362Z" fill="#DADBDC"/>
<path d="M24.155 35.7722L29.2003 20.7886L34.3573 35.7722H24.155ZM33.6308 9.83188H24.7325L10.7487 50.616H19.1315L21.7799 42.9411H36.7697L39.5236 50.616H47.9065L33.6308 9.83188Z" fill="#040607"/>
<path d="M219.271 0.896362H160.619V59.5484H219.271V0.896362Z" fill="white"/>
<path d="M219.271 0.896362V59.5484H160.619L175.062 73.9918H233.714V15.3397L219.271 0.896362Z" fill="#DADBDC"/>
<path d="M184.82 43.1832V9.83188H176.649V50.6129H203.244V43.1832H184.82Z" fill="#040607"/>
<path d="M292.366 0.896362H233.714V59.5484H292.366V0.896362Z" fill="white"/>
<path d="M292.366 0.896362V59.5484H233.714L248.154 73.9918H306.806V15.3397L292.366 0.896362Z" fill="#DADBDC"/>
<path d="M271.499 17.5689V42.8728C271.499 42.9628 271.499 43.0435 271.499 43.1087C271.468 43.1305 271.443 43.1491 271.422 43.1646C271.304 43.1708 271.099 43.1801 270.769 43.1801H255.311C254.982 43.1801 254.777 43.1708 254.659 43.1646C254.637 43.1491 254.612 43.1305 254.581 43.1087C254.581 43.0404 254.581 42.9628 254.581 42.8728V17.5689C254.581 17.4789 254.581 17.4013 254.581 17.333C254.612 17.3113 254.637 17.2926 254.659 17.2771C254.777 17.2709 254.979 17.2616 255.311 17.2616H270.769C271.099 17.2616 271.3 17.2678 271.418 17.2771C271.44 17.2926 271.468 17.3113 271.496 17.333C271.496 17.4013 271.496 17.4789 271.496 17.5689M277.73 12.3809L276.461 11.3222C275.275 10.3349 274.017 9.83188 272.725 9.83188H253.349C252.057 9.83188 250.803 10.3349 249.614 11.3222L248.344 12.3809C247.074 13.4396 246.403 14.8492 246.403 16.4574V43.9874C246.403 45.5987 247.074 47.0083 248.344 48.0639L249.614 49.1227C250.8 50.1131 252.057 50.6129 253.349 50.6129H272.725C274.017 50.6129 275.275 50.11 276.461 49.1227L277.73 48.0639C279 47.0052 279.671 45.5956 279.671 43.9843V16.4574C279.671 14.8492 279 13.4396 277.73 12.3809Z" fill="#040607"/>
<path d="M365.458 0.896362H306.806V59.5484H365.458V0.896362Z" fill="white"/>
<path d="M365.458 0.896362V59.5484H306.806L321.25 73.9918H379.902V15.3397L365.458 0.896362Z" fill="#DADBDC"/>
<path d="M351.602 20.4377V16.4574C351.602 14.8492 350.931 13.4396 349.662 12.3809L348.392 11.3222C347.206 10.3349 345.948 9.83188 344.66 9.83188H327.611C326.32 9.83188 325.066 10.3349 323.88 11.3222L322.607 12.3809C321.337 13.4396 320.666 14.8492 320.666 16.4574V43.9874C320.666 45.5956 321.337 47.0083 322.607 48.0639L323.876 49.1227C325.063 50.1131 326.32 50.6129 327.611 50.6129H344.66C345.951 50.6129 347.209 50.11 348.395 49.1227L349.665 48.0639C350.934 47.0052 351.605 45.5956 351.605 43.9843V40.004H343.433V42.8728C343.433 42.9628 343.433 43.0435 343.433 43.1087C343.402 43.1305 343.378 43.1491 343.356 43.1646C343.238 43.1708 343.033 43.1801 342.704 43.1801H329.574C329.245 43.1801 329.04 43.1708 328.922 43.1646C328.9 43.1491 328.875 43.1305 328.844 43.1087C328.844 43.0404 328.844 42.9628 328.844 42.8728V17.5689C328.844 17.4789 328.844 17.4013 328.844 17.333C328.875 17.3113 328.9 17.2926 328.922 17.2771C329.04 17.2709 329.245 17.2616 329.574 17.2616H342.704C343.033 17.2616 343.235 17.2678 343.353 17.2771C343.374 17.2926 343.402 17.3113 343.43 17.333C343.43 17.4013 343.43 17.4789 343.43 17.5689V20.4377H351.602Z" fill="#040607"/>
<path d="M438.554 0.896362H379.902V59.5484H438.554V0.896362Z" fill="white"/>
<path d="M438.551 0.896362V59.5484H379.902L394.342 73.9918H452.994V15.3397L438.551 0.896362Z" fill="#DADBDC"/>
<path d="M423.282 44.3196C422.987 43.7297 422.443 43.2515 421.394 42.6678L420.832 42.3605C420.307 42.0655 420.109 41.9227 420.05 41.8792C420.003 41.8234 419.854 41.6278 419.565 41.1372L412.815 30.4537C412.732 30.3202 412.642 30.1836 412.548 30.047C412.645 29.9042 412.735 29.7582 412.822 29.6154L419.165 19.3604C419.54 18.7798 419.705 18.5749 419.745 18.5283C419.795 18.488 419.981 18.3513 420.441 18.0937L421.034 17.7708C422.071 17.1964 422.611 16.7213 422.909 16.1283C423.164 15.6161 423.263 14.9516 423.263 13.7594V9.83188H420.236C419.373 9.83188 418.82 9.88776 418.388 10.0213C417.957 10.1548 417.448 10.4342 416.696 10.9527L415.694 11.6388C414.697 12.3188 413.871 13.2068 413.241 14.281L405.808 26.2437H402.989V9.83188H394.817V50.616H402.989V33.6765H405.594L413.3 46.1266C413.775 46.9058 414.095 47.3623 414.355 47.651C414.626 47.9491 415.038 48.2937 415.694 48.7749L416.743 49.4952C417.501 50.0168 418.01 50.2962 418.441 50.4298C418.87 50.5633 419.422 50.6191 420.289 50.6191H423.632V46.6916C423.632 45.4994 423.533 44.835 423.278 44.3258" fill="#040607"/>
<path d="M146.178 0.896362H87.5264V59.5484H146.178V0.896362Z" fill="white"/>
<path d="M146.178 0.896362V59.5484H87.5264L101.967 73.9918H160.619V15.3397L146.178 0.896362Z" fill="#DADBDC"/>
<path d="M107.428 9.83188H99.2313V50.616H107.428V9.83188Z" fill="#040607"/>
<path d="M133.915 43.9874V34.4589C133.915 33.5523 133.837 32.9655 133.657 32.4904C133.458 31.9751 133.098 31.4907 132.548 31.0033L130.735 29.5285L131.698 28.7927L131.741 28.7585C132.744 27.942 133.278 26.8211 133.278 25.514V16.4606C133.278 14.8523 132.607 13.4427 131.338 12.384L130.068 11.3253C128.882 10.338 127.624 9.83499 126.336 9.83499H111.532V17.2678H124.38C124.709 17.2678 124.911 17.274 125.032 17.2833C125.054 17.2988 125.078 17.3175 125.109 17.3392C125.109 17.4075 125.109 17.4851 125.109 17.5752V24.4584C125.109 24.6199 125.109 24.7441 125.103 24.8403C125.063 24.8776 125.013 24.9179 124.954 24.9676L123.582 26.076C123.492 26.1474 123.424 26.1971 123.377 26.2312C123.256 26.2406 123.042 26.2499 122.685 26.2499H111.532V33.6827H123.585C123.796 33.6827 123.942 33.6858 124.038 33.692C124.11 33.7448 124.215 33.8255 124.361 33.9497L125.526 34.9028L125.569 34.937C125.637 34.9898 125.693 35.0332 125.74 35.0705C125.74 35.1512 125.743 35.2475 125.743 35.3655V42.8821C125.743 42.9721 125.743 43.0528 125.743 43.118C125.712 43.1398 125.687 43.1584 125.665 43.1739C125.547 43.1832 125.342 43.1895 125.013 43.1895H111.532V50.6223H126.972C128.264 50.6223 129.521 50.1193 130.707 49.132L130.742 49.104C131.4 48.5265 131.735 48.2595 131.9 48.1353L131.977 48.0764C133.247 47.0176 133.918 45.6081 133.918 43.9967" fill="#040607"/>
</svg>
