<svg width="453" height="74" viewBox="0 0 453 74" fill="none" xmlns="http://www.w3.org/2000/svg">
<path d="M438.555 0.896408H379.905V59.5467H438.555V0.896408Z" fill="white"/>
<path d="M438.555 0.896408V59.5467H379.905L394.345 73.9918H453V15.3371L438.555 0.896408Z" fill="#DADBDC"/>
<path d="M423.027 44.1075C422.738 43.5306 422.206 43.0646 421.185 42.4966L420.635 42.1948C420.054 41.8664 419.872 41.7244 419.867 41.7244C419.849 41.7022 419.699 41.5291 419.343 40.9256L412.731 30.4612C412.656 30.3414 412.562 30.1994 412.456 30.0441C412.567 29.8799 412.665 29.7245 412.736 29.6003L418.966 19.5264C419.383 18.8785 419.543 18.6921 419.543 18.6921C419.565 18.6743 419.73 18.5412 420.244 18.2528L420.83 17.9332C421.842 17.3741 422.37 16.9081 422.659 16.3312C422.867 15.914 423.005 15.3637 423.005 14.0146V10.1848H420.058C419.21 10.1848 418.669 10.238 418.252 10.3712C417.954 10.4644 417.52 10.6463 416.596 11.2809L415.607 11.9555C414.622 12.6256 413.814 13.4998 413.215 14.525L405.879 26.334H403.052V10.1937H395.082V50.2495H403.052V33.581H405.671L413.264 45.8427C413.849 46.8057 414.129 47.1519 414.298 47.3383C414.564 47.6312 414.977 47.9773 415.656 48.4743L416.641 49.1489C417.582 49.7968 418.012 49.9743 418.301 50.0631C418.718 50.1918 419.259 50.2495 420.111 50.2495H423.369V46.4196C423.369 45.075 423.231 44.5202 423.022 44.1075" fill="#040607"/>
<path d="M365.459 0.896362H306.809V59.5467H365.459V0.896362Z" fill="white"/>
<path d="M365.464 0.896362V59.5467H306.809L321.254 73.9918H379.905V15.337L365.464 0.896362Z" fill="#DADBDC"/>
<path d="M349.363 12.772L348.116 11.7336C346.963 10.7706 345.738 10.2824 344.482 10.2824H327.787C326.531 10.2824 325.31 10.7706 324.152 11.7336L322.91 12.772C321.676 13.8016 321.019 15.1773 321.019 16.7394V43.7037C321.019 45.2702 321.671 46.6415 322.91 47.6711L324.152 48.7095C325.31 49.6725 326.531 50.1607 327.787 50.1607H344.482C345.742 50.1607 346.963 49.6725 348.116 48.7095L349.363 47.6711C350.597 46.6415 351.254 45.2702 351.254 43.7037V39.8383H343.319V42.612C343.319 42.7096 343.319 42.7895 343.319 42.8605C343.284 42.8871 343.248 42.9137 343.222 42.9315C343.106 42.9404 342.902 42.9448 342.574 42.9448H329.713C329.389 42.9448 329.18 42.9359 329.065 42.9315C329.038 42.9137 329.003 42.8871 328.967 42.8605C328.967 42.7895 328.967 42.7096 328.967 42.612V17.8267C328.967 17.7291 328.967 17.6492 328.967 17.5782C329.007 17.5471 329.038 17.5249 329.065 17.5072C329.18 17.4983 329.384 17.4939 329.713 17.4939H342.574C342.898 17.4939 343.102 17.5027 343.222 17.5072C343.248 17.5249 343.284 17.5516 343.319 17.5782C343.319 17.6492 343.319 17.7291 343.319 17.8267V20.6003H351.254V16.735C351.254 15.1684 350.602 13.7972 349.368 12.7676" fill="#040607"/>
<path d="M292.364 0.896408H233.714V59.5467H292.364V0.896408Z" fill="white"/>
<path d="M292.368 0.896408V59.5467H233.714L248.159 73.9918H306.809V15.3371L292.368 0.896408Z" fill="#DADBDC"/>
<path d="M271.528 17.5826V42.8605C271.528 42.9581 271.528 43.0424 271.528 43.1135C271.488 43.1445 271.457 43.1667 271.426 43.1889C271.306 43.1978 271.102 43.2022 270.765 43.2022H255.326C254.993 43.2022 254.784 43.1933 254.665 43.1889C254.638 43.1711 254.603 43.1445 254.563 43.1135C254.563 43.0424 254.563 42.9581 254.563 42.8605V17.5826C254.563 17.485 254.563 17.4007 254.563 17.3297C254.603 17.2986 254.634 17.2764 254.665 17.2542C254.784 17.2454 254.989 17.2365 255.326 17.2365H270.765C271.107 17.2365 271.311 17.2454 271.422 17.2498C271.453 17.272 271.484 17.2942 271.524 17.3252C271.524 17.3962 271.524 17.4806 271.524 17.5782M277.693 12.4214L276.423 11.3608C275.243 10.38 273.996 9.87857 272.718 9.87857H253.36C252.082 9.87857 250.835 10.3756 249.654 11.3608L248.385 12.417C247.125 13.4688 246.459 14.8667 246.459 16.4643V43.9611C246.459 45.5587 247.125 46.9566 248.385 48.0084L249.654 49.0646C250.835 50.0453 252.082 50.5468 253.36 50.5468H272.718C274 50.5468 275.247 50.0498 276.428 49.0646L277.697 48.0084C278.957 46.9566 279.623 45.5587 279.623 43.9611V16.4643C279.623 14.8667 278.957 13.4688 277.697 12.417" fill="#040607"/>
<path d="M219.273 0.896408H160.623V59.5467H219.273V0.896408Z" fill="white"/>
<path d="M219.273 0.896408V59.5467H160.623L175.063 73.9918H233.714V15.3371L219.273 0.896408Z" fill="#DADBDC"/>
<path d="M185.013 10.7617H177.269V49.6814H202.627V42.6475H185.013V10.7617Z" fill="#040607"/>
<path d="M146.178 0.896408H87.5272V59.5467H146.178V0.896408Z" fill="white"/>
<path d="M146.178 0.896408V59.5467H87.5272L101.968 73.9918H160.623V15.3371L146.178 0.896408Z" fill="#DADBDC"/>
<path d="M122.462 24.5855C122.462 24.7497 122.462 24.874 122.453 24.976C122.409 25.016 122.36 25.0604 122.298 25.1092L120.962 26.192C120.869 26.2675 120.802 26.3163 120.749 26.3518C120.633 26.3606 120.42 26.3695 120.061 26.3695H110.626V17.5294H121.716C122.04 17.5294 122.244 17.5383 122.364 17.5427C122.391 17.5604 122.426 17.5871 122.462 17.6137C122.462 17.6847 122.462 17.7646 122.462 17.8622V24.5855ZM121.721 33.8251L122.901 34.7881C122.972 34.8413 123.03 34.8902 123.079 34.9301C123.079 35.01 123.083 35.112 123.083 35.2363V42.5765C123.083 42.6741 123.083 42.754 123.083 42.825C123.048 42.8516 123.012 42.8782 122.985 42.896C122.87 42.9049 122.666 42.9093 122.338 42.9093H110.631V33.5544H120.944C121.148 33.5544 121.299 33.5588 121.401 33.5677C121.472 33.6209 121.579 33.7008 121.725 33.8251M129.678 31.0071L127.876 29.5426L128.892 28.766C129.851 27.9849 130.379 26.871 130.379 25.624V16.7838C130.379 15.2217 129.727 13.8549 128.497 12.8253L127.255 11.7913C126.101 10.8327 124.88 10.3445 123.629 10.3445H102.714V50.1075H124.25C125.502 50.1075 126.727 49.6149 127.907 48.6297C128.422 48.1814 128.803 47.8619 129.039 47.6844L129.114 47.6267C130.343 46.6016 130.996 45.2303 130.996 43.6682V34.3621C130.996 33.4789 130.92 32.9109 130.747 32.4538C130.552 31.9567 130.201 31.4863 129.673 31.0159" fill="#040607"/>
<path d="M58.6503 0.896408H0V59.5467H58.6503V0.896408Z" fill="#57EB9F"/>
<path d="M58.6503 0.896408V59.5467H0L14.4407 73.9918H73.0954V15.3371L58.6503 0.896408Z" fill="#DADBDC"/>
<path d="M34.4065 35.8088H24.1063L29.201 20.6803L34.4065 35.8088ZM24.7542 9.86527L10.7928 50.5823H19.1005L21.7498 42.9049H36.7896L39.5411 50.5823H47.8487L33.6077 9.86527H24.7587H24.7542Z" fill="#040607"/>
</svg>
