<svg width="320" height="64" viewBox="0 0 320 64" fill="none" xmlns="http://www.w3.org/2000/svg">
<rect width="311" height="54" transform="translate(0.523438 0.885742)" fill="#57EB9F"/>
<path d="M26.2507 34.8857H21.8146V21.7948H26.3402C27.6399 21.7948 28.7564 22.0569 29.6896 22.5811C30.6271 23.1009 31.3473 23.8488 31.8501 24.8247C32.353 25.8005 32.6044 26.9681 32.6044 28.3275C32.6044 29.6911 32.3509 30.863 31.8438 31.8431C31.3409 32.8232 30.6143 33.5754 29.6641 34.0995C28.718 34.6237 27.5803 34.8857 26.2507 34.8857ZM24.1861 32.8339H26.1357C27.0476 32.8339 27.8082 32.6677 28.4176 32.3353C29.027 31.9987 29.4851 31.498 29.7919 30.8332C30.0987 30.1642 30.2521 29.3289 30.2521 28.3275C30.2521 27.3261 30.0987 26.4951 29.7919 25.8346C29.4851 25.1698 29.0313 24.6734 28.4304 24.3453C27.8338 24.0129 27.0923 23.8467 26.206 23.8467H24.1861V32.8339ZM34.8576 34.8857V21.7948H43.3718V23.7828H37.229V27.3367H42.9308V29.3247H37.229V32.8978H43.4229V34.8857H34.8576ZM47.5426 21.7948L50.9496 32.0988H51.0838L54.4844 21.7948H57.0923L52.4773 34.8857H49.5497L44.9411 21.7948H47.5426ZM58.8166 34.8857V21.7948H67.3308V23.7828H61.188V27.3367H66.8897V29.3247H61.188V32.8978H67.3819V34.8857H58.8166ZM69.7502 34.8857V21.7948H72.1216V32.8978H77.8873V34.8857H69.7502ZM91.1332 28.3403C91.1332 29.7508 90.869 30.9589 90.3406 31.9646C89.8164 32.966 89.1005 33.733 88.1928 34.2657C87.2894 34.7984 86.2646 35.0647 85.1183 35.0647C83.9719 35.0647 82.945 34.7984 82.0373 34.2657C81.1339 33.7288 80.418 32.9596 79.8896 31.9582C79.3654 30.9525 79.1033 29.7465 79.1033 28.3403C79.1033 26.9298 79.3654 25.7238 79.8896 24.7224C80.418 23.7167 81.1339 22.9475 82.0373 22.4149C82.945 21.8822 83.9719 21.6159 85.1183 21.6159C86.2646 21.6159 87.2894 21.8822 88.1928 22.4149C89.1005 22.9475 89.8164 23.7167 90.3406 24.7224C90.869 25.7238 91.1332 26.9298 91.1332 28.3403ZM88.7489 28.3403C88.7489 27.3474 88.5934 26.51 88.2823 25.8282C87.9755 25.1421 87.5494 24.6244 87.0039 24.2749C86.4585 23.9213 85.8299 23.7444 85.1183 23.7444C84.4066 23.7444 83.7781 23.9213 83.2326 24.2749C82.6871 24.6244 82.2589 25.1421 81.9478 25.8282C81.641 26.51 81.4876 27.3474 81.4876 28.3403C81.4876 29.3332 81.641 30.1727 81.9478 30.8588C82.2589 31.5406 82.6871 32.0583 83.2326 32.412C83.7781 32.7615 84.4066 32.9362 85.1183 32.9362C85.8299 32.9362 86.4585 32.7615 87.0039 32.412C87.5494 32.0583 87.9755 31.5406 88.2823 30.8588C88.5934 30.1727 88.7489 29.3332 88.7489 28.3403ZM93.3752 34.8857V21.7948H98.2843C99.29 21.7948 100.134 21.9823 100.816 22.3573C101.502 22.7323 102.019 23.248 102.369 23.9042C102.722 24.5562 102.899 25.2977 102.899 26.1286C102.899 26.9681 102.722 27.7139 102.369 28.3659C102.015 29.0178 101.493 29.5313 100.803 29.9063C100.112 30.2771 99.2623 30.4624 98.2523 30.4624H94.9988V28.5129H97.9327C98.5208 28.5129 99.0023 28.4106 99.3773 28.2061C99.7523 28.0015 100.029 27.7203 100.208 27.3623C100.392 27.0043 100.483 26.5931 100.483 26.1286C100.483 25.6642 100.392 25.2551 100.208 24.9014C100.029 24.5477 99.7502 24.2728 99.3709 24.0768C98.9959 23.8765 98.5123 23.7764 97.9199 23.7764H95.7466V34.8857H93.3752ZM104.959 34.8857V21.7948H113.473V23.7828H107.331V27.3367H113.032V29.3247H107.331V32.8978H113.525V34.8857H104.959ZM115.893 34.8857V21.7948H120.802C121.808 21.7948 122.651 21.9695 123.333 22.319C124.019 22.6684 124.537 23.1585 124.886 23.7892C125.24 24.4156 125.417 25.1464 125.417 25.9816C125.417 26.8211 125.238 27.5498 124.88 28.1677C124.526 28.7813 124.004 29.2565 123.314 29.5931C122.624 29.9255 121.776 30.0917 120.77 30.0917H117.273V28.123H120.45C121.038 28.123 121.52 28.042 121.895 27.8801C122.27 27.7139 122.547 27.4731 122.726 27.1578C122.909 26.8382 123.001 26.4461 123.001 25.9816C123.001 25.5171 122.909 25.1208 122.726 24.7927C122.543 24.4603 122.263 24.2089 121.888 24.0384C121.513 23.8637 121.03 23.7764 120.438 23.7764H118.264V34.8857H115.893ZM122.656 28.9539L125.896 34.8857H123.25L120.067 28.9539H122.656ZM136.501 34.8857H132.065V21.7948H136.59C137.89 21.7948 139.006 22.0569 139.94 22.5811C140.877 23.1009 141.597 23.8488 142.1 24.8247C142.603 25.8005 142.854 26.9681 142.854 28.3275C142.854 29.6911 142.601 30.863 142.094 31.8431C141.591 32.8232 140.864 33.5754 139.914 34.0995C138.968 34.6237 137.83 34.8857 136.501 34.8857ZM134.436 32.8339H136.386C137.298 32.8339 138.058 32.6677 138.668 32.3353C139.277 31.9987 139.735 31.498 140.042 30.8332C140.349 30.1642 140.502 29.3289 140.502 28.3275C140.502 27.3261 140.349 26.4951 140.042 25.8346C139.735 25.1698 139.281 24.6734 138.68 24.3453C138.084 24.0129 137.342 23.8467 136.456 23.8467H134.436V32.8339ZM156.805 28.3403C156.805 29.7508 156.541 30.9589 156.012 31.9646C155.488 32.966 154.772 33.733 153.865 34.2657C152.961 34.7984 151.936 35.0647 150.79 35.0647C149.644 35.0647 148.617 34.7984 147.709 34.2657C146.806 33.7288 146.09 32.9596 145.561 31.9582C145.037 30.9525 144.775 29.7465 144.775 28.3403C144.775 26.9298 145.037 25.7238 145.561 24.7224C146.09 23.7167 146.806 22.9475 147.709 22.4149C148.617 21.8822 149.644 21.6159 150.79 21.6159C151.936 21.6159 152.961 21.8822 153.865 22.4149C154.772 22.9475 155.488 23.7167 156.012 24.7224C156.541 25.7238 156.805 26.9298 156.805 28.3403ZM154.421 28.3403C154.421 27.3474 154.265 26.51 153.954 25.8282C153.647 25.1421 153.221 24.6244 152.676 24.2749C152.13 23.9213 151.502 23.7444 150.79 23.7444C150.078 23.7444 149.45 23.9213 148.904 24.2749C148.359 24.6244 147.931 25.1421 147.62 25.8282C147.313 26.51 147.159 27.3474 147.159 28.3403C147.159 29.3332 147.313 30.1727 147.62 30.8588C147.931 31.5406 148.359 32.0583 148.904 32.412C149.45 32.7615 150.078 32.9362 150.79 32.9362C151.502 32.9362 152.13 32.7615 152.676 32.412C153.221 32.0583 153.647 31.5406 153.954 30.8588C154.265 30.1727 154.421 29.3332 154.421 28.3403ZM170.252 26.2117H167.862C167.794 25.8197 167.668 25.4724 167.485 25.1698C167.301 24.863 167.073 24.6031 166.801 24.39C166.528 24.1769 166.217 24.0171 165.867 23.9106C165.522 23.7998 165.149 23.7444 164.749 23.7444C164.037 23.7444 163.406 23.9234 162.857 24.2813C162.307 24.635 161.877 25.1549 161.566 25.841C161.254 26.5228 161.099 27.3559 161.099 28.3403C161.099 29.3417 161.254 30.1855 161.566 30.8715C161.881 31.5534 162.311 32.069 162.857 32.4184C163.406 32.7636 164.035 32.9362 164.742 32.9362C165.134 32.9362 165.501 32.885 165.842 32.7828C166.187 32.6762 166.496 32.5207 166.769 32.3161C167.046 32.1116 167.278 31.8602 167.465 31.5619C167.657 31.2636 167.789 30.9227 167.862 30.5392L170.252 30.5519C170.163 31.1741 169.969 31.7579 169.671 32.3034C169.377 32.8488 168.991 33.3303 168.514 33.748C168.036 34.1613 167.478 34.4852 166.839 34.7195C166.2 34.9497 165.49 35.0647 164.71 35.0647C163.56 35.0647 162.533 34.7984 161.629 34.2657C160.726 33.733 160.014 32.9639 159.494 31.9582C158.975 30.9525 158.715 29.7465 158.715 28.3403C158.715 26.9298 158.977 25.7238 159.501 24.7224C160.025 23.7167 160.739 22.9475 161.642 22.4149C162.546 21.8822 163.568 21.6159 164.71 21.6159C165.439 21.6159 166.117 21.7181 166.743 21.9227C167.369 22.1272 167.928 22.4276 168.418 22.824C168.908 23.216 169.311 23.6975 169.626 24.2686C169.945 24.8353 170.154 25.483 170.252 26.2117ZM180.676 21.7948H183.048V30.3474C183.048 31.2849 182.826 32.1095 182.383 32.8211C181.944 33.5328 181.326 34.0889 180.529 34.4894C179.732 34.8857 178.801 35.0839 177.736 35.0839C176.666 35.0839 175.733 34.8857 174.936 34.4894C174.139 34.0889 173.521 33.5328 173.082 32.8211C172.643 32.1095 172.424 31.2849 172.424 30.3474V21.7948H174.795V30.1492C174.795 30.6947 174.915 31.1805 175.153 31.6066C175.396 32.0328 175.737 32.3673 176.176 32.6102C176.615 32.8488 177.135 32.9681 177.736 32.9681C178.337 32.9681 178.857 32.8488 179.295 32.6102C179.739 32.3673 180.08 32.0328 180.318 31.6066C180.557 31.1805 180.676 30.6947 180.676 30.1492V21.7948ZM185.625 21.7948H188.527L192.414 31.2806H192.567L196.453 21.7948H199.355V34.8857H197.08V25.8921H196.958L193.34 34.8474H191.64L188.022 25.873H187.901V34.8857H185.625V21.7948ZM201.938 34.8857V21.7948H210.452V23.7828H204.309V27.3367H210.011V29.3247H204.309V32.8978H210.503V34.8857H201.938ZM223.629 21.7948V34.8857H221.52L215.351 25.9688H215.243V34.8857H212.871V21.7948H214.993L221.155 30.7181H221.27V21.7948H223.629ZM225.638 23.7828V21.7948H236.082V23.7828H232.036V34.8857H229.684V23.7828H225.638ZM238.195 34.8857H235.664L240.272 21.7948H243.2L247.815 34.8857H245.284L241.787 24.4795H241.685L238.195 34.8857ZM238.278 29.7529H245.181V31.6578H238.278V29.7529ZM247.382 23.7828V21.7948H257.827V23.7828H253.78V34.8857H251.428V23.7828H247.382ZM262.211 21.7948V34.8857H259.84V21.7948H262.211ZM276.477 28.3403C276.477 29.7508 276.213 30.9589 275.684 31.9646C275.16 32.966 274.444 33.733 273.537 34.2657C272.633 34.7984 271.608 35.0647 270.462 35.0647C269.316 35.0647 268.289 34.7984 267.381 34.2657C266.478 33.7288 265.762 32.9596 265.233 31.9582C264.709 30.9525 264.447 29.7465 264.447 28.3403C264.447 26.9298 264.709 25.7238 265.233 24.7224C265.762 23.7167 266.478 22.9475 267.381 22.4149C268.289 21.8822 269.316 21.6159 270.462 21.6159C271.608 21.6159 272.633 21.8822 273.537 22.4149C274.444 22.9475 275.16 23.7167 275.684 24.7224C276.213 25.7238 276.477 26.9298 276.477 28.3403ZM274.093 28.3403C274.093 27.3474 273.937 26.51 273.626 25.8282C273.319 25.1421 272.893 24.6244 272.348 24.2749C271.802 23.9213 271.174 23.7444 270.462 23.7444C269.75 23.7444 269.122 23.9213 268.576 24.2749C268.031 24.6244 267.603 25.1421 267.292 25.8282C266.985 26.51 266.831 27.3474 266.831 28.3403C266.831 29.3332 266.985 30.1727 267.292 30.8588C267.603 31.5406 268.031 32.0583 268.576 32.412C269.122 32.7615 269.75 32.9362 270.462 32.9362C271.174 32.9362 271.802 32.7615 272.348 32.412C272.893 32.0583 273.319 31.5406 273.626 30.8588C273.937 30.1727 274.093 29.3332 274.093 28.3403ZM289.477 21.7948V34.8857H287.367L281.199 25.9688H281.09V34.8857H278.719V21.7948H280.841L287.003 30.7181H287.118V21.7948H289.477Z" fill="#040607"/>
<path d="M319.416 63.4777V9.46848L311.52 0.883789V54.893H0.511719L8.40861 63.4777H319.416Z" fill="#232422"/>
</svg>
