<svg width="320" height="64" viewBox="0 0 320 64" fill="none" xmlns="http://www.w3.org/2000/svg">
<rect width="311" height="54" transform="translate(0.523438 0.479492)" fill="#EDEDED"/>
<path d="M26.2507 34.4795H21.8146V21.3886H26.3402C27.6399 21.3886 28.7564 21.6507 29.6896 22.1748C30.6271 22.6947 31.3473 23.4426 31.8501 24.4184C32.353 25.3943 32.6044 26.5619 32.6044 27.9213C32.6044 29.2849 32.3509 30.4568 31.8438 31.4369C31.3409 32.417 30.6143 33.1691 29.6641 33.6933C28.718 34.2174 27.5803 34.4795 26.2507 34.4795ZM24.1861 32.4276H26.1357C27.0476 32.4276 27.8082 32.2615 28.4176 31.9291C29.027 31.5924 29.4851 31.0917 29.7919 30.4269C30.0987 29.7579 30.2521 28.9227 30.2521 27.9213C30.2521 26.9198 30.0987 26.0889 29.7919 25.4284C29.4851 24.7636 29.0313 24.2671 28.4304 23.939C27.8338 23.6066 27.0923 23.4404 26.206 23.4404H24.1861V32.4276ZM34.8576 34.4795V21.3886H43.3718V23.3765H37.229V26.9305H42.9308V28.9184H37.229V32.4916H43.4229V34.4795H34.8576ZM47.5426 21.3886L50.9496 31.6926H51.0838L54.4844 21.3886H57.0923L52.4773 34.4795H49.5497L44.9411 21.3886H47.5426ZM58.8166 34.4795V21.3886H67.3308V23.3765H61.188V26.9305H66.8897V28.9184H61.188V32.4916H67.3819V34.4795H58.8166ZM69.7502 34.4795V21.3886H72.1216V32.4916H77.8873V34.4795H69.7502ZM91.1332 27.934C91.1332 29.3445 90.869 30.5526 90.3406 31.5583C89.8164 32.5597 89.1005 33.3268 88.1928 33.8595C87.2894 34.3921 86.2646 34.6585 85.1183 34.6585C83.9719 34.6585 82.945 34.3921 82.0373 33.8595C81.1339 33.3225 80.418 32.5534 79.8896 31.5519C79.3654 30.5463 79.1033 29.3403 79.1033 27.934C79.1033 26.5235 79.3654 25.3176 79.8896 24.3161C80.418 23.3105 81.1339 22.5413 82.0373 22.0086C82.945 21.4759 83.9719 21.2096 85.1183 21.2096C86.2646 21.2096 87.2894 21.4759 88.1928 22.0086C89.1005 22.5413 89.8164 23.3105 90.3406 24.3161C90.869 25.3176 91.1332 26.5235 91.1332 27.934ZM88.7489 27.934C88.7489 26.9411 88.5934 26.1038 88.2823 25.422C87.9755 24.7359 87.5494 24.2181 87.0039 23.8687C86.4585 23.515 85.8299 23.3382 85.1183 23.3382C84.4066 23.3382 83.7781 23.515 83.2326 23.8687C82.6871 24.2181 82.2589 24.7359 81.9478 25.422C81.641 26.1038 81.4876 26.9411 81.4876 27.934C81.4876 28.9269 81.641 29.7664 81.9478 30.4525C82.2589 31.1343 82.6871 31.6521 83.2326 32.0058C83.7781 32.3552 84.4066 32.5299 85.1183 32.5299C85.8299 32.5299 86.4585 32.3552 87.0039 32.0058C87.5494 31.6521 87.9755 31.1343 88.2823 30.4525C88.5934 29.7664 88.7489 28.9269 88.7489 27.934ZM93.3752 34.4795V21.3886H98.2843C99.29 21.3886 100.134 21.5761 100.816 21.9511C101.502 22.3261 102.019 22.8417 102.369 23.498C102.722 24.1499 102.899 24.8914 102.899 25.7224C102.899 26.5619 102.722 27.3076 102.369 27.9596C102.015 28.6116 101.493 29.1251 100.803 29.5001C100.112 29.8708 99.2623 30.0562 98.2523 30.0562H94.9988V28.1066H97.9327C98.5208 28.1066 99.0023 28.0043 99.3773 27.7998C99.7523 27.5953 100.029 27.314 100.208 26.9561C100.392 26.5981 100.483 26.1869 100.483 25.7224C100.483 25.2579 100.392 24.8488 100.208 24.4951C100.029 24.1414 99.7502 23.8666 99.3709 23.6705C98.9959 23.4703 98.5123 23.3701 97.9199 23.3701H95.7466V34.4795H93.3752ZM104.959 34.4795V21.3886H113.473V23.3765H107.331V26.9305H113.032V28.9184H107.331V32.4916H113.525V34.4795H104.959ZM115.893 34.4795V21.3886H120.802C121.808 21.3886 122.651 21.5633 123.333 21.9127C124.019 22.2622 124.537 22.7522 124.886 23.3829C125.24 24.0093 125.417 24.7401 125.417 25.5754C125.417 26.4149 125.238 27.1436 124.88 27.7615C124.526 28.3751 124.004 28.8502 123.314 29.1869C122.624 29.5193 121.776 29.6855 120.77 29.6855H117.273V27.7167H120.45C121.038 27.7167 121.52 27.6357 121.895 27.4738C122.27 27.3076 122.547 27.0668 122.726 26.7515C122.909 26.4319 123.001 26.0399 123.001 25.5754C123.001 25.1109 122.909 24.7146 122.726 24.3865C122.543 24.0541 122.263 23.8026 121.888 23.6322C121.513 23.4575 121.03 23.3701 120.438 23.3701H118.264V34.4795H115.893ZM122.656 28.5477L125.896 34.4795H123.25L120.067 28.5477H122.656ZM136.501 34.4795H132.065V21.3886H136.59C137.89 21.3886 139.006 21.6507 139.94 22.1748C140.877 22.6947 141.597 23.4426 142.1 24.4184C142.603 25.3943 142.854 26.5619 142.854 27.9213C142.854 29.2849 142.601 30.4568 142.094 31.4369C141.591 32.417 140.864 33.1691 139.914 33.6933C138.968 34.2174 137.83 34.4795 136.501 34.4795ZM134.436 32.4276H136.386C137.298 32.4276 138.058 32.2615 138.668 31.9291C139.277 31.5924 139.735 31.0917 140.042 30.4269C140.349 29.7579 140.502 28.9227 140.502 27.9213C140.502 26.9198 140.349 26.0889 140.042 25.4284C139.735 24.7636 139.281 24.2671 138.68 23.939C138.084 23.6066 137.342 23.4404 136.456 23.4404H134.436V32.4276ZM156.805 27.934C156.805 29.3445 156.541 30.5526 156.012 31.5583C155.488 32.5597 154.772 33.3268 153.865 33.8595C152.961 34.3921 151.936 34.6585 150.79 34.6585C149.644 34.6585 148.617 34.3921 147.709 33.8595C146.806 33.3225 146.09 32.5534 145.561 31.5519C145.037 30.5463 144.775 29.3403 144.775 27.934C144.775 26.5235 145.037 25.3176 145.561 24.3161C146.09 23.3105 146.806 22.5413 147.709 22.0086C148.617 21.4759 149.644 21.2096 150.79 21.2096C151.936 21.2096 152.961 21.4759 153.865 22.0086C154.772 22.5413 155.488 23.3105 156.012 24.3161C156.541 25.3176 156.805 26.5235 156.805 27.934ZM154.421 27.934C154.421 26.9411 154.265 26.1038 153.954 25.422C153.647 24.7359 153.221 24.2181 152.676 23.8687C152.13 23.515 151.502 23.3382 150.79 23.3382C150.078 23.3382 149.45 23.515 148.904 23.8687C148.359 24.2181 147.931 24.7359 147.62 25.422C147.313 26.1038 147.159 26.9411 147.159 27.934C147.159 28.9269 147.313 29.7664 147.62 30.4525C147.931 31.1343 148.359 31.6521 148.904 32.0058C149.45 32.3552 150.078 32.5299 150.79 32.5299C151.502 32.5299 152.13 32.3552 152.676 32.0058C153.221 31.6521 153.647 31.1343 153.954 30.4525C154.265 29.7664 154.421 28.9269 154.421 27.934ZM170.252 25.8055H167.862C167.794 25.4134 167.668 25.0661 167.485 24.7636C167.301 24.4568 167.073 24.1968 166.801 23.9838C166.528 23.7707 166.217 23.6109 165.867 23.5043C165.522 23.3936 165.149 23.3382 164.749 23.3382C164.037 23.3382 163.406 23.5171 162.857 23.8751C162.307 24.2288 161.877 24.7487 161.566 25.4347C161.254 26.1166 161.099 26.9497 161.099 27.934C161.099 28.9355 161.254 29.7792 161.566 30.4653C161.881 31.1471 162.311 31.6627 162.857 32.0122C163.406 32.3573 164.035 32.5299 164.742 32.5299C165.134 32.5299 165.501 32.4788 165.842 32.3765C166.187 32.27 166.496 32.1144 166.769 31.9099C167.046 31.7053 167.278 31.4539 167.465 31.1556C167.657 30.8573 167.789 30.5164 167.862 30.1329L170.252 30.1457C170.163 30.7678 169.969 31.3517 169.671 31.8971C169.377 32.4426 168.991 32.9241 168.514 33.3417C168.036 33.7551 167.478 34.0789 166.839 34.3133C166.2 34.5434 165.49 34.6585 164.71 34.6585C163.56 34.6585 162.533 34.3921 161.629 33.8595C160.726 33.3268 160.014 32.5576 159.494 31.5519C158.975 30.5463 158.715 29.3403 158.715 27.934C158.715 26.5235 158.977 25.3176 159.501 24.3161C160.025 23.3105 160.739 22.5413 161.642 22.0086C162.546 21.4759 163.568 21.2096 164.71 21.2096C165.439 21.2096 166.117 21.3119 166.743 21.5164C167.369 21.721 167.928 22.0214 168.418 22.4177C168.908 22.8097 169.311 23.2913 169.626 23.8623C169.945 24.4291 170.154 25.0768 170.252 25.8055ZM180.676 21.3886H183.048V29.9411C183.048 30.8786 182.826 31.7032 182.383 32.4149C181.944 33.1265 181.326 33.6826 180.529 34.0832C179.732 34.4795 178.801 34.6776 177.736 34.6776C176.666 34.6776 175.733 34.4795 174.936 34.0832C174.139 33.6826 173.521 33.1265 173.082 32.4149C172.643 31.7032 172.424 30.8786 172.424 29.9411V21.3886H174.795V29.743C174.795 30.2884 174.915 30.7742 175.153 31.2004C175.396 31.6265 175.737 31.961 176.176 32.2039C176.615 32.4426 177.135 32.5619 177.736 32.5619C178.337 32.5619 178.857 32.4426 179.295 32.2039C179.739 31.961 180.08 31.6265 180.318 31.2004C180.557 30.7742 180.676 30.2884 180.676 29.743V21.3886ZM185.625 21.3886H188.527L192.414 30.8744H192.567L196.453 21.3886H199.355V34.4795H197.08V25.4859H196.958L193.34 34.4411H191.64L188.022 25.4667H187.901V34.4795H185.625V21.3886ZM201.938 34.4795V21.3886H210.452V23.3765H204.309V26.9305H210.011V28.9184H204.309V32.4916H210.503V34.4795H201.938ZM223.629 21.3886V34.4795H221.52L215.351 25.5626H215.243V34.4795H212.871V21.3886H214.993L221.155 30.3119H221.27V21.3886H223.629ZM225.638 23.3765V21.3886H236.082V23.3765H232.036V34.4795H229.684V23.3765H225.638ZM238.195 34.4795H235.664L240.272 21.3886H243.2L247.815 34.4795H245.284L241.787 24.0732H241.685L238.195 34.4795ZM238.278 29.3467H245.181V31.2515H238.278V29.3467ZM247.382 23.3765V21.3886H257.827V23.3765H253.78V34.4795H251.428V23.3765H247.382ZM262.211 21.3886V34.4795H259.84V21.3886H262.211ZM276.477 27.934C276.477 29.3445 276.213 30.5526 275.684 31.5583C275.16 32.5597 274.444 33.3268 273.537 33.8595C272.633 34.3921 271.608 34.6585 270.462 34.6585C269.316 34.6585 268.289 34.3921 267.381 33.8595C266.478 33.3225 265.762 32.5534 265.233 31.5519C264.709 30.5463 264.447 29.3403 264.447 27.934C264.447 26.5235 264.709 25.3176 265.233 24.3161C265.762 23.3105 266.478 22.5413 267.381 22.0086C268.289 21.4759 269.316 21.2096 270.462 21.2096C271.608 21.2096 272.633 21.4759 273.537 22.0086C274.444 22.5413 275.16 23.3105 275.684 24.3161C276.213 25.3176 276.477 26.5235 276.477 27.934ZM274.093 27.934C274.093 26.9411 273.937 26.1038 273.626 25.422C273.319 24.7359 272.893 24.2181 272.348 23.8687C271.802 23.515 271.174 23.3382 270.462 23.3382C269.75 23.3382 269.122 23.515 268.576 23.8687C268.031 24.2181 267.603 24.7359 267.292 25.422C266.985 26.1038 266.831 26.9411 266.831 27.934C266.831 28.9269 266.985 29.7664 267.292 30.4525C267.603 31.1343 268.031 31.6521 268.576 32.0058C269.122 32.3552 269.75 32.5299 270.462 32.5299C271.174 32.5299 271.802 32.3552 272.348 32.0058C272.893 31.6521 273.319 31.1343 273.626 30.4525C273.937 29.7664 274.093 28.9269 274.093 27.934ZM289.477 21.3886V34.4795H287.367L281.199 25.5626H281.09V34.4795H278.719V21.3886H280.841L287.003 30.3119H287.118V21.3886H289.477Z" fill="#040607"/>
<path d="M319.416 63.0715V9.06223L311.52 0.477539V54.4868H0.511719L8.40861 63.0715H319.416Z" fill="#232422"/>
</svg>
