<svg width="30" height="30" viewBox="0 0 30 30" fill="none" xmlns="http://www.w3.org/2000/svg">
<path d="M23.9112 0.264893H0.264877V23.9113H23.9112V0.264893Z" fill="#F8DF05"/>
<path d="M23.9112 0.264893V23.9113H0.264877L6.08701 29.7352H29.7352V6.08702L23.9112 0.264893Z" fill="#DADBDC"/>
<g clip-path="url(#clip0_24_1881)">
<path d="M10.1115 4.0519L10.1012 4.46694V5.49418L10.1167 5.89366L10.8171 5.92997L11.0143 5.9196L10.8171 5.89885L10.1479 5.86253L10.1323 5.49418V4.46694L10.1115 4.0519Z" fill="#C3C3C3"/>
<path d="M10.1643 4.06314C10.0898 4.13757 10.1323 4.36999 10.1323 4.46694V5.46305C10.1323 5.56794 10.0965 5.75549 10.1511 5.84893C10.2078 5.94609 10.9232 5.94667 11.003 5.86685C11.0775 5.79241 11.035 5.55999 11.035 5.46305V4.46694C11.035 4.36206 11.0708 4.1745 11.0162 4.08105C10.9595 3.9839 10.2441 3.98331 10.1643 4.06314Z" fill="#1A1C1C"/>
<path d="M11.0454 4.0519L11.035 4.40468V5.49418L11.0558 5.87809L11.0661 5.52531V4.43581L11.0454 4.0519Z" fill="#1D1D1D"/>
<path d="M13.2547 4.66509L12.965 4.93386L12.3113 5.58756L12.0425 5.88746L12.3424 5.61869L13.0272 4.93386L13.2547 4.66509Z" fill="#F9F9F9"/>
<path d="M7.90244 4.69622L8.14007 4.96499L8.88715 5.71207L9.12479 5.91859L8.88715 5.64982L8.14007 4.90274L7.90244 4.69622Z" fill="#030303"/>
<path d="M13.3074 4.70449C13.1997 4.71863 13.0987 4.86242 13.0272 4.93387L12.3424 5.61869C12.2641 5.69696 12.0973 5.81244 12.0819 5.92998C12.0634 6.07061 12.5442 6.55136 12.6848 6.5329C12.7925 6.51876 12.8935 6.37497 12.965 6.30352L13.6498 5.61869C13.7281 5.54043 13.8949 5.42494 13.9103 5.30741C13.9288 5.16677 13.448 4.68602 13.3074 4.70449Z" fill="#1A1C1C"/>
<path d="M13.381 4.69622L13.4639 4.80949L13.8053 5.1509L13.9186 5.23376L13.8357 5.12049L13.4943 4.77909L13.381 4.69622Z" fill="#3E3E3E"/>
<path d="M7.82879 4.72673C7.73133 4.75103 7.64747 4.86631 7.57976 4.93386C7.49484 5.01859 7.30477 5.14942 7.28812 5.27628C7.27511 5.37542 7.39427 5.46376 7.45528 5.5253L8.01556 6.08561C8.12233 6.19238 8.3787 6.5547 8.54474 6.53289C8.65245 6.51875 8.75343 6.37497 8.8249 6.30351C8.90636 6.22209 9.09861 6.08873 9.09861 5.9611C9.09861 5.85207 8.95632 5.75026 8.88715 5.68095L8.29571 5.08951C8.199 4.99279 7.98577 4.68759 7.82879 4.72673Z" fill="#1A1C1C"/>
<path d="M7.24874 5.34992L7.33161 5.4632L7.67299 5.8046L7.78627 5.88747L7.7034 5.77419L7.36202 5.43279L7.24874 5.34992Z" fill="#B9B9B9"/>
<path d="M16.358 5.47342C15.6838 5.61389 15.1151 6.45693 14.6459 6.92608L11.284 10.288L10.3191 11.2529C10.2099 11.3621 10.0571 11.5893 9.91439 11.6472C9.82443 11.6837 9.75791 11.5007 9.71726 11.4397C9.53547 11.167 9.33083 10.916 9.12582 10.6615C8.44018 9.81038 7.20196 9.09113 6.27237 10.0078C6.18027 10.0986 6.02785 10.2054 5.96627 10.3191C5.89454 10.4515 6.36259 10.814 6.45914 10.9105C6.99267 11.4441 7.53565 11.9274 7.72504 12.6848C7.90664 13.4113 7.76796 14.218 7.3411 14.8327C7.1934 15.0454 7.01569 15.2411 6.83268 15.4241C6.77496 15.4818 6.62516 15.5841 6.62516 15.6732C6.62516 15.7696 6.80067 15.8902 6.86381 15.9533L7.54863 16.6381L10.0078 19.0973L10.6303 19.7199C10.6881 19.7776 10.7903 19.9274 10.8794 19.9274C10.9966 19.9274 11.1741 19.6741 11.2529 19.5953C11.5501 19.2981 11.8045 18.9975 12.1868 18.8223C12.8931 18.4986 13.6732 18.2833 14.3035 17.8107C15.2018 17.1369 15.9685 16.1872 16.7626 15.393C17.2482 14.9074 18.1449 14.326 18.07 13.5564C18.0274 13.1179 17.5866 12.7221 17.1362 12.7471C17.0349 12.7527 16.5136 12.8819 16.5136 12.9961C16.5136 12.9668 16.6176 12.8919 16.6381 12.8716C16.7626 12.7489 16.8915 12.6217 16.9753 12.4669C17.2894 11.8872 16.8843 11.1606 16.2335 11.0973C16.0564 11.0801 15.8544 11.128 15.7043 11.2218C15.6773 11.2386 15.535 11.3602 15.5071 11.3463C15.4994 11.3425 15.7428 11.0899 15.7665 11.0662C16.064 10.7687 16.2066 10.3038 15.9741 9.91441C15.7637 9.56216 15.3289 9.34993 14.9261 9.47861C14.8491 9.5032 14.5574 9.70644 14.511 9.69651L14.7082 9.47861L15.3307 8.85604L16.7315 7.45527C16.9652 7.22159 17.2638 6.99672 17.3748 6.67706C17.5881 6.06293 17.0172 5.33609 16.358 5.47342Z" fill="#1A1C1C"/>
<path d="M7.87131 5.94136L7.95417 6.05463L8.32684 6.42789L8.47109 6.54116L8.35782 6.3969L7.98459 6.02423L7.87131 5.94136Z" fill="#080808"/>
<path d="M12.0425 6.00362L12.1254 6.11689L12.4669 6.45902L12.6112 6.57229L12.5283 6.45902L12.1868 6.11689L12.0425 6.00362Z" fill="#1A1C1C"/>
<path d="M17.0835 7.09311L16.5759 7.57978L15.3307 8.82492L14.9262 9.22959L14.8129 9.37383L14.9572 9.26056L15.3619 8.85604L16.6381 7.57978L17.0835 7.09311Z" fill="#0B0B0B"/>
</g>
<defs>
<clipPath id="clip0_24_1881">
<rect width="16" height="16" fill="white" transform="translate(3.99999 4.00002)"/>
</clipPath>
</defs>
</svg>
