<svg width="1327" height="1747" viewBox="0 0 1327 1747" fill="none" xmlns="http://www.w3.org/2000/svg">
<path d="M388.146 746.422H323.896L429.932 930.083L462.052 874.432L388.146 746.422Z" fill="#9B55FF"/>
<path d="M1013.28 471.063C1013.37 471.235 1013.44 471.417 1013.52 471.599C1013.59 471.761 1013.65 471.922 1013.69 472.083C1013.74 472.255 1013.79 472.432 1013.81 472.61C1013.85 472.787 1013.9 472.964 1013.91 473.146C1013.92 473.323 1013.92 473.5 1013.92 473.677C1013.92 473.854 1013.92 474.031 1013.91 474.208C1013.9 474.386 1013.85 474.563 1013.81 474.74C1013.79 474.922 1013.74 475.094 1013.69 475.271C1013.65 475.432 1013.59 475.589 1013.52 475.745C1013.44 475.932 1013.37 476.12 1013.27 476.297C1013.24 476.349 1013.23 476.412 1013.2 476.464L937.682 607.261L1124.05 930.078L1156.19 874.432L1119.24 810.427C1119.2 810.37 1119.19 810.313 1119.16 810.261C1119.1 810.156 1119.05 810.052 1119 809.943C1118.95 809.828 1118.91 809.714 1118.86 809.594C1118.81 809.474 1118.77 809.354 1118.73 809.229C1118.71 809.125 1118.68 809.021 1118.65 808.917C1118.62 808.797 1118.6 808.682 1118.59 808.563C1118.56 808.432 1118.53 808.302 1118.52 808.172C1118.52 808.052 1118.5 807.932 1118.5 807.813C1118.5 807.755 1118.49 807.698 1118.49 807.636C1118.49 807.583 1118.5 807.526 1118.5 807.464C1118.5 807.344 1118.52 807.229 1118.52 807.11C1118.53 806.979 1118.56 806.849 1118.59 806.719C1118.6 806.594 1118.62 806.479 1118.65 806.36C1118.68 806.255 1118.71 806.151 1118.73 806.047C1118.77 805.927 1118.81 805.802 1118.86 805.682C1118.91 805.568 1118.95 805.453 1119 805.339C1119.05 805.229 1119.1 805.125 1119.16 805.016C1119.19 804.964 1119.2 804.906 1119.24 804.854L1234.92 604.474C1234.96 604.422 1235 604.38 1235.03 604.323C1235.14 604.156 1235.25 604 1235.37 603.844C1235.48 603.703 1235.59 603.568 1235.71 603.443C1235.83 603.313 1235.97 603.198 1236.1 603.078C1236.24 602.958 1236.37 602.839 1236.52 602.735C1236.67 602.63 1236.83 602.542 1236.97 602.453C1237.14 602.365 1237.28 602.276 1237.44 602.203C1237.61 602.13 1237.79 602.068 1237.96 602.011C1238.12 601.953 1238.29 601.896 1238.47 601.854C1238.62 601.813 1238.8 601.792 1238.97 601.766C1239.17 601.74 1239.36 601.714 1239.56 601.708C1239.62 601.703 1239.68 601.688 1239.74 601.688H1307.23L1120.84 278.865H902.333L1013.2 470.891C1013.23 470.948 1013.25 471.005 1013.28 471.063Z" fill="#4D54FF"/>
<mask id="mask0_174_2" style="mask-type:luminance" maskUnits="userSpaceOnUse" x="1209" y="611" width="118" height="192">
<path d="M1209.67 611.667H1326.53V802.334H1209.67V611.667Z" fill="white"/>
</mask>
<g mask="url(#mask0_174_2)">
<path d="M1278.31 802.068H1352.21L1461.47 612.833H1320.09L1210.84 802.068" fill="#57EB9F"/>
</g>
<path d="M590.614 540.469L625.958 601.688H928.026L1001.93 473.677L889.468 278.865H741.651" fill="#9B55FF"/>
<path d="M465.281 468.104L728.771 11.7085H664.521L401.016 468.104H465.281Z" fill="#00D1FF"/>
<path d="M510.266 534.896H580.958L733.599 270.505C733.641 270.453 733.682 270.411 733.708 270.359C733.812 270.188 733.948 270.026 734.068 269.865C734.172 269.734 734.266 269.599 734.385 269.479C734.521 269.349 734.651 269.229 734.786 269.104C734.932 269 735.052 268.88 735.198 268.771C735.349 268.667 735.505 268.589 735.667 268.495C735.813 268.401 735.958 268.307 736.12 268.24C736.292 268.161 736.469 268.104 736.641 268.042C736.802 267.984 736.974 267.932 737.146 267.896C737.307 267.854 737.495 267.828 737.667 267.802C737.854 267.771 738.052 267.745 738.24 267.745C738.307 267.745 738.375 267.719 738.427 267.719H883.026L810.734 142.505L772.172 75.7083L738.427 17.2812L474.922 473.677" fill="#9B55FF"/>
<mask id="mask1_174_2" style="mask-type:luminance" maskUnits="userSpaceOnUse" x="1248" y="1013" width="79" height="252">
<path d="M1248.33 1013H1326.53V1265H1248.33V1013Z" fill="white"/>
</mask>
<g mask="url(#mask1_174_2)">
<path d="M1249.4 1136.03H1394C1394.07 1136.03 1394.12 1136.05 1394.19 1136.05C1394.38 1136.06 1394.57 1136.08 1394.77 1136.11C1394.95 1136.13 1395.12 1136.16 1395.28 1136.19C1395.45 1136.23 1395.62 1136.29 1395.8 1136.35C1395.97 1136.41 1396.15 1136.46 1396.31 1136.54C1396.47 1136.61 1396.61 1136.71 1396.76 1136.79C1396.92 1136.89 1397.08 1136.97 1397.23 1137.07C1397.37 1137.18 1397.5 1137.3 1397.64 1137.42C1397.77 1137.54 1397.92 1137.65 1398.04 1137.79C1398.16 1137.91 1398.26 1138.04 1398.36 1138.18C1398.49 1138.34 1398.61 1138.49 1398.72 1138.67C1398.74 1138.72 1398.8 1138.76 1398.83 1138.82L1471.12 1264.04L1541.81 1141.6L1467.91 1013.59H1320.09" fill="#57EB9F"/>
</g>
<path d="M786.65 1147.18L895.906 1336.41H1114.41L1005.16 1147.18H786.65Z" fill="#FF6F07"/>
<path d="M805.906 1336.41L658.094 1080.38H593.828L741.651 1336.41H805.906Z" fill="#4D54FF"/>
<path d="M439.588 935.651H497.4L468.494 885.578" fill="#9B55FF"/>
<path d="M670.958 1481.14L741.651 1603.58H883.026L812.349 1481.14H670.958Z" fill="#FF3A4D"/>
<path d="M1056.59 946.797L1090.32 1005.23C1090.35 1005.28 1090.38 1005.34 1090.39 1005.39C1090.49 1005.57 1090.57 1005.76 1090.65 1005.95C1090.71 1006.11 1090.77 1006.26 1090.83 1006.42C1090.88 1006.59 1090.91 1006.78 1090.95 1006.95C1090.97 1007.13 1091.02 1007.31 1091.03 1007.48C1091.05 1007.66 1091.05 1007.84 1091.05 1008.02C1091.05 1008.2 1091.05 1008.38 1091.03 1008.55C1091.02 1008.73 1090.97 1008.9 1090.95 1009.08C1090.91 1009.26 1090.88 1009.44 1090.83 1009.61C1090.77 1009.77 1090.71 1009.93 1090.65 1010.08C1090.57 1010.27 1090.49 1010.46 1090.4 1010.65C1090.38 1010.69 1090.35 1010.75 1090.32 1010.8L1014.81 1141.6L1124.05 1330.84L1233.32 1141.6L1120.84 946.797" fill="#00D1FF"/>
<path d="M670.958 1469.99H815.562C815.625 1469.99 815.682 1470.01 815.744 1470.02C815.932 1470.02 816.135 1470.04 816.317 1470.07C816.494 1470.09 816.682 1470.12 816.854 1470.16C817.015 1470.2 817.172 1470.26 817.333 1470.31C817.521 1470.37 817.692 1470.43 817.864 1470.51C818.026 1470.58 818.172 1470.67 818.317 1470.75C818.479 1470.84 818.64 1470.93 818.786 1471.04C818.932 1471.14 819.067 1471.27 819.198 1471.38C819.333 1471.5 819.479 1471.62 819.599 1471.75C819.718 1471.87 819.828 1472.01 819.932 1472.15C820.052 1472.3 820.172 1472.46 820.281 1472.63C820.307 1472.68 820.359 1472.73 820.385 1472.78L892.682 1598.01L963.375 1475.57L889.468 1347.56H741.651" fill="#57EB9F"/>
<path d="M388.146 468.104L651.651 11.7085H587.401L323.896 468.104H388.146Z" fill="white"/>
<path d="M208.213 1347.56L356.025 1603.58H420.281L272.468 1347.56H208.213Z" fill="white"/>
<path d="M574.531 1080.38H278.896L131.078 1336.41H426.719L574.531 1080.38Z" fill="#FF4DD8"/>
<path d="M131.078 1347.56L278.896 1603.58H343.161L195.333 1347.56H131.078Z" fill="#57EB9F"/>
<path d="M285.333 1347.56L433.146 1603.58H497.401L349.588 1347.56H285.333Z" fill="#00D1FF"/>
<path d="M311.026 468.104L574.531 11.7085H510.281L246.771 468.104H311.026Z" fill="#F8DF05"/>
<path d="M584.188 1085.95L436.375 1341.98L584.188 1598.01L656.479 1472.78L732 1341.98" fill="#9B55FF"/>
<path d="M362.453 1347.56L510.266 1603.58H574.531L426.708 1347.56H362.453Z" fill="#FF3A4D"/>
<path d="M343.161 11.7085H278.895L15.3848 468.104H79.6504L343.161 11.7085Z" fill="#57EB9F"/>
<path d="M156.771 468.104L420.281 11.7085H356.026L92.5205 468.104H156.771Z" fill="#FF4DD8"/>
<path d="M275.682 746.422H246.771L356.026 935.651H420.281L311.026 746.422" fill="#4D54FF"/>
<path d="M580.958 946.797H439.588L510.265 1069.23H651.65L580.958 946.797Z" fill="#F8DF05"/>
<path d="M232.213 743.458C232.161 743.365 232.104 743.266 232.067 743.161C232.015 743.042 231.958 742.917 231.906 742.792C231.864 742.672 231.827 742.552 231.786 742.432C231.76 742.333 231.734 742.24 231.708 742.141C231.682 742.016 231.65 741.885 231.64 741.75C231.614 741.625 231.598 741.505 231.588 741.38C231.572 741.266 231.572 741.151 231.572 741.036C231.562 740.974 231.546 740.911 231.546 740.849C231.546 740.781 231.562 740.719 231.572 740.656C231.572 740.542 231.572 740.427 231.588 740.312C231.598 740.188 231.614 740.068 231.64 739.943C231.65 739.807 231.682 739.682 231.708 739.552C231.734 739.453 231.76 739.354 231.801 739.255C231.827 739.141 231.864 739.021 231.906 738.901C231.958 738.781 232.015 738.651 232.067 738.531C232.104 738.427 232.161 738.328 232.213 738.234C232.255 738.177 232.265 738.12 232.291 738.062L347.973 537.682C348.015 537.63 348.051 537.589 348.077 537.536C348.187 537.365 348.317 537.203 348.437 537.042C348.546 536.906 348.65 536.776 348.76 536.656C348.895 536.521 349.025 536.401 349.161 536.281C349.291 536.167 349.426 536.042 349.572 535.943C349.718 535.839 349.88 535.75 350.041 535.656C350.187 535.573 350.333 535.479 350.494 535.406C350.666 535.333 350.838 535.276 351.015 535.219C351.171 535.161 351.348 535.099 351.52 535.062C351.692 535.021 351.854 535 352.025 534.974C352.229 534.948 352.426 534.922 352.624 534.911C352.682 534.911 352.744 534.896 352.801 534.896H497.4L465.281 479.25H15.4004L278.895 935.651H343.161L232.291 743.635C232.255 743.578 232.239 743.516 232.213 743.458Z" fill="#F8DF05"/>
<mask id="mask2_174_2" style="mask-type:luminance" maskUnits="userSpaceOnUse" x="1248" y="1146" width="79" height="125">
<path d="M1248.33 1146.33H1326.53V1270.33H1248.33V1146.33Z" fill="white"/>
</mask>
<g mask="url(#mask2_174_2)">
<path d="M1249.4 1147.18L1320.09 1269.61H1461.47L1390.79 1147.18H1249.4Z" fill="#009494"/>
</g>
<path d="M613.094 601.688L598.641 576.651V576.646L584.188 551.615L555.266 601.688" fill="#FF4DD8"/>
<path d="M812.333 935.651L849.292 871.646C849.318 871.594 849.375 871.552 849.401 871.505C849.505 871.323 849.641 871.161 849.76 871.005C849.865 870.87 849.958 870.734 850.078 870.62C850.198 870.484 850.349 870.359 850.479 870.24C850.615 870.125 850.745 870.01 850.896 869.906C851.042 869.797 851.198 869.708 851.359 869.62C851.505 869.536 851.651 869.448 851.812 869.375C851.974 869.297 852.161 869.24 852.333 869.182C852.495 869.125 852.667 869.068 852.839 869.021C853 868.984 853.172 868.958 853.349 868.938C853.547 868.911 853.734 868.885 853.932 868.875C854 868.875 854.052 868.859 854.12 868.859H1008.38C1008.44 868.859 1008.49 868.875 1008.56 868.875C1008.68 868.88 1008.79 868.885 1008.91 868.901C1009.03 868.911 1009.15 868.927 1009.28 868.953C1009.41 868.969 1009.53 868.99 1009.67 869.021C1009.76 869.047 1009.86 869.073 1009.97 869.104C1010.08 869.141 1010.2 869.182 1010.31 869.229C1010.44 869.276 1010.56 869.318 1010.68 869.375C1010.79 869.422 1010.9 869.479 1010.98 869.531C1011.04 869.562 1011.1 869.573 1011.16 869.604C1011.21 869.635 1011.26 869.682 1011.31 869.708C1011.4 869.771 1011.51 869.839 1011.6 869.906C1011.71 869.979 1011.8 870.062 1011.91 870.146C1012 870.224 1012.09 870.302 1012.19 870.385C1012.27 870.458 1012.33 870.536 1012.41 870.62C1012.51 870.708 1012.59 870.807 1012.67 870.901C1012.74 871.005 1012.83 871.099 1012.9 871.198C1012.97 871.297 1013.03 871.396 1013.09 871.495C1013.12 871.547 1013.17 871.589 1013.2 871.646L1050.15 935.651H1114.41L931.24 618.406L748.078 935.651" fill="#00D1FF"/>
<path d="M574.531 546.042H516.708L545.614 596.12" fill="#57EB9F"/>
<path d="M704.77 738.235C704.864 738.406 704.947 738.583 705.015 738.766C705.077 738.927 705.145 739.094 705.197 739.261C705.255 739.427 705.281 739.599 705.307 739.771C705.348 739.953 705.385 740.136 705.4 740.318C705.426 740.495 705.411 740.672 705.411 740.849C705.411 741.026 705.426 741.203 705.4 741.38C705.385 741.563 705.348 741.74 705.307 741.922C705.281 742.094 705.255 742.266 705.197 742.438C705.145 742.604 705.077 742.766 705.015 742.932C704.947 743.115 704.864 743.287 704.77 743.458C704.744 743.516 704.734 743.578 704.692 743.636L667.744 807.641L738.426 930.078L921.588 612.833H632.4L704.692 738.063C704.734 738.12 704.744 738.177 704.77 738.235Z" fill="#9B55FF"/>
<path d="M474.932 874.432L510.281 935.651H574.531L507.051 818.787L474.932 874.432Z" fill="white"/>
<path d="M500.615 807.635L465.281 746.422H401.016L468.495 863.286L500.615 807.635Z" fill="white"/>
<path d="M850.906 1002.45L883.025 946.797H818.77L786.65 1002.45H850.906Z" fill="#57EB9F"/>
<path d="M482.948 704.662L539.187 607.261L503.838 546.042H356.026L246.771 735.276H465.281L482.948 704.672C482.948 704.672 482.948 704.667 482.948 704.662Z" fill="#57EB9F"/>
<path d="M821.984 1074.81L857.333 1136.03H921.599L854.12 1019.16L821.984 1074.81Z" fill="#FF3A4D"/>
<path d="M786.65 1136.03H844.468L815.562 1085.95" fill="#4D54FF"/>
<path d="M979.469 935.651H1037.28L1008.38 885.578" fill="#FF4DD8"/>
<path d="M863.771 1013.59L934.468 1136.03H998.718L928.026 1013.59H863.771Z" fill="white"/>
<path d="M937.682 1008.02L1008.37 1130.46L1079.07 1008.02L1043.72 946.797H973.025" fill="#FF4DD8"/>
<path d="M786.65 1013.59L815.562 1063.66L844.468 1013.59" fill="#FF3A4D"/>
<path d="M545.615 618.406L492.599 710.234C492.599 710.24 492.589 710.245 492.589 710.25L474.922 740.849L510.266 802.068H651.651" fill="#FF4DD8"/>
<path d="M1307.23 1002.45L1201.19 818.787L1169.05 874.432L1242.97 1002.45H1307.23Z" fill="#FF4DD8"/>
<path d="M1133.71 813.214L1162.62 863.287L1191.53 813.214" fill="#FF4DD8"/>
<path d="M1239.74 1013.59C1239.68 1013.59 1239.62 1013.57 1239.57 1013.57C1239.36 1013.56 1239.17 1013.54 1238.97 1013.51C1238.8 1013.49 1238.62 1013.46 1238.47 1013.42C1238.29 1013.39 1238.12 1013.32 1237.95 1013.27C1237.77 1013.21 1237.61 1013.15 1237.44 1013.07C1237.28 1013.01 1237.13 1012.91 1236.97 1012.82C1236.83 1012.73 1236.67 1012.65 1236.52 1012.54C1236.37 1012.44 1236.24 1012.32 1236.1 1012.2C1235.96 1012.08 1235.83 1011.96 1235.71 1011.84C1235.59 1011.71 1235.48 1011.57 1235.37 1011.43C1235.25 1011.28 1235.13 1011.12 1235.04 1010.96C1235 1010.9 1234.96 1010.86 1234.92 1010.8L1162.62 885.578L1130.49 941.229L1239.74 1130.46L1307.23 1013.59" fill="#4D54FF"/>
<mask id="mask3_174_2" style="mask-type:luminance" maskUnits="userSpaceOnUse" x="1209" y="813" width="118" height="191">
<path d="M1209.67 813H1326.53V1003.67H1209.67V813Z" fill="white"/>
</mask>
<g mask="url(#mask3_174_2)">
<path d="M1384.35 1002.45L1275.09 813.213H1210.84L1320.09 1002.45H1384.35Z" fill="#FFA400"/>
</g>
<path d="M584.187 930.078L651.651 813.208H516.708" fill="#FF4DD8"/>
<mask id="mask4_174_2" style="mask-type:luminance" maskUnits="userSpaceOnUse" x="1287" y="813" width="40" height="191">
<path d="M1287 813H1326.53V1003.67H1287V813Z" fill="white"/>
</mask>
<g mask="url(#mask4_174_2)">
<path d="M1397.21 1002.45H1461.47L1352.23 813.213H1287.96L1397.21 1002.45Z" fill="#F8DF05"/>
</g>
<path d="M748.078 946.797L777 996.87L805.906 946.797" fill="#00D1FF"/>
<path d="M998.718 880.005H857.333L825.213 935.651H966.588L998.718 880.005Z" fill="#57EB9F"/>
<path d="M863.771 1002.45H928.026L960.161 946.797H895.906L863.771 1002.45Z" fill="#57EB9F"/>
<path d="M661.307 796.495L693.438 740.849L619.531 612.833H555.266L661.307 796.495Z" fill="#FF4DD8"/>
<path d="M661.307 818.787L590.614 941.229L661.307 1063.66L732 941.229L661.307 818.787Z" fill="#4D54FF"/>
<path d="M1197.97 802.068L1307.23 612.833H1242.96L1133.71 802.068H1197.97Z" fill="#57EB9F"/>
<path d="M771.786 1143.55C771.745 1143.43 771.708 1143.31 771.667 1143.19C771.641 1143.09 771.615 1142.99 771.589 1142.89C771.562 1142.77 771.531 1142.65 771.521 1142.52C771.495 1142.39 771.469 1142.26 771.453 1142.14C771.453 1142.02 771.438 1141.91 771.438 1141.79C771.438 1141.72 771.427 1141.67 771.427 1141.6C771.427 1141.54 771.438 1141.48 771.438 1141.42C771.438 1141.3 771.453 1141.19 771.453 1141.07C771.469 1140.94 771.495 1140.82 771.521 1140.69C771.531 1140.56 771.562 1140.44 771.589 1140.31C771.615 1140.21 771.641 1140.11 771.667 1140.02C771.708 1139.9 771.745 1139.77 771.802 1139.65C771.839 1139.53 771.88 1139.41 771.932 1139.3C771.984 1139.19 772.042 1139.09 772.094 1138.99C772.12 1138.93 772.135 1138.87 772.172 1138.82L809.12 1074.81L738.427 952.37L667.734 1074.81L818.771 1336.41H883.026L772.172 1144.39C772.135 1144.33 772.12 1144.27 772.094 1144.21C772.042 1144.11 771.984 1144.02 771.932 1143.92C771.88 1143.8 771.839 1143.68 771.786 1143.55Z" fill="#4D54FF"/>
<mask id="mask5_174_2" style="mask-type:luminance" maskUnits="userSpaceOnUse" x="1120" y="1341" width="207" height="406">
<path d="M1120.33 1341H1326.53V1746.76H1120.33V1341Z" fill="white"/>
</mask>
<g mask="url(#mask5_174_2)">
<path d="M1130.49 1341.98L1128.88 1344.77C1128.85 1344.82 1128.81 1344.86 1128.79 1344.92C1128.72 1345.02 1128.65 1345.11 1128.59 1345.21C1128.52 1345.31 1128.43 1345.41 1128.35 1345.52C1128.26 1345.61 1128.19 1345.71 1128.1 1345.8C1128.03 1345.87 1127.96 1345.95 1127.88 1346.02C1127.79 1346.11 1127.69 1346.19 1127.59 1346.28C1127.49 1346.35 1127.4 1346.43 1127.29 1346.51C1127.2 1346.57 1127.09 1346.64 1127 1346.7C1126.95 1346.73 1126.91 1346.78 1126.85 1346.81C1126.79 1346.84 1126.73 1346.85 1126.68 1346.89C1126.57 1346.94 1126.48 1346.99 1126.37 1347.04C1126.25 1347.09 1126.13 1347.14 1126 1347.19C1125.88 1347.23 1125.77 1347.27 1125.65 1347.31C1125.55 1347.34 1125.45 1347.36 1125.36 1347.39C1125.23 1347.42 1125.09 1347.44 1124.96 1347.46C1124.84 1347.48 1124.72 1347.51 1124.59 1347.52C1124.48 1347.53 1124.37 1347.53 1124.25 1347.53C1124.19 1347.54 1124.13 1347.56 1124.05 1347.56H1120.84L1273.49 1611.94L2295.4 3381.95C2296.93 3384.61 2300.35 3385.52 2303.02 3383.98C2305.68 3382.44 2306.59 3379.04 2305.05 3376.37L1283.13 1606.36" fill="#020202"/>
</g>
<mask id="mask6_174_2" style="mask-type:luminance" maskUnits="userSpaceOnUse" x="969" y="1471" width="358" height="276">
<path d="M969.666 1471.67H1326.53V1746.76H969.666V1471.67Z" fill="white"/>
</mask>
<g mask="url(#mask6_174_2)">
<path d="M974.718 1472.95C974.801 1473.12 974.879 1473.3 974.947 1473.48C975.015 1473.65 975.093 1473.81 975.134 1473.98C975.187 1474.15 975.228 1474.32 975.254 1474.49C975.291 1474.67 975.317 1474.85 975.348 1475.04C975.358 1475.21 975.358 1475.39 975.358 1475.57C975.358 1475.75 975.358 1475.92 975.348 1476.09C975.317 1476.28 975.291 1476.46 975.254 1476.64C975.213 1476.81 975.187 1476.98 975.134 1477.15C975.093 1477.32 975.015 1477.48 974.947 1477.66C974.879 1477.83 974.801 1478.01 974.718 1478.18C974.681 1478.23 974.666 1478.29 974.64 1478.35L969.812 1486.71L2141.14 3515.53C2142.69 3518.2 2146.09 3519.1 2148.76 3517.57C2151.43 3516.03 2152.33 3512.63 2150.8 3509.96L974.64 1472.79C974.666 1472.84 974.692 1472.9 974.718 1472.95Z" fill="#020202"/>
</g>
<path d="M805.906 1336.41H818.771L667.734 1074.81L666.135 1077.59C666.104 1077.65 666.068 1077.68 666.042 1077.73C665.974 1077.84 665.906 1077.94 665.828 1078.04C665.76 1078.15 665.682 1078.24 665.599 1078.34C665.521 1078.44 665.438 1078.53 665.359 1078.62C665.281 1078.7 665.198 1078.78 665.12 1078.85C665.026 1078.94 664.932 1079.02 664.828 1079.1C664.734 1079.18 664.641 1079.26 664.547 1079.33C664.438 1079.4 664.349 1079.47 664.24 1079.53C664.187 1079.56 664.146 1079.6 664.094 1079.64C664.042 1079.67 663.984 1079.68 663.922 1079.71C663.828 1079.77 663.719 1079.82 663.615 1079.86C663.495 1079.92 663.375 1079.97 663.255 1080.02C663.135 1080.06 663.016 1080.1 662.896 1080.14C662.802 1080.17 662.693 1080.19 662.599 1080.22C662.469 1080.25 662.349 1080.27 662.214 1080.29C662.094 1080.31 661.958 1080.33 661.839 1080.34C661.719 1080.35 661.615 1080.36 661.495 1080.36C661.427 1080.36 661.375 1080.38 661.307 1080.38H658.094" fill="#020202"/>
<mask id="mask7_174_2" style="mask-type:luminance" maskUnits="userSpaceOnUse" x="931" y="1542" width="396" height="205">
<path d="M931 1542.33H1326.53V1746.76H931V1542.33Z" fill="white"/>
</mask>
<g mask="url(#mask7_174_2)">
<path d="M2110.2 3584.36C2112.87 3582.83 2113.77 3579.41 2112.24 3576.74L937.683 1542.36L931.24 1553.51L2102.59 3582.32C2104.12 3584.98 2107.53 3585.9 2110.2 3584.36Z" fill="#020202"/>
</g>
<path d="M741.651 935.651H748.078L931.239 618.406L928.026 612.833H921.599L738.427 930.078" fill="#020202"/>
<path d="M931.24 601.688C931.307 601.688 931.375 601.703 931.427 601.708C931.625 601.714 931.828 601.74 932.026 601.766C932.198 601.792 932.375 601.813 932.531 601.854C932.708 601.896 932.865 601.953 933.042 602.011C933.214 602.068 933.385 602.13 933.562 602.203C933.719 602.276 933.865 602.365 934.026 602.453C934.172 602.542 934.333 602.63 934.479 602.735C934.625 602.839 934.76 602.958 934.896 603.078C935.026 603.198 935.161 603.313 935.281 603.443C935.401 603.568 935.505 603.708 935.615 603.844C935.745 604 935.854 604.156 935.958 604.323C936 604.375 936.042 604.422 936.068 604.474L937.682 607.261L1013.2 476.464C1013.23 476.412 1013.24 476.349 1013.27 476.297C1013.38 476.115 1013.44 475.932 1013.52 475.745C1013.59 475.589 1013.65 475.432 1013.69 475.271C1013.74 475.094 1013.79 474.917 1013.81 474.74C1013.85 474.563 1013.9 474.391 1013.91 474.208C1013.92 474.031 1013.92 473.854 1013.92 473.677C1013.92 473.5 1013.92 473.323 1013.91 473.141C1013.9 472.964 1013.85 472.787 1013.81 472.61C1013.79 472.432 1013.74 472.255 1013.69 472.083C1013.65 471.917 1013.59 471.761 1013.52 471.599C1013.44 471.417 1013.38 471.24 1013.28 471.063C1013.24 471.005 1013.23 470.943 1013.2 470.891L902.333 278.865H889.469L1001.93 473.677L928.026 601.688" fill="#020202"/>
<path d="M661.307 796.495L667.734 807.641L704.693 743.636C704.734 743.578 704.745 743.516 704.771 743.458C704.865 743.287 704.948 743.115 705.016 742.932C705.078 742.766 705.146 742.604 705.198 742.438C705.255 742.266 705.281 742.094 705.307 741.922C705.349 741.74 705.385 741.563 705.401 741.38C705.427 741.203 705.411 741.026 705.411 740.849C705.411 740.672 705.427 740.495 705.401 740.318C705.385 740.136 705.349 739.953 705.307 739.771C705.281 739.604 705.255 739.432 705.198 739.261C705.146 739.089 705.078 738.927 705.016 738.766C704.948 738.589 704.865 738.406 704.771 738.235C704.745 738.177 704.734 738.12 704.693 738.063L632.401 612.833H619.531L693.438 740.849" fill="#020202"/>
<path d="M584.188 551.615L613.094 601.688H625.958L590.615 540.469L589 543.255" fill="#020202"/>
<path d="M580.958 935.651H584.187C584.239 935.651 584.307 935.672 584.359 935.672C584.562 935.677 584.76 935.703 584.958 935.735C585.135 935.755 585.291 935.776 585.468 935.818C585.64 935.86 585.812 935.917 585.984 935.974C586.161 936.037 586.317 936.089 586.494 936.162C586.651 936.24 586.802 936.328 586.958 936.422C587.104 936.511 587.265 936.594 587.411 936.693C587.562 936.802 587.692 936.922 587.828 937.047C587.958 937.162 588.093 937.276 588.213 937.406C588.349 937.531 588.437 937.672 588.547 937.807C588.666 937.964 588.802 938.12 588.896 938.292C588.932 938.344 588.974 938.386 589 938.438L590.614 941.229L661.307 818.787L658.093 813.208H651.651L584.187 930.078L516.708 813.208H510.265L507.052 818.787L574.531 935.651" fill="#020202"/>
<mask id="mask8_174_2" style="mask-type:luminance" maskUnits="userSpaceOnUse" x="1207" y="601" width="120" height="408">
<path d="M1207 601H1326.53V1009H1207V601Z" fill="white"/>
</mask>
<g mask="url(#mask8_174_2)">
<path d="M1471.12 618.406L1580.38 807.635L1471.12 996.875L1361.87 807.635L1471.12 618.406ZM1461.47 1002.44H1471.12C1471.19 1002.44 1471.24 1002.46 1471.31 1002.46C1471.51 1002.47 1471.71 1002.49 1471.91 1002.53C1472.08 1002.55 1472.24 1002.57 1472.41 1002.61C1472.59 1002.65 1472.75 1002.71 1472.92 1002.77C1473.09 1002.82 1473.27 1002.88 1473.44 1002.96C1473.59 1003.03 1473.74 1003.12 1473.9 1003.2C1474.05 1003.3 1474.21 1003.39 1474.36 1003.49C1474.5 1003.59 1474.63 1003.71 1474.76 1003.82C1474.91 1003.95 1475.04 1004.07 1475.17 1004.2C1475.28 1004.32 1475.38 1004.45 1475.48 1004.58C1475.62 1004.74 1475.74 1004.91 1475.85 1005.09C1475.88 1005.14 1475.92 1005.18 1475.95 1005.23L1477.56 1008.02L1591.64 810.427C1591.67 810.375 1591.68 810.312 1591.71 810.26C1591.81 810.078 1591.9 809.896 1591.96 809.708C1592.03 809.552 1592.09 809.396 1592.14 809.234C1592.19 809.057 1592.23 808.88 1592.26 808.698C1592.29 808.526 1592.33 808.349 1592.35 808.177C1592.36 807.995 1592.36 807.818 1592.36 807.635C1592.36 807.464 1592.36 807.286 1592.35 807.104C1592.33 806.927 1592.29 806.755 1592.26 806.578C1592.23 806.401 1592.19 806.219 1592.14 806.042C1592.09 805.885 1592.03 805.729 1591.96 805.573C1591.9 805.385 1591.81 805.198 1591.71 805.016C1591.68 804.958 1591.67 804.906 1591.64 804.854L1475.95 604.474C1475.92 604.422 1475.88 604.385 1475.85 604.339C1475.79 604.234 1475.72 604.13 1475.65 604.026C1475.57 603.922 1475.5 603.828 1475.41 603.729C1475.33 603.63 1475.26 603.536 1475.17 603.448C1475.09 603.37 1475.02 603.292 1474.93 603.214C1474.85 603.13 1474.75 603.047 1474.65 602.969C1474.56 602.891 1474.47 602.807 1474.36 602.74C1474.27 602.667 1474.16 602.604 1474.05 602.536C1474 602.51 1473.96 602.464 1473.91 602.432C1473.85 602.406 1473.8 602.391 1473.75 602.365C1473.64 602.307 1473.55 602.25 1473.44 602.203C1473.32 602.146 1473.19 602.104 1473.07 602.057C1472.95 602.01 1472.84 601.969 1472.72 601.932C1472.62 601.906 1472.52 601.875 1472.41 601.854C1472.28 601.823 1472.16 601.802 1472.04 601.781C1471.91 601.76 1471.79 601.74 1471.65 601.729C1471.55 601.714 1471.43 601.708 1471.31 601.708C1471.26 601.703 1471.19 601.688 1471.12 601.688H1320.09L1321.69 604.474C1321.74 604.531 1321.75 604.589 1321.77 604.641C1321.87 604.818 1321.95 605.005 1322.03 605.193C1322.09 605.349 1322.15 605.51 1322.2 605.667C1322.26 605.844 1322.28 606.021 1322.32 606.198C1322.36 606.375 1322.39 606.547 1322.41 606.729C1322.43 606.906 1322.43 607.083 1322.43 607.26C1322.43 607.437 1322.43 607.615 1322.41 607.797C1322.39 607.974 1322.36 608.146 1322.32 608.323C1322.28 608.505 1322.26 608.682 1322.2 608.854C1322.15 609.016 1322.09 609.177 1322.03 609.333C1321.95 609.516 1321.87 609.703 1321.77 609.88C1321.75 609.938 1321.74 609.99 1321.69 610.047L1320.09 612.833H1461.47L1352.21 802.068H1210.84L1207.62 807.635L1210.84 813.214H1275.09L1384.35 1002.44H1397.21L1287.96 813.214H1352.21" fill="#020202"/>
</g>
<path d="M1119.16 805.016C1119.1 805.125 1119.05 805.229 1119 805.339C1118.95 805.453 1118.91 805.568 1118.86 805.682C1118.81 805.802 1118.77 805.927 1118.73 806.047C1118.71 806.151 1118.68 806.255 1118.65 806.365C1118.62 806.479 1118.6 806.594 1118.59 806.719C1118.56 806.849 1118.53 806.979 1118.52 807.109C1118.52 807.224 1118.5 807.344 1118.5 807.464C1118.5 807.526 1118.49 807.583 1118.49 807.641C1118.49 807.698 1118.5 807.755 1118.5 807.813C1118.5 807.932 1118.52 808.052 1118.52 808.172C1118.53 808.302 1118.56 808.432 1118.59 808.563C1118.6 808.682 1118.62 808.797 1118.65 808.917C1118.68 809.021 1118.71 809.125 1118.73 809.234C1118.77 809.354 1118.81 809.474 1118.86 809.594C1118.91 809.714 1118.95 809.828 1119 809.943C1119.05 810.052 1119.1 810.156 1119.16 810.26C1119.19 810.313 1119.2 810.37 1119.24 810.427L1156.19 874.432L1162.62 863.286L1133.71 813.214H1191.53L1197.97 802.068H1133.71L1242.97 612.833H1307.23L1310.44 607.26L1307.23 601.688H1239.74C1239.68 601.688 1239.62 601.703 1239.56 601.708C1239.36 601.714 1239.17 601.74 1238.97 601.766C1238.8 601.792 1238.62 601.813 1238.47 601.854C1238.29 601.896 1238.12 601.953 1237.96 602.01C1237.79 602.068 1237.61 602.13 1237.44 602.203C1237.28 602.276 1237.13 602.365 1236.97 602.453C1236.83 602.542 1236.67 602.63 1236.52 602.734C1236.37 602.839 1236.24 602.958 1236.1 603.078C1235.97 603.198 1235.83 603.313 1235.71 603.443C1235.59 603.568 1235.48 603.708 1235.37 603.844C1235.25 604 1235.13 604.151 1235.03 604.323C1235 604.38 1234.96 604.422 1234.92 604.474L1119.24 804.854C1119.2 804.906 1119.19 804.964 1119.16 805.016Z" fill="#020202"/>
<path d="M1235.04 1010.96C1235.14 1011.13 1235.26 1011.28 1235.38 1011.43C1235.48 1011.57 1235.59 1011.71 1235.71 1011.83C1235.83 1011.96 1235.97 1012.08 1236.1 1012.2C1236.24 1012.32 1236.38 1012.44 1236.52 1012.54C1236.67 1012.65 1236.83 1012.73 1236.97 1012.82C1237.14 1012.91 1237.28 1013 1237.44 1013.07C1237.61 1013.15 1237.79 1013.21 1237.95 1013.27C1238.12 1013.32 1238.29 1013.39 1238.47 1013.42C1238.62 1013.46 1238.8 1013.48 1238.97 1013.51C1239.17 1013.54 1239.36 1013.57 1239.57 1013.57C1239.62 1013.57 1239.68 1013.59 1239.74 1013.59H1307.23L1310.44 1008.02L1307.23 1002.44H1242.96L1169.05 874.433L1162.62 885.578L1234.92 1010.8C1234.96 1010.86 1235 1010.9 1235.04 1010.96Z" fill="#020202"/>
<path d="M1050.15 935.651L1013.2 871.646C1013.17 871.589 1013.12 871.547 1013.09 871.495C1013.03 871.396 1012.96 871.297 1012.9 871.198C1012.83 871.099 1012.74 871.005 1012.67 870.901C1012.59 870.807 1012.5 870.708 1012.41 870.62C1012.33 870.536 1012.27 870.458 1012.19 870.385C1012.09 870.302 1012 870.224 1011.91 870.146C1011.8 870.063 1011.71 869.979 1011.6 869.906C1011.5 869.839 1011.4 869.771 1011.29 869.708C1011.25 869.682 1011.21 869.635 1011.16 869.604C1011.1 869.573 1011.05 869.562 1010.98 869.531C1010.9 869.479 1010.79 869.422 1010.68 869.375C1010.56 869.318 1010.44 869.276 1010.31 869.229C1010.2 869.182 1010.08 869.141 1009.96 869.104C1009.86 869.073 1009.76 869.047 1009.67 869.021C1009.53 868.99 1009.4 868.969 1009.28 868.953C1009.16 868.927 1009.03 868.911 1008.91 868.901C1008.79 868.885 1008.68 868.88 1008.56 868.875C1008.49 868.875 1008.44 868.859 1008.37 868.859H854.119C854.052 868.859 854 868.875 853.932 868.875C853.734 868.885 853.547 868.911 853.349 868.938C853.172 868.958 853 868.984 852.838 869.021C852.666 869.068 852.494 869.125 852.333 869.182C852.161 869.24 851.974 869.297 851.812 869.375C851.651 869.448 851.505 869.536 851.359 869.62C851.198 869.708 851.041 869.797 850.896 869.906C850.744 870.01 850.614 870.125 850.479 870.24C850.349 870.359 850.198 870.484 850.078 870.62C849.958 870.74 849.864 870.87 849.76 871.005C849.64 871.161 849.505 871.323 849.401 871.505C849.375 871.552 849.317 871.594 849.291 871.646L812.333 935.651H825.213L857.333 880.005H998.718L966.588 935.651H979.468L1008.37 885.578L1037.28 935.651" fill="#020202"/>
<path d="M786.651 1002.45L818.771 946.797H805.906L777 996.87L780.214 1002.45L783.427 1008.02L786.651 1013.59H844.469L850.906 1002.45" fill="#020202"/>
<path d="M816.14 1085.95L821.985 1075.81L856.467 1135.53H844.757L816.14 1085.95Z" fill="#040607" stroke="black"/>
<path d="M195.333 1347.56L343.145 1603.58H278.895L131.077 1347.56H195.333ZM574.531 1603.58H510.281L362.452 1347.56H426.708L574.531 1603.58ZM272.468 1347.56L420.281 1603.58H356.025L208.213 1347.56H272.468ZM433.145 1603.58L285.333 1347.56H349.588L497.4 1603.58H433.145ZM584.426 1614.71C584.452 1614.71 584.468 1614.71 584.494 1614.71C584.562 1614.7 584.64 1614.69 584.708 1614.69C584.838 1614.67 584.973 1614.65 585.093 1614.64C585.213 1614.61 585.317 1614.59 585.437 1614.57C585.479 1614.56 585.531 1614.55 585.588 1614.54C585.65 1614.53 585.708 1614.5 585.76 1614.48C585.895 1614.44 586.015 1614.4 586.135 1614.35C586.255 1614.31 586.359 1614.27 586.468 1614.22C586.505 1614.2 586.562 1614.19 586.614 1614.17C586.666 1614.14 586.718 1614.09 586.786 1614.06C586.838 1614.03 586.906 1614.02 586.973 1613.98C587.025 1613.95 587.077 1613.9 587.135 1613.86C587.213 1613.81 587.307 1613.75 587.4 1613.69C587.437 1613.66 587.479 1613.64 587.52 1613.61C587.588 1613.56 587.64 1613.51 587.692 1613.45C587.812 1613.36 587.906 1613.28 588.015 1613.19C588.077 1613.12 588.135 1613.06 588.197 1612.99C588.239 1612.95 588.281 1612.92 588.317 1612.88C588.374 1612.82 588.411 1612.76 588.468 1612.7C588.546 1612.59 588.64 1612.48 588.718 1612.37C588.76 1612.3 588.812 1612.23 588.864 1612.16C588.895 1612.1 588.932 1612.05 588.973 1611.99C588.984 1611.97 588.999 1611.95 588.999 1611.94L661.307 1486.71L656.479 1478.35C656.453 1478.3 656.437 1478.24 656.411 1478.19C656.348 1478.08 656.291 1477.97 656.239 1477.86C656.187 1477.75 656.145 1477.64 656.104 1477.52C656.051 1477.4 656.015 1477.29 655.984 1477.17C655.947 1477.06 655.921 1476.95 655.895 1476.84C655.864 1476.72 655.838 1476.6 655.828 1476.47C655.812 1476.35 655.786 1476.23 655.77 1476.11C655.76 1475.98 655.76 1475.86 655.744 1475.74C655.744 1475.68 655.734 1475.63 655.734 1475.57C655.734 1475.51 655.744 1475.44 655.744 1475.38C655.76 1475.27 655.76 1475.16 655.77 1475.05C655.77 1474.92 655.801 1474.78 655.828 1474.65C655.854 1474.52 655.864 1474.4 655.906 1474.27C655.921 1474.18 655.947 1474.08 655.973 1473.98C656.015 1473.86 656.051 1473.74 656.104 1473.61C656.145 1473.49 656.197 1473.37 656.255 1473.26C656.291 1473.15 656.348 1473.05 656.4 1472.96C656.426 1472.9 656.453 1472.84 656.479 1472.78L584.187 1598.01L436.374 1341.98L584.187 1085.95L580.973 1080.38H574.531L426.708 1336.41H131.077L278.895 1080.38H507.051C506.984 1080.38 506.932 1080.36 506.864 1080.36C506.666 1080.36 506.479 1080.33 506.281 1080.31C506.104 1080.28 505.932 1080.26 505.77 1080.22C505.598 1080.18 505.426 1080.12 505.265 1080.06C505.093 1080.01 504.921 1079.95 504.744 1079.87C504.588 1079.8 504.437 1079.7 504.281 1079.62C504.135 1079.53 503.973 1079.44 503.827 1079.34C503.682 1079.23 503.546 1079.11 503.411 1078.99C503.281 1078.88 503.135 1078.76 503.015 1078.63C502.895 1078.51 502.786 1078.36 502.682 1078.23C502.562 1078.07 502.437 1077.92 502.333 1077.75C502.307 1077.7 502.255 1077.65 502.229 1077.59L497.4 1069.24H275.682C275.614 1069.24 275.562 1069.25 275.494 1069.26C275.291 1069.26 275.104 1069.29 274.906 1069.31C274.734 1069.34 274.562 1069.36 274.385 1069.4C274.213 1069.44 274.051 1069.5 273.895 1069.56C273.718 1069.62 273.531 1069.68 273.374 1069.75C273.213 1069.82 273.067 1069.92 272.921 1070C272.76 1070.09 272.598 1070.18 272.452 1070.29C272.307 1070.39 272.171 1070.51 272.041 1070.63C271.895 1070.74 271.76 1070.86 271.64 1070.99C271.52 1071.12 271.411 1071.26 271.307 1071.39C271.187 1071.54 271.067 1071.7 270.958 1071.87C270.932 1071.92 270.88 1071.97 270.854 1072.03L116.614 1339.2C116.572 1339.24 116.562 1339.31 116.531 1339.35C116.479 1339.46 116.411 1339.57 116.359 1339.68C116.317 1339.8 116.281 1339.91 116.229 1340.03C116.187 1340.15 116.145 1340.27 116.104 1340.39C116.077 1340.49 116.041 1340.6 116.025 1340.7C115.984 1340.82 115.973 1340.94 115.947 1341.06C115.932 1341.19 115.906 1341.32 115.895 1341.45C115.88 1341.57 115.88 1341.69 115.88 1341.81C115.88 1341.87 115.854 1341.92 115.854 1341.98C115.854 1342.04 115.88 1342.09 115.88 1342.15C115.88 1342.27 115.88 1342.4 115.895 1342.52C115.906 1342.65 115.932 1342.77 115.947 1342.91C115.973 1343.03 115.984 1343.14 116.025 1343.26C116.041 1343.36 116.077 1343.47 116.104 1343.58C116.145 1343.7 116.187 1343.81 116.229 1343.93C116.281 1344.05 116.317 1344.17 116.359 1344.28C116.411 1344.4 116.479 1344.5 116.531 1344.6C116.562 1344.66 116.572 1344.71 116.614 1344.77L270.854 1611.94C270.88 1611.99 270.932 1612.04 270.958 1612.09C271.067 1612.26 271.187 1612.42 271.307 1612.57C271.411 1612.71 271.52 1612.84 271.64 1612.97C271.76 1613.1 271.906 1613.22 272.041 1613.34C272.171 1613.45 272.307 1613.57 272.452 1613.68C272.598 1613.78 272.76 1613.88 272.921 1613.97C273.067 1614.05 273.213 1614.14 273.359 1614.21C273.531 1614.29 273.718 1614.35 273.895 1614.41C274.051 1614.46 274.213 1614.52 274.385 1614.56C274.562 1614.6 274.744 1614.62 274.921 1614.65C275.104 1614.67 275.291 1614.7 275.494 1614.7C275.546 1614.71 275.614 1614.72 275.682 1614.72H584.187C584.229 1614.72 584.265 1614.71 584.317 1614.71C584.359 1614.71 584.385 1614.72 584.426 1614.71Z" fill="#040607"/>
<path d="M497.4 935.651H510.265L474.932 874.433L468.494 885.578L497.4 935.651Z" fill="#020202"/>
<path d="M465.281 479.25L497.401 534.896H352.802C352.745 534.896 352.682 534.911 352.625 534.917C352.411 534.922 352.229 534.948 352.026 534.974C351.854 535 351.693 535.021 351.521 535.062C351.349 535.104 351.172 535.161 351.016 535.219C350.839 535.276 350.667 535.333 350.495 535.411C350.333 535.484 350.188 535.573 350.042 535.661C349.88 535.75 349.719 535.839 349.573 535.943C349.427 536.047 349.292 536.167 349.161 536.281C349.026 536.401 348.896 536.521 348.76 536.656C348.641 536.776 348.547 536.911 348.438 537.042C348.318 537.198 348.188 537.365 348.078 537.542C348.052 537.589 348.016 537.63 347.974 537.682L232.292 738.062C232.266 738.12 232.255 738.172 232.214 738.234C232.161 738.328 232.104 738.427 232.068 738.531C232.016 738.656 231.958 738.781 231.922 738.906C231.865 739.026 231.828 739.141 231.786 739.26C231.76 739.354 231.734 739.453 231.708 739.552C231.682 739.682 231.651 739.807 231.641 739.943C231.615 740.068 231.599 740.188 231.589 740.312C231.573 740.427 231.573 740.542 231.573 740.656C231.562 740.719 231.547 740.781 231.547 740.849C231.547 740.911 231.562 740.974 231.573 741.036C231.573 741.151 231.573 741.266 231.589 741.38C231.599 741.505 231.615 741.625 231.641 741.75C231.651 741.885 231.682 742.016 231.708 742.141C231.734 742.24 231.76 742.333 231.786 742.438C231.828 742.552 231.865 742.672 231.922 742.792C231.958 742.917 232.016 743.042 232.068 743.161C232.104 743.266 232.161 743.365 232.214 743.458C232.24 743.516 232.255 743.578 232.292 743.635L343.146 935.651H278.896L15.401 479.25H465.281ZM343.146 11.7083L79.651 468.104H15.3854L278.896 11.7083H343.146ZM465.281 468.104H401.016L664.521 11.7083H728.771L465.281 468.104ZM420.281 11.7083L156.771 468.104H92.5208L356.026 11.7083H420.281ZM323.896 468.104L587.401 11.7083H651.651L388.146 468.104H323.896ZM497.401 11.7083L233.906 468.104H169.641L433.146 11.7083H497.401ZM246.771 468.104L510.281 11.7083H574.531L311.026 468.104H246.771ZM539.188 607.26L482.948 704.661C482.948 704.667 482.948 704.672 482.948 704.672L465.281 735.276H246.771L356.026 546.042H503.839L539.188 607.26ZM420.281 935.651H356.026L246.771 746.422H311.026L420.281 935.651ZM425.026 943.844C424.974 943.74 424.922 943.641 424.88 943.536C424.812 943.417 424.771 943.297 424.719 943.172C424.682 943.052 424.641 942.932 424.599 942.812C424.573 942.719 424.547 942.62 424.521 942.521C424.495 942.391 424.469 942.26 424.453 942.13C424.427 942.005 424.411 941.88 424.401 941.755C424.385 941.641 424.385 941.531 424.375 941.417C424.375 941.354 424.359 941.292 424.359 941.229C424.359 941.161 424.375 941.099 424.375 941.031C424.385 940.917 424.385 940.807 424.401 940.693C424.411 940.568 424.427 940.448 424.453 940.318C424.469 940.193 424.495 940.062 424.521 939.932C424.547 939.828 424.573 939.734 424.599 939.635C424.641 939.516 424.682 939.401 424.719 939.286C424.771 939.156 424.812 939.031 424.88 938.911C424.922 938.807 424.974 938.708 425.026 938.604C425.052 938.552 425.078 938.495 425.104 938.438L426.719 935.651L429.932 930.083L323.896 746.422H388.146L462.052 874.432L468.495 863.286L401.016 746.422H465.281L500.615 807.641L502.229 804.854C502.255 804.797 502.307 804.755 502.333 804.703C502.438 804.531 502.562 804.375 502.693 804.219C502.802 804.083 502.896 803.948 503.016 803.823C503.135 803.693 503.281 803.573 503.411 803.453C503.547 803.339 503.682 803.214 503.828 803.115C503.974 803.01 504.135 802.917 504.292 802.823C504.438 802.745 504.589 802.651 504.745 802.583C504.922 802.505 505.094 802.448 505.266 802.385C505.438 802.328 505.599 802.271 505.76 802.234C505.932 802.193 506.104 802.172 506.281 802.141C506.479 802.12 506.667 802.094 506.865 802.089C506.932 802.083 506.984 802.068 507.052 802.068H510.266L474.922 740.849L492.589 710.25C492.589 710.245 492.599 710.24 492.599 710.24L545.615 618.406L540.786 610.047C540.786 610.042 540.786 610.036 540.786 610.036C540.76 609.979 540.745 609.927 540.719 609.875C540.651 609.776 540.615 609.677 540.562 609.573C540.505 609.458 540.469 609.333 540.411 609.214C540.375 609.089 540.318 608.974 540.292 608.849C540.255 608.75 540.24 608.651 540.214 608.552C540.188 608.427 540.161 608.302 540.135 608.172C540.12 608.047 540.094 607.922 540.078 607.792C540.078 607.677 540.068 607.568 540.068 607.448C540.068 607.385 540.052 607.328 540.052 607.26C540.052 607.198 540.068 607.141 540.068 607.073C540.068 606.958 540.078 606.849 540.078 606.734C540.094 606.604 540.12 606.479 540.135 606.354C540.161 606.224 540.188 606.094 540.214 605.969C540.24 605.87 540.255 605.776 540.292 605.677C540.318 605.552 540.375 605.438 540.411 605.318C540.469 605.193 540.505 605.068 540.562 604.948C540.615 604.849 540.667 604.75 540.719 604.646C540.745 604.594 540.76 604.531 540.786 604.474L540.802 604.469L545.615 596.12L516.708 546.042H574.531L579.359 537.682L580.974 534.896H510.266L474.922 473.677L738.427 17.2812L767.948 68.3854L772.172 75.7083L810.734 142.505L883.026 267.719H895.906L801.104 103.531C801.104 103.531 801.104 103.531 801.094 103.521L781.828 70.1354L778.042 63.5885L762.531 36.7344L743.255 3.34896C743.229 3.29167 743.188 3.23958 743.161 3.19792C743.094 3.09375 743.026 3 742.958 2.89583C742.88 2.80208 742.802 2.69271 742.719 2.59896C742.641 2.49479 742.562 2.40104 742.469 2.30729C742.401 2.22917 742.318 2.16146 742.255 2.09375C742.161 2 742.068 1.92188 741.974 1.83854C741.865 1.76042 741.76 1.66667 741.651 1.59896C741.562 1.53125 741.469 1.46875 741.375 1.41146C741.318 1.375 741.281 1.33333 741.214 1.30729C741.172 1.26562 741.104 1.25521 741.052 1.22917C740.948 1.17187 740.839 1.11979 740.734 1.06771C740.625 1.01563 740.505 0.973959 740.385 0.921875C740.266 0.880208 740.146 0.838541 740.026 0.802083C739.922 0.770833 739.813 0.744791 739.708 0.71875C739.589 0.692707 739.469 0.666667 739.349 0.651042C739.214 0.625 739.094 0.598959 738.958 0.588542C738.854 0.588542 738.734 0.572917 738.615 0.572917C738.547 0.572917 738.495 0.5625 738.427 0.5625H275.682C275.615 0.5625 275.563 0.572917 275.495 0.572917C275.292 0.588541 275.094 0.614584 274.906 0.640625C274.734 0.651041 274.563 0.682291 274.401 0.71875C274.214 0.760417 274.052 0.828126 273.88 0.880208C273.708 0.932292 273.531 1 273.375 1.06771C273.214 1.14583 273.052 1.23958 272.906 1.31771C272.745 1.41146 272.599 1.49479 272.453 1.59896C272.307 1.70833 272.172 1.82812 272.026 1.94792C271.896 2.06771 271.76 2.1875 271.641 2.30729C271.521 2.4375 271.411 2.57292 271.307 2.70833C271.188 2.86458 271.068 3.02604 270.958 3.1875C270.922 3.23958 270.88 3.29167 270.854 3.34896L0.921875 470.891C0.880208 470.948 0.864584 471.01 0.838542 471.068C0.786459 471.167 0.734374 471.266 0.682292 471.365C0.625 471.484 0.588542 471.599 0.546875 471.719C0.494792 471.844 0.453125 471.969 0.411458 472.094C0.385417 472.188 0.359375 472.292 0.333333 472.391C0.307292 472.516 0.28125 472.635 0.265625 472.76C0.239584 472.891 0.213542 473.016 0.213542 473.146C0.197918 473.26 0.1875 473.38 0.1875 473.495C0.1875 473.557 0.171875 473.615 0.171875 473.677C0.171875 473.74 0.1875 473.797 0.1875 473.859C0.1875 473.974 0.197918 474.089 0.213542 474.208C0.213542 474.339 0.239584 474.464 0.265625 474.594C0.28125 474.719 0.307292 474.844 0.333333 474.964C0.359375 475.063 0.385417 475.161 0.411458 475.26C0.453125 475.385 0.494792 475.51 0.546875 475.63C0.588542 475.75 0.625 475.87 0.682292 475.984C0.734374 476.089 0.786459 476.188 0.838542 476.292C0.864584 476.344 0.880208 476.406 0.921875 476.464L270.854 944.016C270.88 944.073 270.932 944.115 270.958 944.161C271.068 944.333 271.188 944.484 271.307 944.641C271.411 944.781 271.521 944.917 271.641 945.042C271.76 945.177 271.896 945.292 272.026 945.411C272.172 945.526 272.307 945.646 272.453 945.75C272.599 945.859 272.76 945.948 272.906 946.031C273.052 946.12 273.214 946.208 273.375 946.286C273.531 946.359 273.719 946.417 273.896 946.479C274.052 946.536 274.214 946.594 274.385 946.635C274.563 946.677 274.734 946.698 274.922 946.719C275.104 946.75 275.292 946.771 275.495 946.781C275.563 946.786 275.615 946.802 275.682 946.802H426.719L425.104 944.016C425.078 943.958 425.052 943.901 425.026 943.844Z" fill="#020202"/>
<path d="M934.468 1136.03L863.77 1013.59H928.025L998.718 1136.03H1008.37C1008.44 1136.03 1008.49 1136.05 1008.56 1136.05C1008.76 1136.06 1008.95 1136.08 1009.16 1136.11C1009.32 1136.13 1009.49 1136.16 1009.65 1136.19C1009.83 1136.23 1010 1136.29 1010.17 1136.35C1010.35 1136.41 1010.52 1136.47 1010.68 1136.54C1010.84 1136.61 1010.98 1136.71 1011.15 1136.8C1011.31 1136.89 1011.45 1136.97 1011.6 1137.07C1011.74 1137.18 1011.88 1137.3 1012.01 1137.42C1012.16 1137.54 1012.29 1137.65 1012.41 1137.79C1012.53 1137.91 1012.64 1138.05 1012.74 1138.18C1012.86 1138.34 1012.98 1138.49 1013.09 1138.67C1013.12 1138.72 1013.16 1138.76 1013.2 1138.82L1014.81 1141.6L1090.32 1010.8C1090.35 1010.75 1090.37 1010.69 1090.4 1010.65C1090.49 1010.46 1090.57 1010.27 1090.65 1010.08C1090.71 1009.93 1090.77 1009.77 1090.83 1009.61C1090.88 1009.43 1090.91 1009.26 1090.95 1009.08C1090.97 1008.91 1091.01 1008.73 1091.03 1008.55C1091.05 1008.37 1091.05 1008.2 1091.05 1008.02C1091.05 1007.84 1091.05 1007.66 1091.03 1007.48C1091.01 1007.31 1090.97 1007.13 1090.95 1006.95C1090.91 1006.78 1090.88 1006.6 1090.83 1006.42C1090.77 1006.26 1090.71 1006.11 1090.65 1005.95C1090.57 1005.77 1090.49 1005.57 1090.38 1005.39C1090.37 1005.34 1090.35 1005.28 1090.32 1005.23L1056.59 946.797H1043.72L1079.07 1008.02L1008.37 1130.46L937.682 1008.02L973.025 946.797H960.161L928.025 1002.45H863.77L860.562 1008.02L857.333 1013.59L854.119 1019.16L921.598 1136.03" fill="#040607"/>
<mask id="mask9_174_2" style="mask-type:luminance" maskUnits="userSpaceOnUse" x="424" y="267" width="903" height="1480">
<path d="M424.333 267.667H1326.53V1746.76H424.333V267.667Z" fill="white"/>
</mask>
<g mask="url(#mask9_174_2)">
<path d="M670.958 1481.14H812.349L883.026 1603.58H741.651L670.958 1481.14ZM889.469 1347.56L963.375 1475.56L892.682 1598.01L820.385 1472.78C820.359 1472.72 820.307 1472.68 820.281 1472.62C820.172 1472.46 820.052 1472.3 819.932 1472.15C819.828 1472.01 819.719 1471.87 819.599 1471.75C819.479 1471.61 819.333 1471.5 819.198 1471.38C819.068 1471.27 818.932 1471.14 818.786 1471.04C818.641 1470.93 818.479 1470.84 818.318 1470.75C818.172 1470.67 818.026 1470.58 817.865 1470.51C817.693 1470.43 817.521 1470.37 817.333 1470.31C817.172 1470.26 817.016 1470.2 816.854 1470.16C816.682 1470.12 816.495 1470.09 816.318 1470.07C816.135 1470.04 815.948 1470.02 815.745 1470.01C815.682 1470.01 815.625 1469.99 815.562 1469.99H670.958L741.651 1347.56H889.469ZM593.828 1080.38H661.307C661.375 1080.38 661.427 1080.36 661.495 1080.36C661.615 1080.36 661.719 1080.35 661.839 1080.34C661.958 1080.33 662.094 1080.31 662.214 1080.29C662.349 1080.27 662.469 1080.25 662.599 1080.22C662.693 1080.19 662.802 1080.17 662.896 1080.14C663.016 1080.1 663.135 1080.06 663.255 1080.02C663.375 1079.97 663.495 1079.92 663.615 1079.86C663.719 1079.82 663.828 1079.77 663.922 1079.71C663.984 1079.68 664.042 1079.67 664.094 1079.64C664.146 1079.6 664.188 1079.56 664.24 1079.53C664.349 1079.47 664.438 1079.4 664.547 1079.33C664.641 1079.26 664.734 1079.18 664.828 1079.1C664.932 1079.02 665.026 1078.94 665.12 1078.85C665.198 1078.78 665.281 1078.7 665.359 1078.62C665.438 1078.53 665.521 1078.44 665.599 1078.34C665.682 1078.24 665.76 1078.15 665.828 1078.04C665.906 1077.94 665.974 1077.84 666.042 1077.73C666.068 1077.68 666.104 1077.65 666.135 1077.59L667.734 1074.81L738.427 952.37L809.12 1074.81L772.172 1138.82C772.135 1138.87 772.12 1138.93 772.094 1138.99C772.042 1139.09 771.984 1139.19 771.932 1139.29C771.88 1139.41 771.839 1139.53 771.802 1139.65C771.745 1139.77 771.708 1139.89 771.667 1140.02C771.641 1140.11 771.615 1140.21 771.589 1140.31C771.563 1140.44 771.531 1140.56 771.521 1140.69C771.495 1140.82 771.469 1140.94 771.453 1141.07C771.453 1141.19 771.438 1141.3 771.438 1141.42C771.438 1141.48 771.427 1141.54 771.427 1141.6C771.427 1141.67 771.438 1141.72 771.438 1141.79C771.438 1141.9 771.453 1142.02 771.453 1142.13C771.469 1142.26 771.495 1142.39 771.521 1142.52C771.531 1142.65 771.563 1142.77 771.589 1142.89C771.615 1142.99 771.641 1143.09 771.667 1143.19C771.708 1143.31 771.745 1143.43 771.786 1143.55C771.839 1143.68 771.88 1143.8 771.932 1143.92C771.984 1144.02 772.042 1144.11 772.094 1144.21C772.12 1144.27 772.135 1144.33 772.172 1144.39L883.026 1336.41H741.651L593.828 1080.38ZM507.052 946.797H580.958L651.651 1069.23H510.266L439.589 946.797H507.052ZM468.495 885.578L474.932 874.432L507.052 818.786L510.266 813.208H658.094L661.307 818.786L732 941.224L661.307 1063.66L590.615 941.224L589 938.438C588.974 938.385 588.932 938.339 588.896 938.286C588.802 938.115 588.667 937.964 588.547 937.807C588.438 937.672 588.349 937.531 588.214 937.406C588.094 937.276 587.958 937.161 587.828 937.047C587.693 936.922 587.563 936.802 587.411 936.693C587.266 936.594 587.104 936.51 586.958 936.422C586.802 936.328 586.651 936.24 586.479 936.161C586.318 936.089 586.146 936.036 585.984 935.974C585.812 935.917 585.641 935.859 585.469 935.818C585.292 935.776 585.135 935.755 584.958 935.729C584.76 935.703 584.573 935.677 584.359 935.667C584.307 935.667 584.24 935.651 584.188 935.651H439.589L468.495 885.578ZM555.266 612.833H928.026L931.24 618.406L1114.41 935.651H741.651L738.427 930.078L667.734 807.641L661.307 796.495L555.266 612.833ZM584.188 551.615L589 543.255L590.615 540.469L741.651 278.865H1120.84L1307.23 601.688L1310.44 607.26L1307.23 612.833L1197.97 802.068L1191.53 813.214L1162.62 863.286L1156.19 874.432L1124.05 930.078L937.682 607.26L936.068 604.474C936.042 604.422 936 604.375 935.958 604.323C935.854 604.151 935.734 604 935.615 603.844C935.505 603.708 935.401 603.568 935.281 603.443C935.161 603.312 935.026 603.198 934.896 603.083C934.76 602.958 934.625 602.839 934.479 602.734C934.333 602.63 934.172 602.542 934.026 602.453C933.865 602.365 933.719 602.276 933.562 602.203C933.385 602.13 933.214 602.068 933.042 602.01C932.88 601.953 932.708 601.896 932.531 601.854C932.359 601.813 932.188 601.792 932.026 601.766C931.828 601.74 931.625 601.714 931.427 601.708C931.375 601.703 931.307 601.688 931.24 601.688H555.266L584.188 551.615ZM1307.23 1002.44L1310.44 1008.02L1307.23 1013.59L1239.74 1130.46L1130.49 941.224L1162.62 885.578L1169.05 874.432L1201.19 818.786L1307.23 1002.44ZM1471.12 1264.04L1398.83 1138.82C1398.8 1138.76 1398.74 1138.72 1398.72 1138.67C1398.61 1138.49 1398.49 1138.33 1398.36 1138.18C1398.27 1138.04 1398.16 1137.91 1398.04 1137.79C1397.92 1137.65 1397.77 1137.53 1397.64 1137.42C1397.51 1137.3 1397.38 1137.18 1397.23 1137.07C1397.08 1136.97 1396.92 1136.88 1396.76 1136.79C1396.61 1136.71 1396.47 1136.61 1396.31 1136.54C1396.15 1136.46 1395.97 1136.41 1395.8 1136.35C1395.63 1136.29 1395.47 1136.23 1395.28 1136.19C1395.12 1136.16 1394.95 1136.13 1394.77 1136.11C1394.59 1136.08 1394.39 1136.06 1394.19 1136.05C1394.12 1136.05 1394.07 1136.03 1394 1136.03H1249.4L1320.09 1013.59H1467.91L1541.81 1141.6L1471.12 1264.04ZM1249.4 1147.18H1390.79L1461.47 1269.61H1320.09L1249.4 1147.18ZM783.427 1008.02L777 996.87L748.078 946.797H883.026L850.906 1002.44L844.469 1013.59L815.562 1063.66L786.651 1013.59L783.427 1008.02ZM1124.05 1330.84L1014.81 1141.6L1013.2 1138.82C1013.16 1138.76 1013.12 1138.72 1013.09 1138.67C1012.98 1138.49 1012.86 1138.34 1012.74 1138.18C1012.64 1138.05 1012.53 1137.91 1012.41 1137.79C1012.29 1137.65 1012.15 1137.54 1012.02 1137.42C1011.88 1137.3 1011.74 1137.18 1011.6 1137.07C1011.45 1136.97 1011.31 1136.89 1011.15 1136.8C1011 1136.71 1010.84 1136.61 1010.68 1136.54C1010.51 1136.46 1010.35 1136.41 1010.17 1136.35C1010 1136.3 1009.83 1136.23 1009.65 1136.19C1009.49 1136.16 1009.32 1136.13 1009.15 1136.11C1008.96 1136.08 1008.76 1136.06 1008.56 1136.05C1008.49 1136.05 1008.44 1136.03 1008.38 1136.03H786.651L815.562 1085.95L821.984 1074.81L854.12 1019.16L857.333 1013.59L860.562 1008.02L863.771 1002.44L895.906 946.797H1120.84L1233.32 1141.6L1124.05 1330.84ZM1005.15 1147.18L1114.41 1336.41H895.906L786.651 1147.18H1005.15ZM1994.51 3651.16C1997.17 3649.61 1998.08 3646.21 1996.55 3643.55L1475.95 2741.84L1283.14 2407.88L1128.88 2140.7L1109.61 2107.32C1109.6 2107.31 1109.6 2107.31 1109.6 2107.31L825.214 1614.72H892.682C892.745 1614.72 892.812 1614.71 892.865 1614.71C892.984 1614.7 893.094 1614.7 893.214 1614.69C893.349 1614.67 893.469 1614.66 893.589 1614.63C893.719 1614.61 893.854 1614.59 893.974 1614.56C894.078 1614.54 894.172 1614.51 894.266 1614.48C894.385 1614.44 894.505 1614.4 894.625 1614.35C894.76 1614.31 894.88 1614.27 895 1614.21C895.094 1614.16 895.188 1614.11 895.281 1614.06C895.349 1614.03 895.411 1614.01 895.469 1613.98C895.531 1613.95 895.573 1613.9 895.625 1613.87C895.719 1613.8 895.828 1613.74 895.922 1613.67C896.026 1613.6 896.104 1613.53 896.198 1613.45C896.307 1613.37 896.401 1613.29 896.505 1613.2C896.589 1613.11 896.651 1613.04 896.734 1612.96C896.812 1612.87 896.896 1612.78 896.958 1612.69C897.052 1612.59 897.135 1612.49 897.214 1612.39C897.281 1612.28 897.349 1612.18 897.411 1612.07C897.438 1612.03 897.479 1611.99 897.505 1611.94L931.24 1553.51L937.682 1542.36L969.812 1486.71L974.641 1478.35C974.667 1478.29 974.682 1478.23 974.719 1478.17C974.812 1478 974.88 1477.83 974.948 1477.66C975.016 1477.48 975.078 1477.32 975.135 1477.15C975.188 1476.98 975.214 1476.81 975.255 1476.64C975.292 1476.46 975.318 1476.28 975.349 1476.09C975.359 1475.92 975.359 1475.74 975.359 1475.56C975.359 1475.39 975.359 1475.21 975.349 1475.04C975.318 1474.85 975.292 1474.67 975.255 1474.49C975.214 1474.32 975.188 1474.15 975.135 1473.98C975.094 1473.81 975.016 1473.65 974.948 1473.48C974.88 1473.3 974.812 1473.12 974.719 1472.95C974.682 1472.9 974.667 1472.84 974.641 1472.79V1472.78L902.333 1347.56H1043.72L1350.61 1879.11L1736.24 2547.03L2102.59 3181.57C2102.59 3181.57 2102.59 3181.57 2102.59 3181.59L2237.55 3415.33C2239.09 3418 2242.51 3418.92 2245.16 3417.39C2247.83 3415.84 2248.74 3412.43 2247.2 3409.77L2092.96 3142.6C2092.95 3142.6 2092.95 3142.59 2092.95 3142.59L1745.9 2541.47C1745.9 2541.47 1745.9 2541.46 1745.9 2541.46L1360.27 1873.54L1056.59 1347.56H1124.05C1124.14 1347.56 1124.19 1347.54 1124.27 1347.53C1124.38 1347.53 1124.48 1347.53 1124.59 1347.52C1124.71 1347.5 1124.84 1347.48 1124.96 1347.46C1125.09 1347.44 1125.23 1347.42 1125.36 1347.39C1125.45 1347.36 1125.55 1347.33 1125.65 1347.31C1125.77 1347.27 1125.88 1347.23 1126 1347.19C1126.14 1347.14 1126.26 1347.09 1126.38 1347.04C1126.48 1346.99 1126.57 1346.94 1126.68 1346.89C1126.73 1346.85 1126.79 1346.84 1126.84 1346.81C1126.91 1346.78 1126.95 1346.73 1127 1346.7C1127.09 1346.64 1127.2 1346.57 1127.29 1346.51C1127.4 1346.43 1127.49 1346.35 1127.59 1346.28C1127.69 1346.19 1127.79 1346.11 1127.88 1346.02C1127.96 1345.95 1128.03 1345.88 1128.1 1345.8C1128.19 1345.71 1128.27 1345.61 1128.35 1345.52C1128.43 1345.41 1128.51 1345.31 1128.59 1345.21C1128.65 1345.11 1128.72 1345.02 1128.77 1344.92C1128.81 1344.86 1128.85 1344.82 1128.88 1344.77L1130.49 1341.98L1162.62 1286.33L1466.29 1812.3C1466.29 1812.3 1466.29 1812.31 1466.29 1812.32L1851.93 2480.24L2160.43 3014.58L2198.98 3081.39L2314.68 3281.74C2316.21 3284.43 2319.63 3285.33 2322.29 3283.8C2324.96 3282.26 2325.86 3278.84 2324.33 3276.19L2208.64 3075.81L2170.08 3009.01L1861.59 2474.69C1861.59 2474.68 1861.59 2474.68 1861.57 2474.67L1475.96 1806.76C1475.96 1806.76 1475.96 1806.75 1475.95 1806.74L1169.05 1275.19L1239.74 1152.75L1312.05 1277.97C1312.08 1278.03 1312.12 1278.07 1312.15 1278.12C1312.27 1278.29 1312.39 1278.45 1312.51 1278.61C1312.61 1278.74 1312.71 1278.88 1312.83 1279C1312.96 1279.14 1313.09 1279.26 1313.23 1279.38C1313.38 1279.49 1313.49 1279.61 1313.64 1279.71C1313.79 1279.82 1313.95 1279.91 1314.1 1280C1314.27 1280.08 1314.4 1280.17 1314.56 1280.24C1314.73 1280.32 1314.91 1280.38 1315.09 1280.44C1315.26 1280.49 1315.41 1280.56 1315.59 1280.59C1315.76 1280.64 1315.93 1280.66 1316.1 1280.68C1316.29 1280.71 1316.49 1280.73 1316.69 1280.74C1316.74 1280.74 1316.81 1280.76 1316.88 1280.76H1390.79L1659.1 1745.51C1659.1 1745.51 1659.1 1745.52 1659.1 1745.52L2353.24 2947.79L2430.38 3081.39C2431.91 3084.04 2435.32 3084.95 2437.98 3083.41C2440.64 3081.88 2441.56 3078.47 2440.02 3075.81L2362.9 2942.22C2362.9 2942.21 2362.9 2942.21 2362.88 2942.21L2015.83 2341.08L1668.76 1739.95L1403.65 1280.76H1471.12C1471.19 1280.76 1471.26 1280.74 1471.32 1280.74C1471.43 1280.73 1471.55 1280.73 1471.65 1280.72C1471.79 1280.71 1471.91 1280.69 1472.04 1280.67C1472.16 1280.65 1472.29 1280.62 1472.41 1280.59C1472.52 1280.57 1472.61 1280.54 1472.71 1280.52C1472.84 1280.48 1472.95 1280.44 1473.08 1280.39C1473.2 1280.34 1473.32 1280.3 1473.44 1280.24C1473.53 1280.2 1473.64 1280.15 1473.73 1280.09C1473.79 1280.06 1473.85 1280.05 1473.91 1280.01C1473.96 1279.98 1474.02 1279.94 1474.07 1279.91C1474.16 1279.84 1474.27 1279.78 1474.36 1279.71C1474.45 1279.64 1474.55 1279.56 1474.65 1279.48C1474.74 1279.4 1474.85 1279.32 1474.95 1279.23C1475.03 1279.16 1475.09 1279.08 1475.17 1279C1475.26 1278.91 1475.33 1278.82 1475.41 1278.73C1475.49 1278.62 1475.57 1278.52 1475.65 1278.42C1475.72 1278.32 1475.79 1278.22 1475.85 1278.11C1475.88 1278.06 1475.92 1278.03 1475.95 1277.97L1553.08 1144.39C1553.1 1144.33 1553.12 1144.28 1553.15 1144.22C1553.26 1144.04 1553.32 1143.85 1553.4 1143.67C1553.47 1143.52 1553.53 1143.36 1553.57 1143.2C1553.63 1143.02 1553.67 1142.83 1553.71 1142.65C1553.73 1142.48 1553.77 1142.31 1553.79 1142.15C1553.8 1141.95 1553.8 1141.77 1553.8 1141.57C1553.8 1141.41 1553.8 1141.24 1553.79 1141.08C1553.77 1140.89 1553.73 1140.7 1553.69 1140.51C1553.65 1140.34 1553.63 1140.18 1553.59 1140.02C1553.53 1139.85 1553.45 1139.68 1553.39 1139.51C1553.32 1139.33 1553.26 1139.16 1553.16 1138.99C1553.12 1138.94 1553.1 1138.87 1553.08 1138.82L1477.56 1008.02L1475.95 1005.23C1475.92 1005.18 1475.88 1005.14 1475.85 1005.09C1475.73 1004.91 1475.61 1004.74 1475.48 1004.58C1475.38 1004.45 1475.28 1004.32 1475.17 1004.2C1475.04 1004.07 1474.91 1003.95 1474.76 1003.82C1474.63 1003.71 1474.49 1003.59 1474.36 1003.49C1474.21 1003.39 1474.05 1003.3 1473.9 1003.2C1473.73 1003.12 1473.59 1003.03 1473.44 1002.96C1473.27 1002.88 1473.09 1002.82 1472.92 1002.77C1472.74 1002.71 1472.59 1002.65 1472.41 1002.61C1472.24 1002.57 1472.07 1002.55 1471.91 1002.53C1471.71 1002.49 1471.51 1002.47 1471.31 1002.46C1471.24 1002.46 1471.19 1002.44 1471.12 1002.44H1320.09L1210.84 813.214L1207.61 807.635L1210.84 802.068L1320.09 612.833L1321.69 610.047C1321.73 609.995 1321.74 609.938 1321.77 609.88C1321.86 609.703 1321.95 609.516 1322.03 609.333C1322.08 609.172 1322.15 609.016 1322.2 608.854C1322.26 608.682 1322.28 608.505 1322.32 608.323C1322.36 608.151 1322.39 607.974 1322.41 607.797C1322.43 607.615 1322.43 607.438 1322.43 607.26C1322.43 607.083 1322.43 606.906 1322.41 606.729C1322.39 606.547 1322.36 606.375 1322.32 606.198C1322.28 606.021 1322.26 605.844 1322.2 605.667C1322.15 605.505 1322.08 605.349 1322.03 605.193C1321.95 605.005 1321.86 604.818 1321.77 604.641C1321.74 604.583 1321.73 604.526 1321.69 604.474L1320.09 601.688L1128.88 270.505C1128.85 270.453 1128.81 270.411 1128.77 270.359C1128.67 270.188 1128.55 270.026 1128.43 269.88C1128.32 269.745 1128.21 269.599 1128.1 269.479C1127.97 269.349 1127.84 269.229 1127.71 269.12C1127.57 269 1127.44 268.88 1127.29 268.771C1127.15 268.667 1126.98 268.589 1126.83 268.495C1126.68 268.401 1126.53 268.307 1126.38 268.24C1126.2 268.161 1126.03 268.104 1125.85 268.042C1125.68 267.984 1125.52 267.932 1125.35 267.896C1125.17 267.854 1125 267.828 1124.83 267.802C1124.64 267.771 1124.44 267.745 1124.26 267.745C1124.19 267.745 1124.12 267.719 1124.05 267.719H738.427C738.375 267.719 738.307 267.745 738.24 267.745C738.042 267.745 737.854 267.771 737.667 267.802C737.479 267.828 737.318 267.854 737.146 267.896C736.974 267.932 736.802 267.984 736.641 268.042C736.469 268.104 736.292 268.161 736.12 268.24C735.958 268.307 735.813 268.401 735.667 268.495C735.505 268.573 735.349 268.667 735.198 268.771C735.052 268.88 734.922 269 734.786 269.104C734.651 269.229 734.521 269.349 734.385 269.479C734.266 269.599 734.172 269.745 734.068 269.865C733.948 270.026 733.812 270.188 733.708 270.359C733.682 270.411 733.641 270.453 733.599 270.505L580.958 534.896L579.359 537.682L574.531 546.042L545.615 596.12L540.802 604.469L540.786 604.474C540.76 604.531 540.745 604.594 540.708 604.646C540.667 604.75 540.615 604.844 540.562 604.948C540.505 605.068 540.469 605.193 540.411 605.318C540.375 605.432 540.318 605.552 540.292 605.677C540.255 605.771 540.24 605.87 540.214 605.969C540.188 606.094 540.161 606.224 540.135 606.354C540.12 606.479 540.094 606.604 540.078 606.734C540.068 606.844 540.068 606.958 540.068 607.073C540.068 607.135 540.042 607.198 540.042 607.26C540.042 607.328 540.068 607.385 540.068 607.448C540.068 607.568 540.068 607.677 540.078 607.792C540.094 607.922 540.12 608.047 540.135 608.172C540.161 608.302 540.188 608.427 540.214 608.552C540.24 608.651 540.255 608.75 540.292 608.849C540.318 608.969 540.375 609.089 540.411 609.214C540.469 609.333 540.505 609.453 540.562 609.573C540.599 609.677 540.651 609.771 540.708 609.87C540.745 609.922 540.76 609.979 540.786 610.031C540.786 610.036 540.786 610.042 540.786 610.047L545.615 618.406L651.651 802.068H507.052C506.984 802.068 506.932 802.083 506.865 802.089C506.667 802.094 506.479 802.115 506.281 802.141C506.104 802.172 505.932 802.193 505.76 802.229C505.599 802.271 505.438 802.328 505.266 802.385C505.094 802.443 504.922 802.505 504.745 802.583C504.589 802.656 504.438 802.74 504.292 802.823C504.135 802.917 503.974 803.005 503.828 803.115C503.682 803.219 503.547 803.333 503.411 803.453C503.281 803.573 503.146 803.688 503.016 803.823C502.896 803.948 502.786 804.083 502.693 804.219C502.562 804.375 502.438 804.531 502.333 804.703C502.307 804.755 502.266 804.797 502.229 804.854L500.615 807.635L468.495 863.286L462.052 874.432L429.932 930.078L426.708 935.651L425.104 938.438C425.078 938.495 425.052 938.552 425.026 938.604C424.974 938.708 424.922 938.807 424.88 938.911C424.813 939.031 424.771 939.156 424.719 939.281C424.682 939.401 424.641 939.516 424.599 939.635C424.573 939.734 424.547 939.828 424.521 939.932C424.495 940.057 424.469 940.188 424.453 940.318C424.427 940.443 424.411 940.568 424.401 940.693C424.385 940.807 424.385 940.917 424.375 941.031C424.375 941.099 424.359 941.161 424.359 941.224C424.359 941.292 424.375 941.349 424.375 941.417C424.385 941.531 424.385 941.641 424.401 941.755C424.411 941.88 424.427 942.005 424.453 942.125C424.469 942.26 424.495 942.391 424.521 942.521C424.547 942.615 424.573 942.719 424.599 942.812C424.641 942.932 424.682 943.052 424.719 943.167C424.771 943.292 424.813 943.417 424.88 943.536C424.922 943.641 424.974 943.74 425.026 943.839C425.052 943.896 425.078 943.953 425.104 944.01L426.708 946.797L497.401 1069.24L502.229 1077.59C502.266 1077.65 502.307 1077.69 502.333 1077.75C502.438 1077.92 502.563 1078.07 502.682 1078.23C502.786 1078.36 502.896 1078.5 503.016 1078.63C503.135 1078.76 503.281 1078.88 503.411 1078.99C503.547 1079.11 503.682 1079.23 503.828 1079.33C503.974 1079.44 504.135 1079.53 504.281 1079.62C504.438 1079.7 504.589 1079.8 504.745 1079.87C504.922 1079.94 505.094 1080.01 505.266 1080.06C505.427 1080.12 505.599 1080.18 505.771 1080.22C505.932 1080.26 506.104 1080.28 506.281 1080.3C506.479 1080.33 506.667 1080.36 506.865 1080.36C506.932 1080.36 506.984 1080.38 507.052 1080.38H580.958L584.188 1085.95L732 1341.98L656.479 1472.78C656.453 1472.83 656.427 1472.9 656.401 1472.96C656.349 1473.05 656.292 1473.15 656.255 1473.26C656.198 1473.37 656.146 1473.49 656.104 1473.61C656.052 1473.73 656.016 1473.86 655.974 1473.98C655.948 1474.08 655.922 1474.18 655.906 1474.27C655.865 1474.4 655.854 1474.52 655.828 1474.65C655.802 1474.78 655.771 1474.91 655.771 1475.05C655.76 1475.16 655.76 1475.27 655.745 1475.38C655.745 1475.44 655.734 1475.5 655.734 1475.56C655.734 1475.62 655.745 1475.68 655.745 1475.74C655.76 1475.86 655.76 1475.98 655.771 1476.11C655.786 1476.23 655.812 1476.35 655.828 1476.47C655.839 1476.6 655.865 1476.72 655.896 1476.84C655.922 1476.95 655.948 1477.06 655.984 1477.17C656.016 1477.28 656.052 1477.4 656.104 1477.52C656.146 1477.64 656.188 1477.75 656.24 1477.86C656.292 1477.97 656.349 1478.08 656.411 1478.19C656.438 1478.24 656.453 1478.3 656.479 1478.35L661.307 1486.71L733.599 1611.94C733.641 1611.99 733.682 1612.03 733.708 1612.08C733.812 1612.26 733.948 1612.42 734.068 1612.58C734.172 1612.71 734.266 1612.84 734.385 1612.96C734.521 1613.1 734.651 1613.22 734.802 1613.34C734.932 1613.46 735.052 1613.57 735.198 1613.67C735.349 1613.78 735.505 1613.88 735.682 1613.97C735.813 1614.05 735.958 1614.14 736.12 1614.21C736.292 1614.29 736.479 1614.34 736.651 1614.41C736.813 1614.46 736.974 1614.52 737.135 1614.56C737.318 1614.6 737.495 1614.62 737.682 1614.65C737.865 1614.67 738.042 1614.7 738.24 1614.71C738.307 1614.71 738.359 1614.72 738.427 1614.72H812.349L1080.67 2079.48C1080.67 2079.48 1080.67 2079.48 1080.67 2079.49L1119.24 2146.28L1273.48 2413.45L1466.29 2747.41L1986.9 3649.12C1988.44 3651.77 1991.84 3652.69 1994.51 3651.16Z" fill="black"/>
</g>
</svg>
