<svg width="30" height="30" viewBox="0 0 30 30" fill="none" xmlns="http://www.w3.org/2000/svg">
<path d="M23.6464 0H0V23.6464H23.6464V0Z" fill="#57EB9F"/>
<path d="M23.6464 0V23.6464H0L5.82213 29.4703H29.4703V5.82213L23.6464 0Z" fill="#DADBDC"/>
<path d="M10.3721 4.03152C9.83015 4.11863 9.64192 5.15826 9.47184 5.60106C8.85158 7.21575 8.22254 8.82839 7.58456 10.4363C7.41056 10.8748 7.23047 11.3123 7.06738 11.7549C6.99809 11.943 6.94681 12.1695 7.09918 12.3348C7.30989 12.5634 7.72547 12.4876 8.00484 12.4876H10.4017H11.1711C11.2389 12.4876 11.3868 12.4631 11.4277 12.5345C11.4737 12.6151 11.3952 12.7861 11.3744 12.8685C11.2957 13.1806 11.2239 13.4943 11.1452 13.8062L10.2131 17.4986C10.1289 17.832 9.93621 18.2672 9.96449 18.6121C9.98314 18.8399 10.2001 19.0228 10.4313 18.9977C10.7205 18.9662 10.8572 18.6516 10.9951 18.4363C11.3341 17.9073 11.6775 17.3806 12.0201 16.8539C13.2641 14.9411 14.4794 13.0072 15.7478 11.1103C16.0711 10.6268 16.3784 10.1325 16.6955 9.64504C16.8344 9.4315 17.0371 9.21401 16.9941 8.94174C16.9375 8.58224 16.5428 8.59009 16.2607 8.59009H13.9526C13.8081 8.59009 13.2472 8.67173 13.1535 8.55997C13.1042 8.50118 13.2006 8.35343 13.2254 8.29705L13.5509 7.56444C13.8511 6.87908 14.1547 6.19422 14.4647 5.51315C14.6009 5.21385 14.866 4.81725 14.8879 4.4875C14.9224 3.96616 14.2661 4.01864 13.923 4.01864H11.5853C11.1922 4.01864 10.7604 3.96911 10.3721 4.03152Z" fill="black"/>
</svg>
