<svg width="1080" height="1080" viewBox="0 0 1080 1080" fill="none" xmlns="http://www.w3.org/2000/svg">
<g clip-path="url(#clip0_66_853)">
<rect width="1080" height="1080" fill="#9B55FF"/>
<rect width="1080" height="1080" fill="#9B55FF"/>
<path d="M990.002 990V267.036L811.964 89V811.964H89L267.037 990L990.002 990Z" fill="#1A1A1A"/>
<path d="M811.964 89L89 89L89 811.964L811.964 811.964L811.964 89Z" fill="#FF3A4D"/>
<path d="M273.741 372.291C260.803 396.309 252.225 422.1 248.006 449.663C246.6 459.056 241.481 464.625 232.65 466.369C230.599 466.78 228.484 466.755 226.443 466.297C224.401 465.838 222.479 464.956 220.801 463.707C219.122 462.458 217.725 460.87 216.699 459.047C215.674 457.223 215.043 455.205 214.847 453.122C206.859 365.991 229.641 294.553 283.191 238.809C293.091 228.516 303.103 228.403 313.228 238.472L342.422 267.75C351.478 276.863 351.422 285.947 342.253 295.003L317.447 319.472C314.747 322.116 314.747 324.759 317.447 327.403L335.588 345.291C336.306 345.984 336.859 346.83 337.207 347.767C337.555 348.705 337.69 349.71 337.601 350.711C337.513 351.711 337.203 352.683 336.694 353.555C336.185 354.427 335.49 355.178 334.659 355.753C323.128 363.628 313.369 373.191 305.381 384.441C301.95 389.334 298.153 389.644 293.991 385.369L280.153 371.447C277.566 368.859 275.428 369.141 273.741 372.291Z" fill="#FDFDFD"/>
<path d="M582.553 319.556L558.253 295.341C548.859 285.947 548.859 276.553 558.253 267.159L587.531 237.881C597.262 228.206 606.853 228.319 616.303 238.219C670.134 294.356 693.084 365.934 685.153 452.953C684.97 455.013 684.366 457.014 683.378 458.831C682.39 460.648 681.039 462.243 679.41 463.516C677.78 464.79 675.906 465.715 673.904 466.235C671.902 466.755 669.815 466.858 667.772 466.537C658.941 465.131 653.794 459.9 652.331 450.844C647.719 422.55 639.028 396.309 626.259 372.122C625.975 371.588 625.569 371.128 625.075 370.778C624.58 370.429 624.011 370.2 623.413 370.11C622.814 370.02 622.203 370.071 621.628 370.259C621.053 370.447 620.529 370.767 620.1 371.194L604.575 386.972C601.481 390.122 598.612 389.897 595.969 386.297C587.137 373.978 576.956 363.684 565.425 355.416C561.037 352.322 560.756 348.919 564.581 345.206L582.553 327.403C585.197 324.759 585.197 322.144 582.553 319.556Z" fill="#FDFDFD"/>
<path d="M410.344 629.719L385.706 619.341C381.881 617.766 378.647 618.553 376.003 621.703C373.528 624.572 370.969 627.384 368.325 630.141C350.859 648.281 329.091 619.847 318.966 607.781C315.998 604.227 314.472 599.689 314.691 595.064C314.91 590.439 316.857 586.064 320.147 582.806L330.188 572.85C332.325 570.713 332.803 568.266 331.622 565.509L321.075 540.872C320.013 538.418 318.162 536.392 315.82 535.122C313.477 533.851 310.781 533.41 308.166 533.869C273.488 539.944 280.491 502.481 281.503 481.894C281.718 477.908 283.442 474.155 286.326 471.396C289.211 468.637 293.037 467.081 297.028 467.044L312.384 466.791C314.244 466.765 316.057 466.193 317.601 465.143C319.145 464.094 320.352 462.614 321.075 460.884L331.791 434.897C332.344 433.52 332.403 431.993 331.957 430.578C331.51 429.162 330.587 427.945 329.344 427.134C320.794 421.453 315.619 413.888 313.819 404.438C313.51 402.853 313.595 401.216 314.065 399.672C314.536 398.127 315.379 396.721 316.519 395.578L343.519 368.241C344.783 366.952 346.322 365.97 348.019 365.371C349.716 364.771 351.524 364.569 353.306 364.781C362.925 365.85 370.688 370.997 376.594 380.222C377.376 381.45 378.568 382.36 379.958 382.793C381.348 383.225 382.847 383.152 384.188 382.584L410.428 371.616C412.157 370.886 413.631 369.672 414.667 368.126C415.703 366.58 416.253 364.771 416.25 362.925V349.763C416.272 345.011 418.176 340.461 421.544 337.109C424.912 333.757 429.47 331.875 434.222 331.875L468.9 331.959C472.765 331.959 476.474 333.492 479.222 336.225C481.971 338.957 483.537 342.67 483.581 346.556L483.835 363.009C483.864 364.895 484.439 366.73 485.488 368.288C486.537 369.847 488.015 371.062 489.741 371.784L513.872 381.572C517.472 383.091 520.65 382.444 523.406 379.631L533.531 369.506C536.58 366.461 540.689 364.71 545.009 364.616C549.328 364.521 553.526 366.091 556.735 369C571.669 382.584 601.622 403.256 574.116 423.759C568.941 427.641 567.534 432.562 569.897 438.525L578.756 460.8C580.331 464.794 583.256 466.791 587.531 466.791L604.069 467.044C607.956 467.088 611.668 468.654 614.401 471.403C617.133 474.151 618.666 477.86 618.666 481.725L618.75 518.428C618.75 522.621 617.1 526.643 614.159 529.615C611.218 532.587 607.226 534.268 603.056 534.291L587.7 534.375C583.425 534.431 580.472 536.428 578.841 540.366L568.885 564.75C567.085 569.081 568.097 572.569 571.922 575.212C579.741 580.725 584.494 587.756 586.181 596.306C586.518 598.001 586.44 599.748 585.955 601.395C585.47 603.042 584.592 604.539 583.397 605.756L556.06 633.263C554.688 634.64 553.057 635.733 551.262 636.479C549.466 637.225 547.541 637.609 545.597 637.609C543.653 637.609 541.728 637.225 539.932 636.479C538.137 635.733 536.506 634.64 535.135 633.263L522.141 620.269C521.295 619.417 520.206 618.836 519.007 618.596C517.809 618.356 516.552 618.469 515.391 618.919L489.825 629.466C485.888 631.041 483.891 633.966 483.835 638.241L483.581 653.766C483.537 657.921 481.846 661.891 478.876 664.814C475.906 667.736 471.897 669.375 467.719 669.375H432.113C427.935 669.353 423.934 667.683 420.98 664.729C418.026 661.775 416.357 657.775 416.335 653.597L416.25 638.409C416.194 634.247 414.225 631.35 410.344 629.719ZM534.122 500.625C534.122 478.314 525.259 456.918 509.483 441.142C493.707 425.366 472.311 416.503 450 416.503C427.69 416.503 406.293 425.366 390.517 441.142C374.741 456.918 365.878 478.314 365.878 500.625C365.878 522.936 374.741 544.332 390.517 560.108C406.293 575.884 427.69 584.747 450 584.747C472.311 584.747 493.707 575.884 509.483 560.108C525.259 544.332 534.122 522.936 534.122 500.625Z" fill="#FDFDFD"/>
<path d="M449.916 567.872C487.055 567.872 517.162 537.764 517.162 500.625C517.162 463.486 487.055 433.378 449.916 433.378C412.776 433.378 382.669 463.486 382.669 500.625C382.669 537.764 412.776 567.872 449.916 567.872Z" fill="#FDFDFD"/>
</g>
<defs>
<clipPath id="clip0_66_853">
<rect width="1080" height="1080" fill="white"/>
</clipPath>
</defs>
</svg>
