<svg width="30" height="30" viewBox="0 0 30 30" fill="none" xmlns="http://www.w3.org/2000/svg">
<path d="M23.9112 0.264893H0.264877V23.9113H23.9112V0.264893Z" fill="#4D54FF"/>
<path d="M23.9112 0.264893V23.9113H0.264877L6.08701 29.7352H29.7352V6.08702L23.9112 0.264893Z" fill="#DADBDC"/>
<g clip-path="url(#clip0_25_1895)">
<path d="M11.858 4.07075C10.5717 4.24013 9.38339 4.60077 8.29767 5.33499C5.70693 7.08697 4.46647 10.4415 5.30422 13.4553C6.03165 16.0722 8.11466 18.0927 10.749 18.7482C11.2946 18.884 11.8277 18.9062 12.3833 18.9442C12.581 18.9578 12.8519 19.0262 13.0452 18.9615C13.1395 18.93 13.1128 18.7854 13.1128 18.7082V17.9202V15.4981C13.1128 15.2762 13.0171 14.7624 13.1428 14.5768C13.2229 14.4586 13.5093 14.4342 13.6381 14.3832C13.957 14.2569 14.2545 14.0807 14.5136 13.8554C15.4895 13.0067 15.5934 11.9494 15.5934 10.7412C15.5934 10.4847 15.7046 9.89961 15.5758 9.67908C15.5317 9.60361 15.3739 9.6323 15.3016 9.6323H14.6304C14.5514 9.63212 14.4275 9.65045 14.3853 9.56465C14.3243 9.44074 14.3677 9.21361 14.3677 9.07782C14.3677 8.54092 14.6054 7.15704 13.7549 7.15704C12.8877 7.15704 13.142 8.49428 13.142 9.04864C13.142 9.18034 13.1973 9.4778 13.112 9.58552C13.0182 9.70394 12.5821 9.6323 12.4416 9.6323C12.2915 9.6323 12.0944 9.66595 11.9498 9.62302C11.7842 9.57385 11.858 9.12773 11.858 8.99027C11.858 8.45725 12.0978 7.04903 11.1868 7.16098C10.8259 7.2053 10.6577 7.52147 10.6349 7.85214C10.5992 8.37125 10.7707 9.0431 10.623 9.54043C10.5683 9.72484 9.8647 9.6323 9.69845 9.6323C9.62613 9.6323 9.46831 9.60361 9.42421 9.67908C9.29543 9.89961 9.40662 10.4847 9.40662 10.7412C9.40662 11.9494 9.51054 13.0067 10.4864 13.8554C10.7614 14.0946 11.0796 14.2777 11.4202 14.4059C11.5421 14.4517 11.8109 14.4691 11.8696 14.6C11.9492 14.7778 11.8872 15.1004 11.8872 15.2938V16.9864C11.8872 17.1344 11.9719 17.6826 11.7687 17.6862C11.1833 17.6969 10.5169 17.4322 9.99027 17.203C7.71704 16.2141 6.14684 13.7889 6.25601 11.2957C6.40249 7.95058 9.30643 5.10721 12.7043 5.25602C13.4885 5.29036 14.2938 5.46137 15.0097 5.78917C18.026 7.17023 19.5346 10.7049 18.2943 13.8054C17.8502 14.9156 17.0843 15.8721 16.1187 16.5734C15.7715 16.8256 15.2808 16.9619 14.9637 17.2319C14.8809 17.3023 14.9685 17.4348 15.0015 17.5117C15.0663 17.6624 15.2555 18.3648 15.4491 18.3255C16.0255 18.2083 16.6569 17.6967 17.1109 17.3468C18.872 15.9891 19.9416 13.8063 19.9416 11.5876C19.9416 10.3074 19.6703 9.07321 19.0571 7.93969C17.7106 5.45028 14.733 3.69215 11.858 4.07075Z" fill="white"/>
<path d="M11.8677 7.78406L11.858 8.14397V9.22374L11.8774 9.61283L11.8872 9.25292V8.17315L11.8677 7.78406ZM13.1226 7.78406L13.1128 8.14397V9.22374L13.1323 9.61283L13.142 9.25292V8.17315L13.1226 7.78406Z" fill="#575757"/>
<path d="M9.38715 9.65176L9.37743 10.0117V11.0914L9.3969 11.4805L9.40662 11.1206V10.0409L9.38715 9.65176ZM15.6031 9.65176L15.5934 10.0117V11.0914L15.6129 11.4805L15.6226 11.1206V10.0409L15.6031 9.65176Z" fill="#575757"/>
<path d="M11.8677 14.5837L11.858 15.2062V17.0156V17.5117L11.8774 17.6673L11.8872 17.0447V15.2354V14.7393L11.8677 14.5837ZM13.1226 14.5837L13.1128 14.7977V15.4397V18.0078V18.7082L13.1323 18.9222L13.142 18.7082V18.0661V15.4981V14.7977L13.1226 14.5837Z" fill="#A7A7A7"/>
</g>
<defs>
<clipPath id="clip0_25_1895">
<rect width="15" height="15" fill="white" transform="translate(5 4)"/>
</clipPath>
</defs>
</svg>
