<svg width="2812" height="1664" viewBox="0 0 2812 1664" fill="none" xmlns="http://www.w3.org/2000/svg">
<rect width="2812" height="1664" fill="white"/>
<circle cx="1526.92" cy="1323.86" r="36.2122" fill="#F4F6F7" stroke="#232422" stroke-width="1.52072"/>
<path d="M1534.38 1313.17L1535.56 1334.13H1532.74L1532.14 1323.5C1532.11 1322.75 1532.09 1322 1532.07 1321.26C1532.05 1320.51 1532.03 1319.8 1532.02 1319.12C1532.02 1318.44 1532.02 1317.82 1532.02 1317.26C1532.03 1316.7 1532.04 1316.24 1532.05 1315.88L1528.71 1330.4H1525.88L1522.29 1315.88C1522.31 1316.23 1522.32 1316.7 1522.33 1317.28C1522.35 1317.86 1522.36 1318.49 1522.36 1319.19C1522.37 1319.89 1522.37 1320.61 1522.36 1321.35C1522.35 1322.09 1522.34 1322.81 1522.32 1323.5L1521.82 1334.13H1519.05L1520.24 1313.17H1524.14L1527.37 1327.39L1530.44 1313.17H1534.38Z" fill="#1A1C1C"/>
<circle cx="1735.25" cy="1183.76" r="36.2122" fill="#F4F6F7" stroke="#232422" stroke-width="1.52072"/>
<path d="M1742.7 1173.08L1743.89 1194.03H1741.06L1740.47 1183.4C1740.44 1182.65 1740.41 1181.91 1740.39 1181.17C1740.37 1180.42 1740.36 1179.7 1740.35 1179.02C1740.35 1178.34 1740.35 1177.72 1740.35 1177.17C1740.36 1176.61 1740.37 1176.15 1740.38 1175.78L1737.03 1190.31H1734.2L1730.61 1175.78C1730.63 1176.14 1730.65 1176.6 1730.66 1177.18C1730.68 1177.76 1730.69 1178.4 1730.69 1179.1C1730.7 1179.8 1730.7 1180.52 1730.69 1181.26C1730.68 1182 1730.66 1182.71 1730.64 1183.4L1730.14 1194.03H1727.37L1728.56 1173.08H1732.47L1735.69 1187.29L1738.76 1173.08H1742.7Z" fill="#1A1C1C"/>
<circle cx="1825.92" cy="1055.16" r="36.2122" fill="#F4F6F7" stroke="#232422" stroke-width="1.52072"/>
<path d="M1833.38 1044.48L1834.56 1065.43H1831.73L1831.14 1054.8C1831.11 1054.05 1831.08 1053.31 1831.06 1052.57C1831.04 1051.82 1831.03 1051.1 1831.02 1050.42C1831.02 1049.74 1831.02 1049.13 1831.02 1048.57C1831.03 1048.01 1831.04 1047.55 1831.05 1047.18L1827.7 1061.71H1824.88L1821.29 1047.18C1821.31 1047.54 1821.32 1048.01 1821.33 1048.58C1821.35 1049.16 1821.36 1049.8 1821.36 1050.5C1821.37 1051.2 1821.37 1051.92 1821.36 1052.66C1821.35 1053.4 1821.34 1054.11 1821.32 1054.8L1820.81 1065.43H1818.05L1819.23 1044.48H1823.14L1826.37 1058.7L1829.44 1044.48H1833.38Z" fill="#1A1C1C"/>
<circle cx="1717.04" cy="964.488" r="36.2122" fill="#F4F6F7" stroke="#232422" stroke-width="1.52072"/>
<path d="M1724.49 953.804L1725.68 974.76H1722.85L1722.26 964.13C1722.23 963.38 1722.2 962.635 1722.18 961.894C1722.16 961.144 1722.14 960.43 1722.13 959.75C1722.13 959.071 1722.13 958.453 1722.13 957.895C1722.14 957.337 1722.15 956.876 1722.16 956.511L1718.82 971.034H1715.99L1712.4 956.511C1712.42 956.866 1712.44 957.332 1712.45 957.91C1712.47 958.488 1712.48 959.127 1712.48 959.826C1712.49 960.526 1712.49 961.246 1712.48 961.986C1712.47 962.726 1712.45 963.441 1712.43 964.13L1711.93 974.76H1709.16L1710.35 953.804H1714.26L1717.48 968.023L1720.55 953.804H1724.49Z" fill="#1A1C1C"/>
<circle cx="1947.84" cy="927.611" r="36.2122" fill="#F4F6F7" stroke="#232422" stroke-width="1.52072"/>
<path d="M1955.29 916.927L1956.47 937.883H1953.65L1953.05 927.253C1953.02 926.503 1953 925.758 1952.98 925.018C1952.96 924.267 1952.94 923.553 1952.93 922.873C1952.93 922.194 1952.93 921.576 1952.93 921.018C1952.94 920.46 1952.95 919.999 1952.96 919.634L1949.62 934.157H1946.79L1943.2 919.634C1943.22 919.989 1943.23 920.455 1943.24 921.033C1943.26 921.611 1943.27 922.25 1943.27 922.949C1943.28 923.649 1943.28 924.369 1943.27 925.109C1943.26 925.849 1943.25 926.564 1943.23 927.253L1942.73 937.883H1939.96L1941.15 916.927H1945.05L1948.28 931.146L1951.35 916.927H1955.29Z" fill="#1A1C1C"/>
<circle cx="2047.44" cy="818.586" r="36.2122" fill="#F4F6F7" stroke="#232422" stroke-width="1.52072"/>
<path d="M2054.89 807.902L2056.08 828.857H2053.25L2052.66 818.228C2052.63 817.477 2052.6 816.732 2052.58 815.992C2052.56 815.242 2052.54 814.527 2052.53 813.848C2052.53 813.169 2052.53 812.55 2052.53 811.993C2052.54 811.435 2052.55 810.974 2052.57 810.609L2049.22 825.132H2046.39L2042.8 810.609C2042.82 810.964 2042.84 811.43 2042.85 812.008C2042.87 812.586 2042.88 813.224 2042.88 813.924C2042.89 814.623 2042.89 815.343 2042.88 816.083C2042.87 816.823 2042.85 817.538 2042.83 818.228L2042.33 828.857H2039.56L2040.75 807.902H2044.66L2047.88 822.121L2050.95 807.902H2054.89Z" fill="#1A1C1C"/>
<circle cx="1721.62" cy="583.93" r="36.2122" fill="#F4F6F7" stroke="#232422" stroke-width="1.52072"/>
<path d="M1729.08 573.246L1730.26 594.201H1727.43L1726.84 583.571C1726.81 582.821 1726.78 582.076 1726.76 581.336C1726.74 580.586 1726.73 579.871 1726.72 579.192C1726.72 578.512 1726.72 577.894 1726.72 577.336C1726.73 576.779 1726.74 576.317 1726.75 575.953L1723.4 590.475H1720.57L1716.99 575.953C1717.01 576.307 1717.02 576.774 1717.03 577.352C1717.05 577.929 1717.06 578.568 1717.06 579.268C1717.07 579.967 1717.07 580.687 1717.06 581.427C1717.05 582.167 1717.04 582.882 1717.02 583.571L1716.51 594.201H1713.75L1714.93 573.246H1718.84L1722.06 587.464L1725.14 573.246H1729.08Z" fill="#1A1C1C"/>
<circle cx="1862.9" cy="567.297" r="36.2122" fill="#F4F6F7" stroke="#232422" stroke-width="1.52072"/>
<path d="M1870.35 556.613L1871.53 577.568H1868.71L1868.11 566.939C1868.08 566.188 1868.06 565.443 1868.04 564.703C1868.02 563.953 1868 563.238 1867.99 562.559C1867.99 561.88 1867.99 561.261 1867.99 560.704C1868 560.146 1868.01 559.685 1868.02 559.32L1864.68 573.843H1861.85L1858.26 559.32C1858.28 559.675 1858.29 560.141 1858.3 560.719C1858.32 561.297 1858.34 561.935 1858.34 562.635C1858.35 563.334 1858.35 564.054 1858.34 564.794C1858.32 565.534 1858.31 566.249 1858.29 566.939L1857.79 577.568H1855.02L1856.21 556.613H1860.11L1863.34 570.832L1866.41 556.613H1870.35Z" fill="#1A1C1C"/>
<circle cx="1767.72" cy="461.455" r="36.2122" fill="#F4F6F7" stroke="#232422" stroke-width="1.52072"/>
<path d="M1775.17 450.771L1776.36 471.727H1773.53L1772.94 461.097C1772.91 460.346 1772.88 459.601 1772.86 458.861C1772.84 458.111 1772.82 457.396 1772.81 456.717C1772.81 456.038 1772.81 455.419 1772.81 454.862C1772.82 454.304 1772.83 453.843 1772.84 453.478L1769.5 468.001H1766.67L1763.08 453.478C1763.1 453.833 1763.12 454.299 1763.13 454.877C1763.15 455.455 1763.16 456.094 1763.16 456.793C1763.17 457.493 1763.17 458.212 1763.16 458.953C1763.15 459.693 1763.13 460.407 1763.11 461.097L1762.61 471.727H1759.84L1761.03 450.771H1764.94L1768.16 464.99L1771.23 450.771H1775.17Z" fill="#1A1C1C"/>
<circle cx="1628.23" cy="322.84" r="36.2122" fill="#F4F6F7" stroke="#232422" stroke-width="1.52072"/>
<path d="M1635.68 312.156L1636.87 333.111H1634.04L1633.45 322.481C1633.42 321.731 1633.39 320.986 1633.37 320.246C1633.35 319.496 1633.34 318.781 1633.33 318.102C1633.33 317.423 1633.33 316.804 1633.33 316.247C1633.34 315.689 1633.35 315.228 1633.36 314.863L1630.01 329.386H1627.18L1623.59 314.863C1623.61 315.218 1623.63 315.684 1623.64 316.262C1623.66 316.84 1623.67 317.478 1623.67 318.178C1623.68 318.877 1623.68 319.597 1623.67 320.337C1623.66 321.077 1623.64 321.792 1623.62 322.481L1623.12 333.111H1620.35L1621.54 312.156H1625.45L1628.67 326.375L1631.74 312.156H1635.68Z" fill="#1A1C1C"/>
<circle cx="1345.38" cy="236.769" r="36.2122" fill="#F4F6F7" stroke="#232422" stroke-width="1.52072"/>
<path d="M1352.84 226.085L1354.02 247.041H1351.19L1350.6 236.411C1350.57 235.661 1350.55 234.916 1350.53 234.176C1350.51 233.425 1350.49 232.711 1350.48 232.031C1350.48 231.352 1350.48 230.734 1350.48 230.176C1350.49 229.619 1350.5 229.157 1350.51 228.792L1347.16 243.315H1344.34L1340.75 228.792C1340.77 229.147 1340.78 229.614 1340.79 230.191C1340.81 230.769 1340.82 231.408 1340.82 232.108C1340.83 232.807 1340.83 233.527 1340.82 234.267C1340.81 235.007 1340.8 235.722 1340.78 236.411L1340.28 247.041H1337.51L1338.69 226.085H1342.6L1345.83 240.304L1348.9 226.085H1352.84Z" fill="#1A1C1C"/>
<circle cx="1136.89" cy="381.697" r="36.2122" fill="#F4F6F7" stroke="#232422" stroke-width="1.52072"/>
<path d="M1144.35 371.013L1145.53 391.969H1142.7L1142.11 381.339C1142.08 380.589 1142.06 379.844 1142.04 379.103C1142.02 378.353 1142 377.638 1141.99 376.959C1141.99 376.28 1141.99 375.662 1141.99 375.104C1142 374.546 1142.01 374.085 1142.02 373.72L1138.67 388.243H1135.85L1132.26 373.72C1132.28 374.075 1132.29 374.541 1132.3 375.119C1132.32 375.697 1132.33 376.336 1132.33 377.035C1132.34 377.735 1132.34 378.455 1132.33 379.195C1132.32 379.935 1132.31 380.65 1132.29 381.339L1131.79 391.969H1129.02L1130.2 371.013H1134.11L1137.34 385.232L1140.41 371.013H1144.35Z" fill="#1A1C1C"/>
<circle cx="1105.2" cy="503.092" r="36.2122" fill="#F4F6F7" stroke="#232422" stroke-width="1.52072"/>
<path d="M1112.65 492.408L1113.84 513.363H1111.01L1110.41 502.733C1110.38 501.983 1110.36 501.238 1110.34 500.498C1110.32 499.748 1110.3 499.033 1110.29 498.354C1110.29 497.675 1110.29 497.056 1110.29 496.498C1110.3 495.941 1110.31 495.48 1110.32 495.115L1106.98 509.638H1104.15L1100.56 495.115C1100.58 495.469 1100.6 495.936 1100.61 496.514C1100.63 497.092 1100.64 497.73 1100.64 498.43C1100.65 499.129 1100.65 499.849 1100.64 500.589C1100.63 501.329 1100.61 502.044 1100.59 502.733L1100.09 513.363H1097.32L1098.51 492.408H1102.42L1105.64 506.626L1108.71 492.408H1112.65Z" fill="#1A1C1C"/>
<circle cx="923.756" cy="519.818" r="36.2122" fill="#F4F6F7" stroke="#232422" stroke-width="1.52072"/>
<path d="M931.21 509.134L932.396 530.09H929.568L928.975 519.46C928.944 518.71 928.919 517.965 928.899 517.225C928.878 516.474 928.863 515.76 928.853 515.08C928.853 514.401 928.853 513.783 928.853 513.225C928.863 512.667 928.873 512.206 928.883 511.841L925.538 526.364H922.709L919.12 511.841C919.141 512.196 919.156 512.662 919.166 513.24C919.186 513.818 919.196 514.457 919.196 515.156C919.207 515.856 919.207 516.576 919.196 517.316C919.186 518.056 919.171 518.771 919.151 519.46L918.649 530.09H915.881L917.067 509.134H920.976L924.2 523.353L927.271 509.134H931.21Z" fill="#1A1C1C"/>
<circle cx="858.935" cy="735.783" r="36.2122" fill="#F4F6F7" stroke="#232422" stroke-width="1.52072"/>
<path d="M866.388 725.099L867.574 746.055H864.745L864.152 735.425C864.122 734.675 864.097 733.929 864.076 733.189C864.056 732.439 864.041 731.724 864.031 731.045C864.031 730.366 864.031 729.747 864.031 729.19C864.041 728.632 864.051 728.171 864.061 727.806L860.716 742.329H857.887L854.298 727.806C854.318 728.161 854.334 728.627 854.344 729.205C854.364 729.783 854.374 730.422 854.374 731.121C854.384 731.821 854.384 732.541 854.374 733.281C854.364 734.021 854.349 734.735 854.329 735.425L853.827 746.055H851.059L852.245 725.099H856.153L859.377 739.318L862.449 725.099H866.388Z" fill="#1A1C1C"/>
<circle cx="1017.53" cy="629.543" r="36.2122" fill="#F4F6F7" stroke="#232422" stroke-width="1.52072"/>
<path d="M1024.98 618.859L1026.17 639.814H1023.34L1022.75 629.185C1022.72 628.434 1022.69 627.689 1022.67 626.949C1022.65 626.199 1022.63 625.484 1022.62 624.805C1022.62 624.126 1022.62 623.507 1022.62 622.95C1022.63 622.392 1022.64 621.931 1022.65 621.566L1019.31 636.089H1016.48L1012.89 621.566C1012.91 621.921 1012.93 622.387 1012.94 622.965C1012.96 623.543 1012.97 624.181 1012.97 624.881C1012.98 625.581 1012.98 626.3 1012.97 627.04C1012.96 627.78 1012.94 628.495 1012.92 629.185L1012.42 639.814H1009.65L1010.84 618.859H1014.75L1017.97 633.078L1021.04 618.859H1024.98Z" fill="#1A1C1C"/>
<circle cx="1174.04" cy="666.609" r="36.2122" fill="#F4F6F7" stroke="#232422" stroke-width="1.52072"/>
<path d="M1181.49 655.925L1182.68 676.881H1179.85L1179.26 666.251C1179.23 665.501 1179.2 664.756 1179.18 664.016C1179.16 663.265 1179.14 662.551 1179.13 661.871C1179.13 661.192 1179.13 660.574 1179.13 660.016C1179.14 659.458 1179.15 658.997 1179.16 658.632L1175.82 673.155H1172.99L1169.4 658.632C1169.42 658.987 1169.44 659.453 1169.45 660.031C1169.47 660.609 1169.48 661.248 1169.48 661.947C1169.49 662.647 1169.49 663.367 1169.48 664.107C1169.47 664.847 1169.45 665.562 1169.43 666.251L1168.93 676.881H1166.16L1167.35 655.925H1171.26L1174.48 670.144L1177.55 655.925H1181.49Z" fill="#1A1C1C"/>
<circle cx="763.527" cy="998.898" r="36.2122" fill="#F4F6F7" stroke="#232422" stroke-width="1.52072"/>
<path d="M770.98 988.214L772.166 1009.17H769.337L768.744 998.54C768.714 997.79 768.688 997.045 768.668 996.305C768.648 995.554 768.633 994.84 768.623 994.16C768.623 993.481 768.623 992.863 768.623 992.305C768.633 991.748 768.643 991.286 768.653 990.921L765.307 1005.44H762.479L758.89 990.921C758.91 991.276 758.925 991.742 758.936 992.32C758.956 992.898 758.966 993.537 758.966 994.236C758.976 994.936 758.976 995.656 758.966 996.396C758.956 997.136 758.941 997.851 758.92 998.54L758.418 1009.17H755.651L756.837 988.214H760.745L763.969 1002.43L767.041 988.214H770.98Z" fill="#1A1C1C"/>
<circle cx="1059.1" cy="1321.24" r="36.2122" fill="#F4F6F7" stroke="#232422" stroke-width="1.52072"/>
<path d="M1066.55 1310.55L1067.74 1331.51H1064.91L1064.32 1320.88C1064.29 1320.13 1064.26 1319.38 1064.24 1318.64C1064.22 1317.89 1064.2 1317.18 1064.19 1316.5C1064.19 1315.82 1064.19 1315.2 1064.19 1314.64C1064.2 1314.09 1064.22 1313.63 1064.23 1313.26L1060.88 1327.78H1058.05L1054.46 1313.26C1054.48 1313.62 1054.5 1314.08 1054.51 1314.66C1054.53 1315.24 1054.54 1315.88 1054.54 1316.58C1054.55 1317.28 1054.55 1318 1054.54 1318.74C1054.53 1319.48 1054.51 1320.19 1054.49 1320.88L1053.99 1331.51H1051.22L1052.41 1310.55H1056.32L1059.54 1324.77L1062.61 1310.55H1066.55Z" fill="#1A1C1C"/>
<path d="M1206.9 532.781L1254.69 324.563C1255.36 321.625 1257.82 319.435 1260.82 319.107L1493.5 293.63C1496.45 293.308 1499.28 294.853 1500.61 297.504L1618.84 533.959C1619.93 536.137 1619.82 538.721 1618.56 540.802L1502.27 732.333C1500.97 734.471 1498.64 735.766 1496.14 735.74L1337.54 734.053C1335.16 734.027 1332.95 732.805 1331.66 730.8L1207.84 538.196C1206.81 536.592 1206.47 534.64 1206.9 532.781Z" fill="#F8DF05" stroke="#232422" stroke-width="1.77076"/>
<path d="M799.602 1152.68L869.035 819.236C869.667 816.203 872.195 813.933 875.278 813.631L1127.3 788.906L1241.63 788.488C1245.5 788.474 1248.66 791.562 1248.74 795.426L1252.54 980.813C1252.57 982.115 1252.23 983.399 1251.58 984.524L1170.37 1123.93C1169.99 1124.58 1169.51 1125.16 1168.95 1125.66L1084.58 1200.6C1083.3 1201.75 1081.64 1202.38 1079.92 1202.39L914.389 1203.26C913.496 1203.26 912.61 1203.1 911.778 1202.77L803.963 1160.73C800.741 1159.47 798.897 1156.07 799.602 1152.68Z" fill="#F8DF05" stroke="#232422" stroke-width="1.77076"/>
<circle cx="1235.71" cy="1300.99" r="36.2122" fill="#F4F6F7" stroke="#232422" stroke-width="1.52072"/>
<path d="M1243.16 1290.31L1244.35 1311.27H1241.52L1240.93 1300.64C1240.9 1299.89 1240.87 1299.14 1240.85 1298.4C1240.83 1297.65 1240.82 1296.94 1240.81 1296.26C1240.81 1295.58 1240.81 1294.96 1240.81 1294.4C1240.82 1293.84 1240.83 1293.38 1240.84 1293.02L1237.49 1307.54H1234.66L1231.07 1293.02C1231.09 1293.37 1231.11 1293.84 1231.12 1294.42C1231.14 1294.99 1231.15 1295.63 1231.15 1296.33C1231.16 1297.03 1231.16 1297.75 1231.15 1298.49C1231.14 1299.23 1231.12 1299.95 1231.1 1300.64L1230.6 1311.27H1227.83L1229.02 1290.31H1232.93L1236.15 1304.53L1239.22 1290.31H1243.16Z" fill="#1A1C1C"/>
<circle cx="1151.29" cy="1427.23" r="36.2122" fill="#F4F6F7" stroke="#232422" stroke-width="1.52072"/>
<path d="M1158.75 1416.55L1159.93 1437.5H1157.1L1156.51 1426.87C1156.48 1426.12 1156.45 1425.38 1156.43 1424.64C1156.41 1423.89 1156.4 1423.17 1156.39 1422.49C1156.39 1421.81 1156.39 1421.19 1156.39 1420.64C1156.4 1420.08 1156.41 1419.62 1156.42 1419.25L1153.07 1433.78H1150.24L1146.66 1419.25C1146.68 1419.61 1146.69 1420.07 1146.7 1420.65C1146.72 1421.23 1146.73 1421.87 1146.73 1422.57C1146.74 1423.27 1146.74 1423.99 1146.73 1424.73C1146.72 1425.47 1146.71 1426.18 1146.69 1426.87L1146.18 1437.5H1143.42L1144.6 1416.55H1148.51L1151.73 1430.77L1154.81 1416.55H1158.75Z" fill="#1A1C1C"/>
<circle cx="1316.15" cy="1427.23" r="36.2122" fill="#F4F6F7" stroke="#232422" stroke-width="1.52072"/>
<path d="M1323.6 1416.55L1324.79 1437.5H1321.96L1321.37 1426.87C1321.34 1426.12 1321.31 1425.38 1321.29 1424.64C1321.27 1423.89 1321.26 1423.17 1321.25 1422.49C1321.25 1421.81 1321.25 1421.19 1321.25 1420.64C1321.26 1420.08 1321.27 1419.62 1321.28 1419.25L1317.93 1433.78H1315.1L1311.51 1419.25C1311.54 1419.61 1311.55 1420.07 1311.56 1420.65C1311.58 1421.23 1311.59 1421.87 1311.59 1422.57C1311.6 1423.27 1311.6 1423.99 1311.59 1424.73C1311.58 1425.47 1311.57 1426.18 1311.55 1426.87L1311.04 1437.5H1308.28L1309.46 1416.55H1313.37L1316.59 1430.77L1319.67 1416.55H1323.6Z" fill="#1A1C1C"/>
<path d="M1669 643.198L2000.41 602.093C2005.29 601.487 2009.29 605.924 2008.18 610.718L1953.87 845.511C1953.28 848.052 1951.35 850.064 1948.83 850.749L1794.37 892.798C1793.82 892.946 1793.26 893.028 1792.7 893.044L1606.44 898.147C1602.64 898.251 1599.44 895.348 1599.18 891.563L1584.93 688.832C1584.73 685.954 1586.3 683.241 1588.89 681.973L1666.76 643.865C1667.47 643.52 1668.22 643.295 1669 643.198Z" fill="#F8DF05" stroke="#232422" stroke-width="1.77076"/>
<circle cx="1364.54" cy="1286.98" r="36.2122" fill="#F4F6F7" stroke="#232422" stroke-width="1.52072"/>
<path d="M1371.99 1276.29L1373.18 1297.25H1370.35L1369.76 1286.62C1369.73 1285.87 1369.7 1285.12 1369.68 1284.38C1369.66 1283.63 1369.65 1282.92 1369.64 1282.24C1369.64 1281.56 1369.64 1280.94 1369.64 1280.38C1369.65 1279.83 1369.66 1279.36 1369.67 1279L1366.32 1293.52H1363.49L1359.9 1279C1359.92 1279.35 1359.94 1279.82 1359.95 1280.4C1359.97 1280.98 1359.98 1281.62 1359.98 1282.31C1359.99 1283.01 1359.99 1283.73 1359.98 1284.47C1359.97 1285.21 1359.95 1285.93 1359.93 1286.62L1359.43 1297.25H1356.66L1357.85 1276.29H1361.76L1364.98 1290.51L1368.05 1276.29H1371.99Z" fill="#1A1C1C"/>
<circle cx="1137.07" cy="1063.01" r="36.2122" fill="#F4F6F7" stroke="#232422" stroke-width="1.52072"/>
<path d="M1144.52 1052.33L1145.7 1073.28H1142.88L1142.28 1062.65C1142.25 1061.9 1142.23 1061.16 1142.21 1060.42C1142.19 1059.67 1142.17 1058.95 1142.16 1058.27C1142.16 1057.59 1142.16 1056.98 1142.16 1056.42C1142.17 1055.86 1142.18 1055.4 1142.19 1055.03L1138.85 1069.56H1136.02L1132.43 1055.03C1132.45 1055.39 1132.46 1055.86 1132.47 1056.43C1132.49 1057.01 1132.51 1057.65 1132.51 1058.35C1132.52 1059.05 1132.52 1059.77 1132.51 1060.51C1132.49 1061.25 1132.48 1061.96 1132.46 1062.65L1131.96 1073.28H1129.19L1130.38 1052.33H1134.28L1137.51 1066.55L1140.58 1052.33H1144.52Z" fill="#1A1C1C"/>
<circle cx="1017.53" cy="1146.97" r="36.2122" fill="#F4F6F7" stroke="#232422" stroke-width="1.52072"/>
<path d="M1024.98 1136.29L1026.17 1157.25H1023.34L1022.75 1146.62C1022.72 1145.87 1022.69 1145.12 1022.67 1144.38C1022.65 1143.63 1022.63 1142.92 1022.62 1142.24C1022.62 1141.56 1022.62 1140.94 1022.62 1140.38C1022.63 1139.82 1022.64 1139.36 1022.65 1139L1019.31 1153.52H1016.48L1012.89 1139C1012.91 1139.35 1012.93 1139.82 1012.94 1140.4C1012.96 1140.97 1012.97 1141.61 1012.97 1142.31C1012.98 1143.01 1012.98 1143.73 1012.97 1144.47C1012.96 1145.21 1012.94 1145.93 1012.92 1146.62L1012.42 1157.25H1009.65L1010.84 1136.29H1014.75L1017.97 1150.51L1021.04 1136.29H1024.98Z" fill="#1A1C1C"/>
<circle cx="868.402" cy="1110.1" r="36.2122" fill="#F4F6F7" stroke="#232422" stroke-width="1.52072"/>
<path d="M875.855 1099.41L877.041 1120.37H874.212L873.619 1109.74C873.589 1108.99 873.563 1108.24 873.543 1107.5C873.523 1106.75 873.508 1106.04 873.498 1105.36C873.498 1104.68 873.498 1104.06 873.498 1103.5C873.508 1102.95 873.518 1102.49 873.528 1102.12L870.182 1116.64H867.354L863.765 1102.12C863.785 1102.48 863.8 1102.94 863.811 1103.52C863.831 1104.1 863.841 1104.74 863.841 1105.44C863.851 1106.14 863.851 1106.85 863.841 1107.6C863.831 1108.34 863.816 1109.05 863.795 1109.74L863.293 1120.37H860.526L861.712 1099.41H865.62L868.844 1113.63L871.916 1099.41H875.855Z" fill="#1A1C1C"/>
<circle cx="938.328" cy="989.066" r="36.2122" fill="#F4F6F7" stroke="#232422" stroke-width="1.52072"/>
<path d="M945.78 978.382L946.967 999.338H944.138L943.545 988.708C943.515 987.958 943.489 987.213 943.469 986.473C943.449 985.722 943.433 985.008 943.423 984.328C943.423 983.649 943.423 983.031 943.423 982.473C943.433 981.915 943.444 981.454 943.454 981.089L940.108 995.612H937.28L933.691 981.089C933.711 981.444 933.726 981.91 933.736 982.488C933.757 983.066 933.767 983.705 933.767 984.404C933.777 985.104 933.777 985.824 933.767 986.564C933.757 987.304 933.741 988.019 933.721 988.708L933.219 999.338H930.452L931.638 978.382H935.546L938.77 992.601L941.842 978.382H945.78Z" fill="#1A1C1C"/>
<circle cx="980.557" cy="863.982" r="36.2122" fill="#F4F6F7" stroke="#232422" stroke-width="1.52072"/>
<path d="M988.009 853.298L989.195 874.254H986.367L985.773 863.624C985.743 862.874 985.718 862.129 985.697 861.389C985.677 860.638 985.662 859.924 985.652 859.244C985.652 858.565 985.652 857.947 985.652 857.389C985.662 856.832 985.672 856.37 985.682 856.005L982.337 870.528H979.508L975.919 856.005C975.939 856.36 975.955 856.826 975.965 857.404C975.985 857.982 975.995 858.621 975.995 859.32C976.005 860.02 976.005 860.74 975.995 861.48C975.985 862.22 975.97 862.935 975.95 863.624L975.448 874.254H972.68L973.866 853.298H977.774L980.998 867.517L984.07 853.298H988.009Z" fill="#1A1C1C"/>
<circle cx="956.736" cy="322.746" r="36.2122" fill="#F4F6F7" stroke="#232422" stroke-width="1.52072"/>
<path d="M964.189 312.062L965.375 333.018H962.546L961.953 322.388C961.923 321.638 961.897 320.892 961.877 320.152C961.857 319.402 961.842 318.687 961.832 318.008C961.832 317.329 961.832 316.71 961.832 316.153C961.842 315.595 961.852 315.134 961.862 314.769L958.516 329.292H955.688L952.099 314.769C952.119 315.124 952.134 315.59 952.145 316.168C952.165 316.746 952.175 317.385 952.175 318.084C952.185 318.784 952.185 319.503 952.175 320.244C952.165 320.984 952.15 321.698 952.129 322.388L951.627 333.018H948.86L950.046 312.062H953.954L957.178 326.281L960.25 312.062H964.189Z" fill="#1A1C1C"/>
<circle cx="1556.56" cy="530.418" r="36.2122" fill="#F4F6F7" stroke="#232422" stroke-width="1.52072"/>
<path d="M1564.01 519.734L1565.2 540.689H1562.37L1561.78 530.06C1561.75 529.309 1561.72 528.564 1561.7 527.824C1561.68 527.074 1561.67 526.359 1561.66 525.68C1561.66 525.001 1561.66 524.382 1561.66 523.825C1561.67 523.267 1561.68 522.806 1561.69 522.441L1558.34 536.964H1555.51L1551.92 522.441C1551.94 522.796 1551.96 523.262 1551.97 523.84C1551.99 524.418 1552 525.056 1552 525.756C1552.01 526.456 1552.01 527.175 1552 527.915C1551.99 528.655 1551.97 529.37 1551.95 530.06L1551.45 540.689H1548.68L1549.87 519.734H1553.78L1557 533.953L1560.07 519.734H1564.01Z" fill="#1A1C1C"/>
<circle cx="1401.51" cy="503.092" r="36.2122" fill="#F4F6F7" stroke="#232422" stroke-width="1.52072"/>
<path d="M1408.97 492.408L1410.15 513.363H1407.33L1406.73 502.733C1406.7 501.983 1406.68 501.238 1406.66 500.498C1406.64 499.748 1406.62 499.033 1406.61 498.354C1406.61 497.675 1406.61 497.056 1406.61 496.498C1406.62 495.941 1406.63 495.48 1406.64 495.115L1403.3 509.638H1400.47L1396.88 495.115C1396.9 495.469 1396.91 495.936 1396.92 496.514C1396.94 497.092 1396.95 497.73 1396.95 498.43C1396.96 499.129 1396.96 499.849 1396.95 500.589C1396.94 501.329 1396.93 502.044 1396.91 502.733L1396.41 513.363H1393.64L1394.83 492.408H1398.73L1401.96 506.626L1405.03 492.408H1408.97Z" fill="#1A1C1C"/>
<circle cx="1279.18" cy="540.062" r="36.2122" fill="#F4F6F7" stroke="#232422" stroke-width="1.52072"/>
<path d="M1286.63 529.378L1287.82 550.334H1284.99L1284.4 539.704C1284.37 538.954 1284.34 538.209 1284.32 537.469C1284.3 536.718 1284.29 536.004 1284.28 535.324C1284.28 534.645 1284.28 534.027 1284.28 533.469C1284.29 532.912 1284.3 532.45 1284.31 532.085L1280.96 546.608H1278.13L1274.54 532.085C1274.56 532.44 1274.58 532.907 1274.59 533.484C1274.61 534.062 1274.62 534.701 1274.62 535.401C1274.63 536.1 1274.63 536.82 1274.62 537.56C1274.61 538.3 1274.59 539.015 1274.57 539.704L1274.07 550.334H1271.31L1272.49 529.378H1276.4L1279.62 543.597L1282.7 529.378H1286.63Z" fill="#1A1C1C"/>
<circle cx="1306.68" cy="396.691" r="36.2122" fill="#F4F6F7" stroke="#232422" stroke-width="1.52072"/>
<path d="M1314.14 386.007L1315.32 406.963H1312.5L1311.9 396.333C1311.87 395.583 1311.85 394.838 1311.83 394.098C1311.81 393.347 1311.79 392.633 1311.78 391.953C1311.78 391.274 1311.78 390.656 1311.78 390.098C1311.79 389.54 1311.8 389.079 1311.81 388.714L1308.47 403.237H1305.64L1302.05 388.714C1302.07 389.069 1302.08 389.535 1302.09 390.113C1302.11 390.691 1302.12 391.33 1302.12 392.029C1302.13 392.729 1302.13 393.449 1302.12 394.189C1302.11 394.929 1302.1 395.644 1302.08 396.333L1301.58 406.963H1298.81L1300 386.007H1303.9L1307.13 400.226L1310.2 386.007H1314.14Z" fill="#1A1C1C"/>
<circle cx="1475.46" cy="369.646" r="36.2122" fill="#F4F6F7" stroke="#232422" stroke-width="1.52072"/>
<path d="M1482.91 358.962L1484.1 379.918H1481.27L1480.68 369.288C1480.65 368.538 1480.62 367.793 1480.6 367.053C1480.58 366.302 1480.56 365.588 1480.55 364.908C1480.55 364.229 1480.55 363.611 1480.55 363.053C1480.56 362.496 1480.57 362.034 1480.58 361.669L1477.24 376.192H1474.41L1470.82 361.669C1470.84 362.024 1470.86 362.491 1470.87 363.068C1470.89 363.646 1470.9 364.285 1470.9 364.984C1470.91 365.684 1470.91 366.404 1470.9 367.144C1470.89 367.884 1470.87 368.599 1470.85 369.288L1470.35 379.918H1467.58L1468.77 358.962H1472.68L1475.9 373.181L1478.97 358.962H1482.91Z" fill="#1A1C1C"/>
<rect x="1334.52" y="661.714" width="154.545" height="43.6263" rx="2.65613" fill="#232422" stroke="#1A1C1C" stroke-width="1.77076"/>
<path d="M1357.92 674.68C1358.97 674.68 1359.85 674.814 1360.57 675.083C1361.29 675.351 1361.96 675.742 1362.59 676.257L1361.36 677.707C1360.87 677.3 1360.35 677.005 1359.8 676.821C1359.25 676.629 1358.67 676.533 1358.06 676.533C1357.23 676.533 1356.46 676.736 1355.75 677.143C1355.04 677.55 1354.47 678.217 1354.04 679.146C1353.61 680.074 1353.4 681.321 1353.4 682.886C1353.4 684.413 1353.6 685.641 1354.01 686.569C1354.42 687.49 1354.98 688.162 1355.68 688.584C1356.38 688.998 1357.17 689.205 1358.04 689.205C1358.91 689.205 1359.63 689.071 1360.19 688.802C1360.76 688.526 1361.25 688.212 1361.68 687.859L1362.82 689.32C1362.33 689.804 1361.68 690.226 1360.88 690.586C1360.09 690.939 1359.12 691.116 1357.98 691.116C1356.67 691.116 1355.48 690.801 1354.43 690.172C1353.38 689.543 1352.55 688.618 1351.94 687.398C1351.33 686.17 1351.03 684.666 1351.03 682.886C1351.03 681.106 1351.34 679.606 1351.96 678.386C1352.59 677.166 1353.42 676.245 1354.47 675.624C1355.52 674.994 1356.67 674.68 1357.92 674.68ZM1370.41 678.409C1371.57 678.409 1372.54 678.67 1373.32 679.192C1374.11 679.713 1374.71 680.45 1375.11 681.402C1375.51 682.345 1375.72 683.462 1375.72 684.751C1375.72 686.002 1375.51 687.107 1375.1 688.066C1374.69 689.017 1374.09 689.765 1373.3 690.31C1372.51 690.847 1371.54 691.116 1370.39 691.116C1369.24 691.116 1368.26 690.855 1367.47 690.333C1366.67 689.811 1366.08 689.075 1365.67 688.123C1365.26 687.172 1365.06 686.055 1365.06 684.774C1365.06 683.515 1365.26 682.411 1365.67 681.459C1366.08 680.5 1366.69 679.752 1367.49 679.215C1368.29 678.677 1369.26 678.409 1370.41 678.409ZM1370.41 680.17C1369.41 680.17 1368.66 680.546 1368.16 681.298C1367.65 682.042 1367.4 683.201 1367.4 684.774C1367.4 686.332 1367.65 687.486 1368.14 688.238C1368.64 688.983 1369.39 689.355 1370.39 689.355C1371.39 689.355 1372.13 688.983 1372.63 688.238C1373.13 687.486 1373.38 686.324 1373.38 684.751C1373.38 683.186 1373.13 682.031 1372.63 681.286C1372.14 680.542 1371.4 680.17 1370.41 680.17ZM1387.64 678.409C1388.07 678.409 1388.46 678.501 1388.82 678.685C1389.18 678.869 1389.47 679.207 1389.69 679.698C1389.92 680.181 1390.03 680.884 1390.03 681.804V690.828H1388.01V682.127C1388.01 681.421 1387.97 680.914 1387.87 680.607C1387.79 680.293 1387.54 680.135 1387.14 680.135C1386.8 680.135 1386.47 680.239 1386.14 680.446C1385.81 680.653 1385.48 680.999 1385.16 681.482V690.828H1383.22V682.127C1383.22 681.421 1383.18 680.914 1383.09 680.607C1383 680.293 1382.76 680.135 1382.35 680.135C1382 680.135 1381.67 680.239 1381.34 680.446C1381.01 680.653 1380.69 680.999 1380.37 681.482V690.828H1378.36V678.697H1380.06L1380.2 680.055C1380.54 679.579 1380.91 679.188 1381.31 678.881C1381.73 678.566 1382.23 678.409 1382.82 678.409C1383.28 678.409 1383.71 678.52 1384.1 678.743C1384.5 678.965 1384.79 679.38 1384.97 679.986C1385.3 679.518 1385.68 679.138 1386.1 678.846C1386.52 678.555 1387.04 678.409 1387.64 678.409ZM1398.93 678.409C1400 678.409 1400.86 678.674 1401.5 679.203C1402.15 679.725 1402.61 680.462 1402.9 681.413C1403.18 682.357 1403.32 683.469 1403.32 684.751C1403.32 685.979 1403.15 687.072 1402.81 688.031C1402.46 688.99 1401.94 689.746 1401.25 690.299C1400.56 690.843 1399.69 691.116 1398.65 691.116C1397.34 691.116 1396.29 690.655 1395.5 689.735V695.478L1393.29 695.743V678.697H1395.19L1395.35 680.331C1395.8 679.71 1396.33 679.234 1396.95 678.904C1397.56 678.574 1398.22 678.409 1398.93 678.409ZM1398.36 680.147C1397.73 680.147 1397.18 680.339 1396.69 680.722C1396.21 681.098 1395.81 681.528 1395.5 682.012V687.882C1395.8 688.334 1396.18 688.691 1396.62 688.952C1397.07 689.205 1397.56 689.332 1398.11 689.332C1399.06 689.332 1399.78 688.964 1400.26 688.227C1400.75 687.483 1400.99 686.324 1400.99 684.751C1400.99 683.7 1400.89 682.836 1400.7 682.161C1400.51 681.478 1400.22 680.972 1399.82 680.642C1399.44 680.312 1398.95 680.147 1398.36 680.147ZM1409.3 678.697V687.237C1409.3 688.004 1409.46 688.557 1409.77 688.894C1410.09 689.224 1410.57 689.389 1411.21 689.389C1411.83 689.389 1412.42 689.209 1412.98 688.848C1413.54 688.488 1413.98 688.058 1414.3 687.559V678.697H1416.5V690.828H1414.61L1414.44 689.228C1413.98 689.834 1413.4 690.303 1412.71 690.632C1412.01 690.955 1411.3 691.116 1410.59 691.116C1409.41 691.116 1408.54 690.797 1407.95 690.161C1407.38 689.524 1407.09 688.641 1407.09 687.513V678.697H1409.3ZM1430.75 690.207C1430.32 690.483 1429.8 690.702 1429.19 690.863C1428.59 691.031 1427.98 691.116 1427.37 691.116C1426.02 691.116 1424.99 690.763 1424.27 690.057C1423.55 689.351 1423.19 688.434 1423.19 687.306V680.354H1420.44V678.697H1423.19V675.957L1425.4 675.693V678.697H1429.55L1429.29 680.354H1425.4V687.283C1425.4 687.951 1425.57 688.453 1425.91 688.791C1426.26 689.128 1426.83 689.297 1427.63 689.297C1428.08 689.297 1428.49 689.244 1428.87 689.136C1429.25 689.029 1429.59 688.891 1429.92 688.722L1430.75 690.207ZM1436.48 685.511C1436.53 686.401 1436.71 687.13 1437.02 687.697C1437.34 688.258 1437.75 688.672 1438.25 688.94C1438.76 689.201 1439.32 689.332 1439.93 689.332C1440.54 689.332 1441.1 689.24 1441.6 689.056C1442.11 688.871 1442.62 688.603 1443.14 688.25L1444.15 689.643C1443.58 690.095 1442.92 690.456 1442.18 690.725C1441.43 690.985 1440.66 691.116 1439.86 691.116C1438.65 691.116 1437.62 690.851 1436.77 690.322C1435.92 689.785 1435.28 689.04 1434.83 688.089C1434.4 687.137 1434.18 686.032 1434.18 684.774C1434.18 683.554 1434.4 682.464 1434.83 681.505C1435.28 680.546 1435.9 679.79 1436.71 679.238C1437.52 678.685 1438.47 678.409 1439.59 678.409C1440.63 678.409 1441.53 678.651 1442.28 679.134C1443.04 679.617 1443.62 680.308 1444.03 681.206C1444.44 682.096 1444.64 683.163 1444.64 684.406C1444.64 684.613 1444.64 684.812 1444.63 685.004C1444.62 685.196 1444.61 685.365 1444.59 685.511H1436.48ZM1439.61 680.135C1438.75 680.135 1438.03 680.442 1437.46 681.056C1436.89 681.67 1436.56 682.618 1436.48 683.899H1442.51C1442.49 682.671 1442.22 681.739 1441.71 681.102C1441.2 680.458 1440.5 680.135 1439.61 680.135ZM1466.33 674.68C1467.37 674.68 1468.25 674.875 1468.98 675.267C1469.71 675.658 1470.26 676.191 1470.65 676.867C1471.03 677.542 1471.22 678.298 1471.22 679.134C1471.22 679.848 1471.1 680.546 1470.85 681.229C1470.61 681.912 1470.21 682.629 1469.66 683.381C1469.11 684.126 1468.39 684.954 1467.5 685.867C1466.61 686.78 1465.52 687.824 1464.24 688.998H1471.59L1471.33 690.828H1461.71V689.09C1462.88 687.97 1463.88 686.988 1464.71 686.144C1465.54 685.292 1466.23 684.544 1466.78 683.899C1467.32 683.255 1467.75 682.675 1468.07 682.161C1468.38 681.639 1468.6 681.148 1468.72 680.688C1468.85 680.22 1468.92 679.736 1468.92 679.238C1468.92 678.386 1468.68 677.714 1468.19 677.223C1467.72 676.732 1467.06 676.487 1466.2 676.487C1465.44 676.487 1464.82 676.621 1464.33 676.89C1463.84 677.151 1463.36 677.576 1462.87 678.167L1461.39 677.028C1462.01 676.253 1462.72 675.67 1463.5 675.278C1464.28 674.879 1465.22 674.68 1466.33 674.68Z" fill="white"/>
<path d="M1232.31 1108.85L1324.95 971.607C1326.21 969.739 1328.28 968.583 1330.53 968.492L1458.87 963.324L1615.84 971.173C1617.4 971.25 1618.88 971.84 1620.07 972.849L1713.93 1052.59C1716.47 1054.75 1717.16 1058.39 1715.59 1061.33L1600.65 1275.99C1599.04 1279 1595.52 1280.43 1592.27 1279.4L1389.83 1215.34C1388.66 1214.97 1387.41 1214.91 1386.21 1215.17L1286.82 1236.59C1285.84 1236.8 1284.83 1236.8 1283.85 1236.59L1225.2 1224.08C1221.64 1223.32 1219.24 1219.99 1219.64 1216.37L1231.14 1112.03C1231.27 1110.89 1231.67 1109.8 1232.31 1108.85Z" fill="#F8DF05" stroke="#232422" stroke-width="1.77076"/>
<rect x="1080.28" y="821.665" width="154.545" height="43.6263" rx="2.65613" fill="#232422" stroke="#1A1C1C" stroke-width="1.77076"/>
<path d="M1103.68 834.631C1104.73 834.631 1105.61 834.765 1106.33 835.034C1107.05 835.302 1107.72 835.694 1108.35 836.208L1107.12 837.658C1106.63 837.251 1106.11 836.956 1105.56 836.772C1105.01 836.58 1104.43 836.484 1103.82 836.484C1102.99 836.484 1102.22 836.687 1101.51 837.094C1100.8 837.501 1100.23 838.168 1099.8 839.097C1099.37 840.025 1099.16 841.272 1099.16 842.837C1099.16 844.364 1099.36 845.592 1099.77 846.521C1100.18 847.441 1100.74 848.113 1101.44 848.535C1102.14 848.949 1102.93 849.156 1103.8 849.156C1104.67 849.156 1105.39 849.022 1105.95 848.754C1106.52 848.477 1107.01 848.163 1107.44 847.81L1108.58 849.271C1108.09 849.755 1107.44 850.177 1106.64 850.538C1105.85 850.891 1104.88 851.067 1103.74 851.067C1102.43 851.067 1101.24 850.752 1100.19 850.123C1099.14 849.494 1098.31 848.569 1097.7 847.349C1097.09 846.122 1096.79 844.618 1096.79 842.837C1096.79 841.057 1097.1 839.557 1097.72 838.337C1098.35 837.117 1099.18 836.196 1100.23 835.575C1101.28 834.945 1102.43 834.631 1103.68 834.631ZM1116.17 838.36C1117.33 838.36 1118.3 838.621 1119.08 839.143C1119.87 839.665 1120.47 840.401 1120.87 841.353C1121.27 842.296 1121.48 843.413 1121.48 844.702C1121.48 845.953 1121.27 847.058 1120.86 848.017C1120.45 848.968 1119.85 849.717 1119.06 850.261C1118.27 850.798 1117.3 851.067 1116.15 851.067C1115 851.067 1114.02 850.806 1113.22 850.284C1112.43 849.763 1111.84 849.026 1111.43 848.074C1111.02 847.123 1110.82 846.007 1110.82 844.725C1110.82 843.467 1111.02 842.362 1111.43 841.41C1111.84 840.451 1112.45 839.703 1113.25 839.166C1114.05 838.629 1115.02 838.36 1116.17 838.36ZM1116.17 840.121C1115.17 840.121 1114.42 840.497 1113.92 841.249C1113.41 841.993 1113.16 843.152 1113.16 844.725C1113.16 846.283 1113.41 847.438 1113.9 848.19C1114.4 848.934 1115.15 849.306 1116.15 849.306C1117.15 849.306 1117.89 848.934 1118.39 848.19C1118.89 847.438 1119.14 846.275 1119.14 844.702C1119.14 843.137 1118.89 841.982 1118.39 841.238C1117.9 840.493 1117.16 840.121 1116.17 840.121ZM1133.4 838.36C1133.83 838.36 1134.22 838.452 1134.58 838.636C1134.94 838.82 1135.23 839.158 1135.45 839.649C1135.68 840.133 1135.79 840.835 1135.79 841.756V850.779H1133.77V842.078C1133.77 841.372 1133.73 840.865 1133.63 840.558C1133.55 840.244 1133.3 840.087 1132.9 840.087C1132.56 840.087 1132.23 840.19 1131.9 840.397C1131.57 840.605 1131.24 840.95 1130.92 841.433V850.779H1128.98V842.078C1128.98 841.372 1128.94 840.865 1128.85 840.558C1128.76 840.244 1128.52 840.087 1128.11 840.087C1127.76 840.087 1127.43 840.19 1127.1 840.397C1126.77 840.605 1126.45 840.95 1126.13 841.433V850.779H1124.12V838.648H1125.82L1125.96 840.006C1126.3 839.53 1126.67 839.139 1127.07 838.832C1127.49 838.517 1127.99 838.36 1128.58 838.36C1129.04 838.36 1129.47 838.471 1129.86 838.694C1130.26 838.916 1130.55 839.331 1130.73 839.937C1131.06 839.469 1131.44 839.089 1131.86 838.797C1132.28 838.506 1132.8 838.36 1133.4 838.36ZM1144.69 838.36C1145.76 838.36 1146.62 838.625 1147.26 839.154C1147.91 839.676 1148.37 840.413 1148.66 841.364C1148.94 842.308 1149.08 843.421 1149.08 844.702C1149.08 845.93 1148.91 847.023 1148.57 847.982C1148.22 848.942 1147.7 849.697 1147.01 850.25C1146.32 850.795 1145.45 851.067 1144.41 851.067C1143.1 851.067 1142.05 850.607 1141.26 849.686V855.429L1139.05 855.694V838.648H1140.95L1141.11 840.282C1141.56 839.661 1142.09 839.185 1142.71 838.855C1143.32 838.525 1143.98 838.36 1144.69 838.36ZM1144.12 840.098C1143.49 840.098 1142.94 840.29 1142.45 840.674C1141.97 841.05 1141.57 841.479 1141.26 841.963V847.833C1141.56 848.285 1141.94 848.642 1142.38 848.903C1142.83 849.156 1143.32 849.283 1143.87 849.283C1144.82 849.283 1145.54 848.915 1146.02 848.178C1146.51 847.434 1146.75 846.275 1146.75 844.702C1146.75 843.651 1146.65 842.788 1146.46 842.112C1146.27 841.429 1145.98 840.923 1145.58 840.593C1145.2 840.263 1144.71 840.098 1144.12 840.098ZM1155.06 838.648V847.188C1155.06 847.956 1155.22 848.508 1155.53 848.846C1155.85 849.176 1156.33 849.341 1156.97 849.341C1157.59 849.341 1158.18 849.16 1158.74 848.8C1159.3 848.439 1159.74 848.009 1160.05 847.51V838.648H1162.26V850.779H1160.37L1160.2 849.179C1159.74 849.786 1159.16 850.254 1158.47 850.584C1157.77 850.906 1157.06 851.067 1156.35 851.067C1155.17 851.067 1154.3 850.749 1153.71 850.112C1153.14 849.475 1152.85 848.592 1152.85 847.464V838.648H1155.06ZM1176.5 850.158C1176.08 850.434 1175.56 850.653 1174.95 850.814C1174.34 850.983 1173.74 851.067 1173.13 851.067C1171.78 851.067 1170.75 850.714 1170.02 850.008C1169.31 849.302 1168.95 848.385 1168.95 847.257V840.305H1166.2V838.648H1168.95V835.908L1171.16 835.644V838.648H1175.31L1175.05 840.305H1171.16V847.234C1171.16 847.902 1171.33 848.404 1171.67 848.742C1172.02 849.08 1172.59 849.248 1173.39 849.248C1173.84 849.248 1174.25 849.195 1174.63 849.087C1175 848.98 1175.35 848.842 1175.68 848.673L1176.5 850.158ZM1182.24 845.462C1182.29 846.352 1182.47 847.081 1182.78 847.649C1183.09 848.209 1183.51 848.623 1184.01 848.892C1184.52 849.153 1185.08 849.283 1185.69 849.283C1186.3 849.283 1186.85 849.191 1187.36 849.007C1187.87 848.823 1188.38 848.554 1188.9 848.201L1189.91 849.594C1189.34 850.046 1188.68 850.407 1187.94 850.676C1187.19 850.937 1186.42 851.067 1185.62 851.067C1184.41 851.067 1183.38 850.802 1182.53 850.273C1181.68 849.736 1181.04 848.991 1180.59 848.04C1180.16 847.088 1179.94 845.983 1179.94 844.725C1179.94 843.505 1180.16 842.415 1180.59 841.456C1181.04 840.497 1181.66 839.741 1182.47 839.189C1183.28 838.636 1184.23 838.36 1185.35 838.36C1186.39 838.36 1187.29 838.602 1188.04 839.085C1188.8 839.569 1189.38 840.259 1189.79 841.157C1190.2 842.047 1190.4 843.114 1190.4 844.357C1190.4 844.564 1190.4 844.763 1190.39 844.955C1190.38 845.147 1190.37 845.316 1190.35 845.462H1182.24ZM1185.37 840.087C1184.51 840.087 1183.79 840.394 1183.22 841.007C1182.65 841.621 1182.32 842.569 1182.24 843.85H1188.27C1188.25 842.623 1187.98 841.69 1187.46 841.053C1186.96 840.409 1186.26 840.087 1185.37 840.087ZM1214.64 834.919V850.319H1212.45V837.244L1208.87 839.431L1207.91 837.865L1212.7 834.919H1214.64ZM1217.9 849.007V850.779H1208.56V849.007H1217.9Z" fill="white"/>
<circle cx="1282.15" cy="1173.54" r="36.2122" fill="#F4F6F7" stroke="#232422" stroke-width="1.52072"/>
<path d="M1289.6 1162.85L1290.79 1183.81H1287.96L1287.37 1173.18C1287.34 1172.43 1287.31 1171.68 1287.29 1170.94C1287.27 1170.19 1287.26 1169.48 1287.25 1168.8C1287.25 1168.12 1287.25 1167.5 1287.25 1166.94C1287.26 1166.39 1287.27 1165.92 1287.28 1165.56L1283.93 1180.08H1281.1L1277.51 1165.56C1277.54 1165.91 1277.55 1166.38 1277.56 1166.96C1277.58 1167.54 1277.59 1168.18 1277.59 1168.88C1277.6 1169.57 1277.6 1170.29 1277.59 1171.03C1277.58 1171.77 1277.57 1172.49 1277.55 1173.18L1277.04 1183.81H1274.28L1275.46 1162.85H1279.37L1282.59 1177.07L1285.67 1162.85H1289.6Z" fill="#1A1C1C"/>
<circle cx="1452.98" cy="1163.7" r="36.2122" fill="#F4F6F7" stroke="#232422" stroke-width="1.52072"/>
<path d="M1460.43 1153.02L1461.62 1173.97H1458.79L1458.2 1163.34C1458.17 1162.59 1458.14 1161.85 1458.12 1161.11C1458.1 1160.36 1458.09 1159.64 1458.08 1158.97C1458.08 1158.29 1458.08 1157.67 1458.08 1157.11C1458.09 1156.55 1458.1 1156.09 1458.11 1155.73L1454.76 1170.25H1451.93L1448.34 1155.73C1448.36 1156.08 1448.38 1156.55 1448.39 1157.13C1448.41 1157.7 1448.42 1158.34 1448.42 1159.04C1448.43 1159.74 1448.43 1160.46 1448.42 1161.2C1448.41 1161.94 1448.39 1162.66 1448.37 1163.34L1447.87 1173.97H1445.1L1446.29 1153.02H1450.2L1453.42 1167.24L1456.49 1153.02H1460.43Z" fill="#1A1C1C"/>
<circle cx="1583.9" cy="1193.78" r="36.2122" fill="#F4F6F7" stroke="#232422" stroke-width="1.52072"/>
<path d="M1591.35 1183.1L1592.54 1204.05H1589.71L1589.12 1193.42C1589.08 1192.67 1589.06 1191.93 1589.04 1191.19C1589.02 1190.44 1589 1189.72 1588.99 1189.04C1588.99 1188.36 1588.99 1187.75 1588.99 1187.19C1589 1186.63 1589.01 1186.17 1589.02 1185.8L1585.68 1200.33H1582.85L1579.26 1185.8C1579.28 1186.16 1579.3 1186.63 1579.31 1187.2C1579.33 1187.78 1579.34 1188.42 1579.34 1189.12C1579.35 1189.82 1579.35 1190.54 1579.34 1191.28C1579.33 1192.02 1579.31 1192.73 1579.29 1193.42L1578.79 1204.05H1576.02L1577.21 1183.1H1581.12L1584.34 1197.32L1587.41 1183.1H1591.35Z" fill="#1A1C1C"/>
<circle cx="1638.55" cy="1071.44" r="36.2122" fill="#F4F6F7" stroke="#232422" stroke-width="1.52072"/>
<path d="M1646.01 1060.75L1647.19 1081.71H1644.36L1643.77 1071.08C1643.74 1070.33 1643.71 1069.58 1643.69 1068.84C1643.67 1068.09 1643.66 1067.38 1643.65 1066.7C1643.65 1066.02 1643.65 1065.4 1643.65 1064.84C1643.66 1064.28 1643.67 1063.82 1643.68 1063.46L1640.33 1077.98H1637.5L1633.92 1063.46C1633.94 1063.81 1633.95 1064.28 1633.96 1064.86C1633.98 1065.44 1633.99 1066.07 1633.99 1066.77C1634 1067.47 1634 1068.19 1633.99 1068.93C1633.98 1069.67 1633.97 1070.39 1633.95 1071.08L1633.44 1081.71H1630.68L1631.86 1060.75H1635.77L1638.99 1074.97L1642.07 1060.75H1646.01Z" fill="#1A1C1C"/>
<rect x="1337.15" y="989.952" width="154.545" height="43.6263" rx="2.65613" fill="#232422" stroke="#1A1C1C" stroke-width="1.77076"/>
<path d="M1360.55 1002.92C1361.6 1002.92 1362.48 1003.05 1363.19 1003.32C1363.91 1003.59 1364.59 1003.98 1365.22 1004.49L1363.99 1005.95C1363.5 1005.54 1362.97 1005.24 1362.42 1005.06C1361.88 1004.87 1361.3 1004.77 1360.68 1004.77C1359.86 1004.77 1359.08 1004.97 1358.37 1005.38C1357.66 1005.79 1357.1 1006.46 1356.67 1007.38C1356.24 1008.31 1356.02 1009.56 1356.02 1011.12C1356.02 1012.65 1356.23 1013.88 1356.63 1014.81C1357.05 1015.73 1357.6 1016.4 1358.3 1016.82C1359.01 1017.24 1359.79 1017.44 1360.66 1017.44C1361.54 1017.44 1362.25 1017.31 1362.81 1017.04C1363.38 1016.76 1363.88 1016.45 1364.31 1016.1L1365.45 1017.56C1364.95 1018.04 1364.3 1018.46 1363.5 1018.82C1362.71 1019.18 1361.75 1019.35 1360.6 1019.35C1359.29 1019.35 1358.11 1019.04 1357.06 1018.41C1356.01 1017.78 1355.17 1016.86 1354.56 1015.64C1353.95 1014.41 1353.65 1012.9 1353.65 1011.12C1353.65 1009.34 1353.96 1007.84 1354.58 1006.62C1355.21 1005.4 1356.05 1004.48 1357.09 1003.86C1358.14 1003.23 1359.3 1002.92 1360.55 1002.92ZM1373.04 1006.65C1374.2 1006.65 1375.17 1006.91 1375.95 1007.43C1376.74 1007.95 1377.33 1008.69 1377.73 1009.64C1378.14 1010.58 1378.34 1011.7 1378.34 1012.99C1378.34 1014.24 1378.14 1015.34 1377.72 1016.3C1377.31 1017.26 1376.72 1018 1375.93 1018.55C1375.14 1019.09 1374.16 1019.35 1373.01 1019.35C1371.86 1019.35 1370.89 1019.09 1370.09 1018.57C1369.3 1018.05 1368.7 1017.31 1368.29 1016.36C1367.89 1015.41 1367.68 1014.29 1367.68 1013.01C1367.68 1011.75 1367.89 1010.65 1368.29 1009.7C1368.71 1008.74 1369.32 1007.99 1370.11 1007.45C1370.91 1006.92 1371.89 1006.65 1373.04 1006.65ZM1373.04 1008.41C1372.04 1008.41 1371.29 1008.78 1370.78 1009.54C1370.27 1010.28 1370.02 1011.44 1370.02 1013.01C1370.02 1014.57 1370.27 1015.72 1370.77 1016.48C1371.27 1017.22 1372.02 1017.59 1373.01 1017.59C1374.01 1017.59 1374.76 1017.22 1375.26 1016.48C1375.76 1015.72 1376.01 1014.56 1376.01 1012.99C1376.01 1011.42 1375.76 1010.27 1375.26 1009.52C1374.77 1008.78 1374.03 1008.41 1373.04 1008.41ZM1390.27 1006.65C1390.69 1006.65 1391.08 1006.74 1391.44 1006.92C1391.8 1007.11 1392.1 1007.45 1392.32 1007.94C1392.54 1008.42 1392.65 1009.12 1392.65 1010.04V1019.07H1390.64V1010.36C1390.64 1009.66 1390.59 1009.15 1390.5 1008.85C1390.42 1008.53 1390.17 1008.37 1389.76 1008.37C1389.43 1008.37 1389.09 1008.48 1388.76 1008.68C1388.43 1008.89 1388.11 1009.24 1387.78 1009.72V1019.07H1385.85V1010.36C1385.85 1009.66 1385.8 1009.15 1385.71 1008.85C1385.63 1008.53 1385.38 1008.37 1384.97 1008.37C1384.63 1008.37 1384.29 1008.48 1383.96 1008.68C1383.64 1008.89 1383.32 1009.24 1383 1009.72V1019.07H1380.98V1006.93H1382.68L1382.82 1008.29C1383.16 1007.82 1383.53 1007.43 1383.94 1007.12C1384.35 1006.8 1384.86 1006.65 1385.45 1006.65C1385.91 1006.65 1386.33 1006.76 1386.72 1006.98C1387.12 1007.2 1387.42 1007.62 1387.6 1008.22C1387.93 1007.76 1388.31 1007.38 1388.73 1007.08C1389.15 1006.79 1389.66 1006.65 1390.27 1006.65ZM1401.55 1006.65C1402.63 1006.65 1403.49 1006.91 1404.13 1007.44C1404.77 1007.96 1405.24 1008.7 1405.52 1009.65C1405.81 1010.6 1405.95 1011.71 1405.95 1012.99C1405.95 1014.22 1405.78 1015.31 1405.43 1016.27C1405.09 1017.23 1404.57 1017.98 1403.88 1018.54C1403.19 1019.08 1402.32 1019.35 1401.28 1019.35C1399.96 1019.35 1398.91 1018.89 1398.12 1017.97V1023.72L1395.91 1023.98V1006.93H1397.81L1397.97 1008.57C1398.42 1007.95 1398.96 1007.47 1399.57 1007.14C1400.19 1006.81 1400.85 1006.65 1401.55 1006.65ZM1400.99 1008.39C1400.36 1008.39 1399.8 1008.58 1399.32 1008.96C1398.84 1009.34 1398.44 1009.77 1398.12 1010.25V1016.12C1398.43 1016.57 1398.8 1016.93 1399.25 1017.19C1399.69 1017.44 1400.19 1017.57 1400.73 1017.57C1401.69 1017.57 1402.4 1017.2 1402.89 1016.47C1403.37 1015.72 1403.61 1014.56 1403.61 1012.99C1403.61 1011.94 1403.52 1011.07 1403.32 1010.4C1403.13 1009.72 1402.84 1009.21 1402.45 1008.88C1402.07 1008.55 1401.58 1008.39 1400.99 1008.39ZM1411.92 1006.93V1015.48C1411.92 1016.24 1412.08 1016.8 1412.4 1017.13C1412.71 1017.46 1413.19 1017.63 1413.84 1017.63C1414.46 1017.63 1415.05 1017.45 1415.61 1017.09C1416.17 1016.73 1416.61 1016.3 1416.92 1015.8V1006.93H1419.13V1019.07H1417.23L1417.07 1017.47C1416.61 1018.07 1416.03 1018.54 1415.33 1018.87C1414.63 1019.19 1413.93 1019.35 1413.21 1019.35C1412.04 1019.35 1411.16 1019.04 1410.58 1018.4C1410 1017.76 1409.71 1016.88 1409.71 1015.75V1006.93H1411.92ZM1433.37 1018.44C1432.94 1018.72 1432.42 1018.94 1431.82 1019.1C1431.21 1019.27 1430.6 1019.35 1430 1019.35C1428.65 1019.35 1427.61 1019 1426.89 1018.3C1426.18 1017.59 1425.82 1016.67 1425.82 1015.54V1008.59H1423.07V1006.93H1425.82V1004.2L1428.03 1003.93V1006.93H1432.17L1431.92 1008.59H1428.03V1015.52C1428.03 1016.19 1428.2 1016.69 1428.54 1017.03C1428.88 1017.37 1429.45 1017.54 1430.25 1017.54C1430.7 1017.54 1431.12 1017.48 1431.49 1017.37C1431.87 1017.27 1432.22 1017.13 1432.54 1016.96L1433.37 1018.44ZM1439.1 1013.75C1439.15 1014.64 1439.33 1015.37 1439.65 1015.94C1439.96 1016.5 1440.37 1016.91 1440.88 1017.18C1441.38 1017.44 1441.94 1017.57 1442.56 1017.57C1443.16 1017.57 1443.72 1017.48 1444.23 1017.29C1444.73 1017.11 1445.25 1016.84 1445.77 1016.49L1446.77 1017.88C1446.2 1018.33 1445.55 1018.69 1444.8 1018.96C1444.06 1019.22 1443.29 1019.35 1442.49 1019.35C1441.28 1019.35 1440.24 1019.09 1439.39 1018.56C1438.55 1018.02 1437.9 1017.28 1437.46 1016.33C1437.02 1015.38 1436.8 1014.27 1436.8 1013.01C1436.8 1011.79 1437.02 1010.7 1437.46 1009.74C1437.9 1008.78 1438.53 1008.03 1439.33 1007.48C1440.14 1006.92 1441.1 1006.65 1442.21 1006.65C1443.26 1006.65 1444.15 1006.89 1444.91 1007.37C1445.67 1007.86 1446.25 1008.55 1446.66 1009.44C1447.06 1010.33 1447.27 1011.4 1447.27 1012.64C1447.27 1012.85 1447.26 1013.05 1447.25 1013.24C1447.25 1013.43 1447.23 1013.6 1447.22 1013.75H1439.1ZM1442.24 1008.37C1441.38 1008.37 1440.66 1008.68 1440.08 1009.29C1439.52 1009.91 1439.19 1010.86 1439.1 1012.14H1445.14C1445.11 1010.91 1444.84 1009.98 1444.33 1009.34C1443.82 1008.7 1443.13 1008.37 1442.24 1008.37ZM1468.9 1002.92L1470.75 1003.68L1466.61 1013.55H1474.99V1015.29H1464.28V1013.73L1468.9 1002.92ZM1473.01 1009.17V1019.07H1470.88L1470.87 1013.92L1471.16 1009.17H1473.01Z" fill="white"/>
<circle cx="1862.9" cy="794.629" r="36.2122" fill="#F4F6F7" stroke="#232422" stroke-width="1.52072"/>
<path d="M1870.35 783.945L1871.53 804.9H1868.71L1868.11 794.271C1868.08 793.52 1868.06 792.775 1868.04 792.035C1868.02 791.285 1868 790.57 1867.99 789.891C1867.99 789.212 1867.99 788.593 1867.99 788.036C1868 787.478 1868.01 787.017 1868.02 786.652L1864.68 801.175H1861.85L1858.26 786.652C1858.28 787.007 1858.29 787.473 1858.3 788.051C1858.32 788.629 1858.34 789.267 1858.34 789.967C1858.35 790.666 1858.35 791.386 1858.34 792.126C1858.32 792.866 1858.31 793.581 1858.29 794.271L1857.79 804.9H1855.02L1856.21 783.945H1860.11L1863.34 798.164L1866.41 783.945H1870.35Z" fill="#1A1C1C"/>
<circle cx="1647.68" cy="713.416" r="36.2122" fill="#F4F6F7" stroke="#232422" stroke-width="1.52072"/>
<path d="M1655.13 702.732L1656.32 723.688H1653.49L1652.9 713.058C1652.87 712.307 1652.84 711.562 1652.82 710.822C1652.8 710.072 1652.79 709.357 1652.77 708.678C1652.77 707.999 1652.77 707.38 1652.77 706.823C1652.79 706.265 1652.8 705.804 1652.81 705.439L1649.46 719.962H1646.63L1643.04 705.439C1643.06 705.794 1643.08 706.26 1643.09 706.838C1643.11 707.416 1643.12 708.054 1643.12 708.754C1643.13 709.454 1643.13 710.173 1643.12 710.913C1643.11 711.654 1643.09 712.368 1643.07 713.058L1642.57 723.688H1639.8L1640.99 702.732H1644.9L1648.12 716.951L1651.19 702.732H1655.13Z" fill="#1A1C1C"/>
<circle cx="1938.37" cy="666.609" r="36.2122" fill="#F4F6F7" stroke="#232422" stroke-width="1.52072"/>
<path d="M1945.82 655.925L1947.01 676.881H1944.18L1943.59 666.251C1943.56 665.501 1943.53 664.756 1943.51 664.016C1943.49 663.265 1943.47 662.551 1943.46 661.871C1943.46 661.192 1943.46 660.574 1943.46 660.016C1943.47 659.458 1943.48 658.997 1943.49 658.632L1940.15 673.155H1937.32L1933.73 658.632C1933.75 658.987 1933.77 659.453 1933.78 660.031C1933.8 660.609 1933.81 661.248 1933.81 661.947C1933.82 662.647 1933.82 663.367 1933.81 664.107C1933.8 664.847 1933.78 665.562 1933.76 666.251L1933.26 676.881H1930.49L1931.68 655.925H1935.59L1938.81 670.144L1941.88 655.925H1945.82Z" fill="#1A1C1C"/>
<rect x="1621.76" y="819.471" width="154.545" height="43.6263" rx="2.65613" fill="#232422" stroke="#1A1C1C" stroke-width="1.77076"/>
<path d="M1645.16 832.438C1646.21 832.438 1647.09 832.572 1647.8 832.84C1648.53 833.109 1649.2 833.5 1649.83 834.014L1648.6 835.465C1648.11 835.058 1647.59 834.763 1647.03 834.578C1646.49 834.387 1645.91 834.291 1645.3 834.291C1644.47 834.291 1643.7 834.494 1642.98 834.901C1642.28 835.307 1641.71 835.975 1641.28 836.903C1640.85 837.832 1640.63 839.079 1640.63 840.644C1640.63 842.171 1640.84 843.399 1641.24 844.327C1641.66 845.248 1642.21 845.919 1642.91 846.342C1643.62 846.756 1644.41 846.963 1645.27 846.963C1646.15 846.963 1646.86 846.829 1647.42 846.56C1647.99 846.284 1648.49 845.969 1648.92 845.616L1650.06 847.078C1649.56 847.562 1648.91 847.984 1648.12 848.344C1647.32 848.697 1646.36 848.874 1645.21 848.874C1643.9 848.874 1642.72 848.559 1641.67 847.93C1640.62 847.301 1639.79 846.376 1639.17 845.156C1638.57 843.928 1638.26 842.424 1638.26 840.644C1638.26 838.864 1638.57 837.364 1639.2 836.144C1639.82 834.924 1640.66 834.003 1641.7 833.381C1642.76 832.752 1643.91 832.438 1645.16 832.438ZM1657.65 836.167C1658.81 836.167 1659.78 836.428 1660.56 836.949C1661.35 837.471 1661.95 838.208 1662.34 839.159C1662.75 840.103 1662.95 841.22 1662.95 842.509C1662.95 843.759 1662.75 844.864 1662.33 845.824C1661.93 846.775 1661.33 847.523 1660.54 848.068C1659.75 848.605 1658.78 848.874 1657.62 848.874C1656.47 848.874 1655.5 848.613 1654.7 848.091C1653.91 847.569 1653.31 846.833 1652.91 845.881C1652.5 844.93 1652.3 843.813 1652.3 842.532C1652.3 841.273 1652.5 840.168 1652.91 839.217C1653.32 838.258 1653.93 837.51 1654.72 836.972C1655.52 836.435 1656.5 836.167 1657.65 836.167ZM1657.65 837.928C1656.65 837.928 1655.9 838.304 1655.39 839.056C1654.89 839.8 1654.63 840.959 1654.63 842.532C1654.63 844.089 1654.88 845.244 1655.38 845.996C1655.88 846.741 1656.63 847.113 1657.62 847.113C1658.62 847.113 1659.37 846.741 1659.87 845.996C1660.37 845.244 1660.62 844.082 1660.62 842.509C1660.62 840.943 1660.37 839.789 1659.87 839.044C1659.38 838.3 1658.64 837.928 1657.65 837.928ZM1674.88 836.167C1675.3 836.167 1675.69 836.259 1676.05 836.443C1676.42 836.627 1676.71 836.965 1676.93 837.456C1677.15 837.939 1677.26 838.641 1677.26 839.562V848.586H1675.25V839.884C1675.25 839.179 1675.2 838.672 1675.11 838.365C1675.03 838.051 1674.78 837.893 1674.37 837.893C1674.04 837.893 1673.7 837.997 1673.37 838.204C1673.04 838.411 1672.72 838.756 1672.39 839.24V848.586H1670.46V839.884C1670.46 839.179 1670.42 838.672 1670.32 838.365C1670.24 838.051 1669.99 837.893 1669.59 837.893C1669.24 837.893 1668.9 837.997 1668.57 838.204C1668.25 838.411 1667.93 838.756 1667.61 839.24V848.586H1665.59V836.454H1667.3L1667.43 837.813C1667.77 837.337 1668.14 836.946 1668.55 836.639C1668.96 836.324 1669.47 836.167 1670.06 836.167C1670.52 836.167 1670.94 836.278 1671.34 836.501C1671.73 836.723 1672.03 837.137 1672.21 837.744C1672.54 837.276 1672.92 836.896 1673.34 836.604C1673.76 836.313 1674.27 836.167 1674.88 836.167ZM1686.16 836.167C1687.24 836.167 1688.1 836.431 1688.74 836.961C1689.39 837.483 1689.85 838.219 1690.13 839.171C1690.42 840.115 1690.56 841.227 1690.56 842.509C1690.56 843.736 1690.39 844.83 1690.04 845.789C1689.7 846.748 1689.18 847.504 1688.49 848.056C1687.8 848.601 1686.93 848.874 1685.89 848.874C1684.57 848.874 1683.52 848.413 1682.73 847.492V853.236L1680.52 853.501V836.454H1682.42L1682.58 838.089C1683.04 837.467 1683.57 836.992 1684.18 836.662C1684.8 836.332 1685.46 836.167 1686.16 836.167ZM1685.6 837.905C1684.97 837.905 1684.41 838.097 1683.93 838.48C1683.45 838.856 1683.05 839.286 1682.73 839.769V845.639C1683.04 846.092 1683.42 846.449 1683.86 846.71C1684.31 846.963 1684.8 847.09 1685.35 847.09C1686.3 847.09 1687.01 846.721 1687.5 845.985C1687.98 845.24 1688.22 844.082 1688.22 842.509C1688.22 841.457 1688.13 840.594 1687.94 839.919C1687.74 839.236 1687.45 838.73 1687.06 838.4C1686.68 838.07 1686.19 837.905 1685.6 837.905ZM1696.54 836.454V844.995C1696.54 845.762 1696.69 846.315 1697.01 846.652C1697.32 846.982 1697.8 847.147 1698.45 847.147C1699.07 847.147 1699.66 846.967 1700.22 846.606C1700.78 846.246 1701.22 845.816 1701.53 845.317V836.454H1703.74V848.586H1701.84L1701.68 846.986C1701.22 847.592 1700.64 848.06 1699.94 848.39C1699.24 848.713 1698.54 848.874 1697.83 848.874C1696.65 848.874 1695.77 848.555 1695.19 847.918C1694.61 847.281 1694.33 846.399 1694.33 845.271V836.454H1696.54ZM1717.98 847.964C1717.55 848.241 1717.03 848.459 1716.43 848.62C1715.82 848.789 1715.22 848.874 1714.61 848.874C1713.26 848.874 1712.22 848.521 1711.5 847.815C1710.79 847.109 1710.43 846.192 1710.43 845.064V838.112H1707.68V836.454H1710.43V833.715L1712.64 833.45V836.454H1716.78L1716.53 838.112H1712.64V845.041C1712.64 845.708 1712.81 846.211 1713.15 846.549C1713.49 846.886 1714.06 847.055 1714.86 847.055C1715.32 847.055 1715.73 847.001 1716.11 846.894C1716.48 846.787 1716.83 846.648 1717.15 846.48L1717.98 847.964ZM1723.72 843.268C1723.76 844.158 1723.94 844.887 1724.26 845.455C1724.57 846.015 1724.98 846.43 1725.49 846.698C1725.99 846.959 1726.56 847.09 1727.17 847.09C1727.78 847.09 1728.33 846.998 1728.84 846.813C1729.34 846.629 1729.86 846.361 1730.38 846.008L1731.38 847.4C1730.81 847.853 1730.16 848.214 1729.41 848.482C1728.67 848.743 1727.9 848.874 1727.1 848.874C1725.89 848.874 1724.86 848.609 1724 848.08C1723.16 847.542 1722.52 846.798 1722.07 845.847C1721.63 844.895 1721.41 843.79 1721.41 842.532C1721.41 841.312 1721.63 840.222 1722.07 839.263C1722.52 838.304 1723.14 837.548 1723.95 836.995C1724.75 836.443 1725.71 836.167 1726.82 836.167C1727.87 836.167 1728.76 836.408 1729.52 836.892C1730.28 837.375 1730.86 838.066 1731.27 838.964C1731.67 839.854 1731.88 840.92 1731.88 842.163C1731.88 842.371 1731.87 842.57 1731.86 842.762C1731.86 842.954 1731.85 843.123 1731.83 843.268H1723.72ZM1726.85 837.893C1725.99 837.893 1725.27 838.2 1724.69 838.814C1724.13 839.428 1723.8 840.376 1723.72 841.657H1729.75C1729.72 840.429 1729.46 839.497 1728.94 838.86C1728.44 838.216 1727.74 837.893 1726.85 837.893ZM1753.53 832.438C1754.55 832.438 1755.43 832.618 1756.17 832.978C1756.91 833.339 1757.48 833.823 1757.88 834.429C1758.29 835.035 1758.49 835.699 1758.49 836.42C1758.49 837.065 1758.35 837.648 1758.07 838.169C1757.79 838.684 1757.41 839.109 1756.94 839.447C1756.47 839.785 1755.95 840.015 1755.37 840.138C1756.01 840.191 1756.6 840.372 1757.15 840.679C1757.7 840.978 1758.14 841.408 1758.48 841.968C1758.83 842.52 1759 843.207 1759 844.028C1759 844.941 1758.76 845.766 1758.3 846.503C1757.84 847.232 1757.18 847.811 1756.34 848.241C1755.5 848.663 1754.51 848.874 1753.39 848.874C1752.46 848.874 1751.54 848.697 1750.65 848.344C1749.77 847.991 1749.02 847.446 1748.4 846.71L1749.83 845.513C1750.28 846.042 1750.81 846.437 1751.43 846.698C1752.04 846.952 1752.67 847.078 1753.31 847.078C1754.36 847.078 1755.19 846.806 1755.79 846.261C1756.39 845.708 1756.7 844.953 1756.7 843.993C1756.7 843.265 1756.56 842.689 1756.28 842.267C1756.01 841.845 1755.64 841.542 1755.15 841.358C1754.68 841.174 1754.13 841.081 1753.51 841.081H1752.16L1752.43 839.401H1753.37C1753.88 839.401 1754.35 839.305 1754.8 839.113C1755.24 838.921 1755.6 838.63 1755.88 838.239C1756.16 837.84 1756.29 837.341 1756.29 836.742C1756.29 835.914 1756.01 835.28 1755.45 834.843C1754.89 834.398 1754.21 834.176 1753.41 834.176C1752.73 834.176 1752.14 834.298 1751.62 834.544C1751.11 834.782 1750.59 835.142 1750.08 835.626L1748.88 834.314C1749.56 833.669 1750.3 833.197 1751.08 832.898C1751.86 832.591 1752.68 832.438 1753.53 832.438Z" fill="white"/>
</svg>
