<svg width="2813" height="1664" viewBox="0 0 2813 1664" fill="none" xmlns="http://www.w3.org/2000/svg">
<rect width="2812" height="1664" transform="translate(0.107422)" fill="white"/>
<circle cx="1527.03" cy="1323.86" r="36.2122" fill="#F4F6F7" stroke="#232422" stroke-width="1.52072"/>
<path d="M1534.49 1313.17L1535.67 1334.13H1532.84L1532.25 1323.5C1532.22 1322.75 1532.19 1322 1532.17 1321.26C1532.15 1320.51 1532.14 1319.8 1532.13 1319.12C1532.13 1318.44 1532.13 1317.82 1532.13 1317.26C1532.14 1316.7 1532.15 1316.24 1532.16 1315.88L1528.81 1330.4H1525.98L1522.4 1315.88C1522.42 1316.23 1522.43 1316.7 1522.44 1317.28C1522.46 1317.86 1522.47 1318.49 1522.47 1319.19C1522.48 1319.89 1522.48 1320.61 1522.47 1321.35C1522.46 1322.09 1522.45 1322.81 1522.43 1323.5L1521.92 1334.13H1519.16L1520.34 1313.17H1524.25L1527.47 1327.39L1530.55 1313.17H1534.49Z" fill="#1A1C1C"/>
<circle cx="1735.36" cy="1183.76" r="36.2122" fill="#F4F6F7" stroke="#232422" stroke-width="1.52072"/>
<path d="M1742.81 1173.08L1744 1194.03H1741.17L1740.57 1183.4C1740.54 1182.65 1740.52 1181.91 1740.5 1181.17C1740.48 1180.42 1740.46 1179.7 1740.45 1179.02C1740.45 1178.34 1740.45 1177.72 1740.45 1177.17C1740.46 1176.61 1740.47 1176.15 1740.48 1175.78L1737.14 1190.31H1734.31L1730.72 1175.78C1730.74 1176.14 1730.76 1176.6 1730.77 1177.18C1730.79 1177.76 1730.8 1178.4 1730.8 1179.1C1730.81 1179.8 1730.81 1180.52 1730.8 1181.26C1730.79 1182 1730.77 1182.71 1730.75 1183.4L1730.25 1194.03H1727.48L1728.67 1173.08H1732.58L1735.8 1187.29L1738.87 1173.08H1742.81Z" fill="#1A1C1C"/>
<circle cx="1826.03" cy="1055.16" r="36.2122" fill="#F4F6F7" stroke="#232422" stroke-width="1.52072"/>
<path d="M1833.48 1044.48L1834.67 1065.43H1831.84L1831.25 1054.8C1831.22 1054.05 1831.19 1053.31 1831.17 1052.57C1831.15 1051.82 1831.14 1051.1 1831.13 1050.42C1831.13 1049.74 1831.13 1049.13 1831.13 1048.57C1831.14 1048.01 1831.15 1047.55 1831.16 1047.18L1827.81 1061.71H1824.98L1821.39 1047.18C1821.41 1047.54 1821.43 1048.01 1821.44 1048.58C1821.46 1049.16 1821.47 1049.8 1821.47 1050.5C1821.48 1051.2 1821.48 1051.92 1821.47 1052.66C1821.46 1053.4 1821.44 1054.11 1821.42 1054.8L1820.92 1065.43H1818.15L1819.34 1044.48H1823.25L1826.47 1058.7L1829.54 1044.48H1833.48Z" fill="#1A1C1C"/>
<circle cx="1717.14" cy="964.488" r="36.2122" fill="#F4F6F7" stroke="#232422" stroke-width="1.52072"/>
<path d="M1724.6 953.804L1725.78 974.76H1722.96L1722.36 964.13C1722.33 963.38 1722.31 962.635 1722.29 961.894C1722.27 961.144 1722.25 960.43 1722.24 959.75C1722.24 959.071 1722.24 958.453 1722.24 957.895C1722.25 957.337 1722.26 956.876 1722.27 956.511L1718.93 971.034H1716.1L1712.51 956.511C1712.53 956.866 1712.54 957.332 1712.55 957.91C1712.57 958.488 1712.59 959.127 1712.59 959.826C1712.6 960.526 1712.6 961.246 1712.59 961.986C1712.57 962.726 1712.56 963.441 1712.54 964.13L1712.04 974.76H1709.27L1710.46 953.804H1714.36L1717.59 968.023L1720.66 953.804H1724.6Z" fill="#1A1C1C"/>
<circle cx="1947.94" cy="927.611" r="36.2122" fill="#F4F6F7" stroke="#232422" stroke-width="1.52072"/>
<path d="M1955.4 916.927L1956.58 937.883H1953.75L1953.16 927.253C1953.13 926.503 1953.1 925.758 1953.08 925.018C1953.06 924.267 1953.05 923.553 1953.04 922.873C1953.04 922.194 1953.04 921.576 1953.04 921.018C1953.05 920.46 1953.06 919.999 1953.07 919.634L1949.72 934.157H1946.89L1943.31 919.634C1943.33 919.989 1943.34 920.455 1943.35 921.033C1943.37 921.611 1943.38 922.25 1943.38 922.949C1943.39 923.649 1943.39 924.369 1943.38 925.109C1943.37 925.849 1943.36 926.564 1943.34 927.253L1942.83 937.883H1940.07L1941.25 916.927H1945.16L1948.39 931.146L1951.46 916.927H1955.4Z" fill="#1A1C1C"/>
<circle cx="2047.55" cy="818.586" r="36.2122" fill="#F4F6F7" stroke="#232422" stroke-width="1.52072"/>
<path d="M2055 807.902L2056.19 828.857H2053.36L2052.76 818.228C2052.73 817.477 2052.71 816.732 2052.69 815.992C2052.67 815.242 2052.65 814.527 2052.64 813.848C2052.64 813.169 2052.64 812.55 2052.64 811.993C2052.65 811.435 2052.66 810.974 2052.67 810.609L2049.33 825.132H2046.5L2042.91 810.609C2042.93 810.964 2042.94 811.43 2042.96 812.008C2042.98 812.586 2042.99 813.224 2042.99 813.924C2043 814.623 2043 815.343 2042.99 816.083C2042.98 816.823 2042.96 817.538 2042.94 818.228L2042.44 828.857H2039.67L2040.86 807.902H2044.76L2047.99 822.121L2051.06 807.902H2055Z" fill="#1A1C1C"/>
<circle cx="1721.73" cy="583.93" r="36.2122" fill="#F4F6F7" stroke="#232422" stroke-width="1.52072"/>
<path d="M1729.18 573.246L1730.37 594.201H1727.54L1726.95 583.571C1726.92 582.821 1726.89 582.076 1726.87 581.336C1726.85 580.586 1726.84 579.871 1726.83 579.192C1726.83 578.512 1726.83 577.894 1726.83 577.336C1726.84 576.779 1726.85 576.317 1726.86 575.953L1723.51 590.475H1720.68L1717.09 575.953C1717.11 576.307 1717.13 576.774 1717.14 577.352C1717.16 577.929 1717.17 578.568 1717.17 579.268C1717.18 579.967 1717.18 580.687 1717.17 581.427C1717.16 582.167 1717.14 582.882 1717.12 583.571L1716.62 594.201H1713.85L1715.04 573.246H1718.95L1722.17 587.464L1725.24 573.246H1729.18Z" fill="#1A1C1C"/>
<circle cx="1863" cy="567.297" r="36.2122" fill="#F4F6F7" stroke="#232422" stroke-width="1.52072"/>
<path d="M1870.46 556.613L1871.64 577.568H1868.81L1868.22 566.939C1868.19 566.188 1868.16 565.443 1868.14 564.703C1868.12 563.953 1868.11 563.238 1868.1 562.559C1868.1 561.88 1868.1 561.261 1868.1 560.704C1868.11 560.146 1868.12 559.685 1868.13 559.32L1864.78 573.843H1861.96L1858.37 559.32C1858.39 559.675 1858.4 560.141 1858.41 560.719C1858.43 561.297 1858.44 561.935 1858.44 562.635C1858.45 563.334 1858.45 564.054 1858.44 564.794C1858.43 565.534 1858.42 566.249 1858.4 566.939L1857.9 577.568H1855.13L1856.31 556.613H1860.22L1863.45 570.832L1866.52 556.613H1870.46Z" fill="#1A1C1C"/>
<circle cx="1767.83" cy="461.455" r="36.2122" fill="#F4F6F7" stroke="#232422" stroke-width="1.52072"/>
<path d="M1775.28 450.771L1776.46 471.727H1773.64L1773.04 461.097C1773.01 460.346 1772.99 459.601 1772.97 458.861C1772.95 458.111 1772.93 457.396 1772.92 456.717C1772.92 456.038 1772.92 455.419 1772.92 454.862C1772.93 454.304 1772.94 453.843 1772.95 453.478L1769.61 468.001H1766.78L1763.19 453.478C1763.21 453.833 1763.22 454.299 1763.23 454.877C1763.25 455.455 1763.26 456.094 1763.26 456.793C1763.27 457.493 1763.27 458.212 1763.26 458.953C1763.25 459.693 1763.24 460.407 1763.22 461.097L1762.72 471.727H1759.95L1761.14 450.771H1765.04L1768.27 464.99L1771.34 450.771H1775.28Z" fill="#1A1C1C"/>
<circle cx="1628.34" cy="322.84" r="36.2122" fill="#F4F6F7" stroke="#232422" stroke-width="1.52072"/>
<path d="M1635.79 312.156L1636.98 333.111H1634.15L1633.55 322.481C1633.52 321.731 1633.5 320.986 1633.48 320.246C1633.46 319.496 1633.44 318.781 1633.43 318.102C1633.43 317.423 1633.43 316.804 1633.43 316.247C1633.44 315.689 1633.45 315.228 1633.46 314.863L1630.12 329.386H1627.29L1623.7 314.863C1623.72 315.218 1623.74 315.684 1623.75 316.262C1623.77 316.84 1623.78 317.478 1623.78 318.178C1623.79 318.877 1623.79 319.597 1623.78 320.337C1623.77 321.077 1623.75 321.792 1623.73 322.481L1623.23 333.111H1620.46L1621.65 312.156H1625.56L1628.78 326.375L1631.85 312.156H1635.79Z" fill="#1A1C1C"/>
<circle cx="1345.49" cy="236.769" r="36.2122" fill="#F4F6F7" stroke="#232422" stroke-width="1.52072"/>
<path d="M1352.94 226.085L1354.13 247.041H1351.3L1350.71 236.411C1350.68 235.661 1350.65 234.916 1350.63 234.176C1350.61 233.425 1350.6 232.711 1350.59 232.031C1350.59 231.352 1350.59 230.734 1350.59 230.176C1350.6 229.619 1350.61 229.157 1350.62 228.792L1347.27 243.315H1344.44L1340.85 228.792C1340.88 229.147 1340.89 229.614 1340.9 230.191C1340.92 230.769 1340.93 231.408 1340.93 232.108C1340.94 232.807 1340.94 233.527 1340.93 234.267C1340.92 235.007 1340.91 235.722 1340.89 236.411L1340.38 247.041H1337.62L1338.8 226.085H1342.71L1345.93 240.304L1349.01 226.085H1352.94Z" fill="#1A1C1C"/>
<circle cx="1137" cy="381.697" r="36.2122" fill="#F4F6F7" stroke="#232422" stroke-width="1.52072"/>
<path d="M1144.45 371.013L1145.64 391.969H1142.81L1142.22 381.339C1142.19 380.589 1142.16 379.844 1142.14 379.103C1142.12 378.353 1142.11 377.638 1142.1 376.959C1142.1 376.28 1142.1 375.662 1142.1 375.104C1142.11 374.546 1142.12 374.085 1142.13 373.72L1138.78 388.243H1135.95L1132.36 373.72C1132.38 374.075 1132.4 374.541 1132.41 375.119C1132.43 375.697 1132.44 376.336 1132.44 377.035C1132.45 377.735 1132.45 378.455 1132.44 379.195C1132.43 379.935 1132.42 380.65 1132.39 381.339L1131.89 391.969H1129.13L1130.31 371.013H1134.22L1137.44 385.232L1140.52 371.013H1144.45Z" fill="#1A1C1C"/>
<circle cx="1105.3" cy="503.092" r="36.2122" fill="#F4F6F7" stroke="#232422" stroke-width="1.52072"/>
<path d="M1112.76 492.408L1113.94 513.363H1111.11L1110.52 502.733C1110.49 501.983 1110.47 501.238 1110.45 500.498C1110.43 499.748 1110.41 499.033 1110.4 498.354C1110.4 497.675 1110.4 497.056 1110.4 496.498C1110.41 495.941 1110.42 495.48 1110.43 495.115L1107.08 509.638H1104.26L1100.67 495.115C1100.69 495.469 1100.7 495.936 1100.71 496.514C1100.73 497.092 1100.74 497.73 1100.74 498.43C1100.75 499.129 1100.75 499.849 1100.74 500.589C1100.73 501.329 1100.72 502.044 1100.7 502.733L1100.2 513.363H1097.43L1098.61 492.408H1102.52L1105.75 506.626L1108.82 492.408H1112.76Z" fill="#1A1C1C"/>
<circle cx="923.863" cy="519.818" r="36.2122" fill="#F4F6F7" stroke="#232422" stroke-width="1.52072"/>
<path d="M931.318 509.134L932.504 530.09H929.675L929.082 519.46C929.052 518.71 929.026 517.965 929.006 517.225C928.986 516.474 928.971 515.76 928.96 515.08C928.96 514.401 928.96 513.783 928.96 513.225C928.971 512.667 928.981 512.206 928.991 511.841L925.645 526.364H922.817L919.228 511.841C919.248 512.196 919.263 512.662 919.273 513.24C919.294 513.818 919.304 514.457 919.304 515.156C919.314 515.856 919.314 516.576 919.304 517.316C919.294 518.056 919.278 518.771 919.258 519.46L918.756 530.09H915.989L917.175 509.134H921.083L924.307 523.353L927.379 509.134H931.318Z" fill="#1A1C1C"/>
<circle cx="859.043" cy="735.783" r="36.2122" fill="#F4F6F7" stroke="#232422" stroke-width="1.52072"/>
<path d="M866.495 725.099L867.681 746.055H864.853L864.26 735.425C864.229 734.675 864.204 733.929 864.184 733.189C864.163 732.439 864.148 731.724 864.138 731.045C864.138 730.366 864.138 729.747 864.138 729.19C864.148 728.632 864.158 728.171 864.169 727.806L860.823 742.329H857.994L854.406 727.806C854.426 728.161 854.441 728.627 854.451 729.205C854.471 729.783 854.482 730.422 854.482 731.121C854.492 731.821 854.492 732.541 854.482 733.281C854.471 734.021 854.456 734.735 854.436 735.425L853.934 746.055H851.166L852.353 725.099H856.261L859.485 739.318L862.557 725.099H866.495Z" fill="#1A1C1C"/>
<circle cx="1017.64" cy="629.543" r="36.2122" fill="#F4F6F7" stroke="#232422" stroke-width="1.52072"/>
<path d="M1025.09 618.859L1026.28 639.814H1023.45L1022.85 629.185C1022.82 628.434 1022.8 627.689 1022.78 626.949C1022.76 626.199 1022.74 625.484 1022.73 624.805C1022.73 624.126 1022.73 623.507 1022.73 622.95C1022.74 622.392 1022.75 621.931 1022.76 621.566L1019.42 636.089H1016.59L1013 621.566C1013.02 621.921 1013.03 622.387 1013.04 622.965C1013.07 623.543 1013.08 624.181 1013.08 624.881C1013.09 625.581 1013.09 626.3 1013.08 627.04C1013.07 627.78 1013.05 628.495 1013.03 629.185L1012.53 639.814H1009.76L1010.95 618.859H1014.85L1018.08 633.078L1021.15 618.859H1025.09Z" fill="#1A1C1C"/>
<circle cx="1174.15" cy="666.609" r="36.2122" fill="#F4F6F7" stroke="#232422" stroke-width="1.52072"/>
<path d="M1181.6 655.925L1182.78 676.881H1179.96L1179.36 666.251C1179.33 665.501 1179.31 664.756 1179.29 664.016C1179.27 663.265 1179.25 662.551 1179.24 661.871C1179.24 661.192 1179.24 660.574 1179.24 660.016C1179.25 659.458 1179.26 658.997 1179.27 658.632L1175.93 673.155H1173.1L1169.51 658.632C1169.53 658.987 1169.54 659.453 1169.55 660.031C1169.57 660.609 1169.59 661.248 1169.59 661.947C1169.6 662.647 1169.6 663.367 1169.59 664.107C1169.57 664.847 1169.56 665.562 1169.54 666.251L1169.04 676.881H1166.27L1167.46 655.925H1171.36L1174.59 670.144L1177.66 655.925H1181.6Z" fill="#1A1C1C"/>
<circle cx="763.635" cy="998.898" r="36.2122" fill="#F4F6F7" stroke="#232422" stroke-width="1.52072"/>
<path d="M771.087 988.214L772.273 1009.17H769.445L768.852 998.54C768.821 997.79 768.796 997.045 768.776 996.305C768.755 995.554 768.74 994.84 768.73 994.16C768.73 993.481 768.73 992.863 768.73 992.305C768.74 991.748 768.75 991.286 768.76 990.921L765.415 1005.44H762.586L758.997 990.921C759.018 991.276 759.033 991.742 759.043 992.32C759.063 992.898 759.073 993.537 759.073 994.236C759.084 994.936 759.084 995.656 759.073 996.396C759.063 997.136 759.048 997.851 759.028 998.54L758.526 1009.17H755.758L756.944 988.214H760.853L764.077 1002.43L767.148 988.214H771.087Z" fill="#1A1C1C"/>
<circle cx="1059.21" cy="1321.24" r="36.2122" fill="#F4F6F7" stroke="#232422" stroke-width="1.52072"/>
<path d="M1066.66 1310.55L1067.85 1331.51H1065.02L1064.42 1320.88C1064.39 1320.13 1064.37 1319.38 1064.35 1318.64C1064.33 1317.89 1064.31 1317.18 1064.3 1316.5C1064.3 1315.82 1064.3 1315.2 1064.3 1314.64C1064.31 1314.09 1064.32 1313.63 1064.33 1313.26L1060.99 1327.78H1058.16L1054.57 1313.26C1054.59 1313.62 1054.61 1314.08 1054.62 1314.66C1054.64 1315.24 1054.65 1315.88 1054.65 1316.58C1054.66 1317.28 1054.66 1318 1054.65 1318.74C1054.64 1319.48 1054.62 1320.19 1054.6 1320.88L1054.1 1331.51H1051.33L1052.52 1310.55H1056.42L1059.65 1324.77L1062.72 1310.55H1066.66Z" fill="#1A1C1C"/>
<path d="M1207 532.781L1254.79 324.563C1255.47 321.625 1257.93 319.435 1260.93 319.107L1493.61 293.63C1496.56 293.308 1499.39 294.853 1500.72 297.504L1618.95 533.959C1620.03 536.137 1619.93 538.721 1618.66 540.802L1502.38 732.333C1501.08 734.471 1498.75 735.766 1496.25 735.74L1337.65 734.053C1335.27 734.027 1333.06 732.805 1331.77 730.8L1207.95 538.196C1206.92 536.592 1206.58 534.64 1207 532.781Z" fill="#57EB9F" stroke="#232422" stroke-width="1.77076"/>
<path d="M799.71 1152.68L869.143 819.236C869.774 816.203 872.303 813.933 875.385 813.631L1127.41 788.906L1241.74 788.488C1245.6 788.474 1248.77 791.562 1248.85 795.426L1252.65 980.813C1252.67 982.115 1252.34 983.399 1251.69 984.524L1170.47 1123.93C1170.1 1124.58 1169.62 1125.16 1169.06 1125.66L1084.69 1200.6C1083.4 1201.75 1081.75 1202.38 1080.02 1202.39L914.496 1203.26C913.603 1203.26 912.718 1203.1 911.886 1202.77L804.071 1160.73C800.848 1159.47 799.005 1156.07 799.71 1152.68Z" fill="#57EB9F" stroke="#232422" stroke-width="1.77076"/>
<circle cx="1235.82" cy="1300.99" r="36.2122" fill="#F4F6F7" stroke="#232422" stroke-width="1.52072"/>
<path d="M1243.27 1290.31L1244.46 1311.27H1241.63L1241.04 1300.64C1241 1299.89 1240.98 1299.14 1240.96 1298.4C1240.94 1297.65 1240.92 1296.94 1240.91 1296.26C1240.91 1295.58 1240.91 1294.96 1240.91 1294.4C1240.92 1293.84 1240.93 1293.38 1240.94 1293.02L1237.6 1307.54H1234.77L1231.18 1293.02C1231.2 1293.37 1231.22 1293.84 1231.23 1294.42C1231.25 1294.99 1231.26 1295.63 1231.26 1296.33C1231.27 1297.03 1231.27 1297.75 1231.26 1298.49C1231.25 1299.23 1231.23 1299.95 1231.21 1300.64L1230.71 1311.27H1227.94L1229.13 1290.31H1233.04L1236.26 1304.53L1239.33 1290.31H1243.27Z" fill="#1A1C1C"/>
<circle cx="1151.4" cy="1427.23" r="36.2122" fill="#F4F6F7" stroke="#232422" stroke-width="1.52072"/>
<path d="M1158.85 1416.55L1160.04 1437.5H1157.21L1156.62 1426.87C1156.59 1426.12 1156.56 1425.38 1156.54 1424.64C1156.52 1423.89 1156.51 1423.17 1156.5 1422.49C1156.5 1421.81 1156.5 1421.19 1156.5 1420.64C1156.51 1420.08 1156.52 1419.62 1156.53 1419.25L1153.18 1433.78H1150.35L1146.76 1419.25C1146.78 1419.61 1146.8 1420.07 1146.81 1420.65C1146.83 1421.23 1146.84 1421.87 1146.84 1422.57C1146.85 1423.27 1146.85 1423.99 1146.84 1424.73C1146.83 1425.47 1146.81 1426.18 1146.79 1426.87L1146.29 1437.5H1143.52L1144.71 1416.55H1148.62L1151.84 1430.77L1154.91 1416.55H1158.85Z" fill="#1A1C1C"/>
<circle cx="1316.26" cy="1427.23" r="36.2122" fill="#F4F6F7" stroke="#232422" stroke-width="1.52072"/>
<path d="M1323.71 1416.55L1324.9 1437.5H1322.07L1321.48 1426.87C1321.45 1426.12 1321.42 1425.38 1321.4 1424.64C1321.38 1423.89 1321.37 1423.17 1321.35 1422.49C1321.35 1421.81 1321.35 1421.19 1321.35 1420.64C1321.37 1420.08 1321.38 1419.62 1321.39 1419.25L1318.04 1433.78H1315.21L1311.62 1419.25C1311.64 1419.61 1311.66 1420.07 1311.67 1420.65C1311.69 1421.23 1311.7 1421.87 1311.7 1422.57C1311.71 1423.27 1311.71 1423.99 1311.7 1424.73C1311.69 1425.47 1311.67 1426.18 1311.65 1426.87L1311.15 1437.5H1308.38L1309.57 1416.55H1313.48L1316.7 1430.77L1319.77 1416.55H1323.71Z" fill="#1A1C1C"/>
<path d="M1669.11 643.198L2000.52 602.093C2005.4 601.487 2009.4 605.924 2008.29 610.718L1953.98 845.511C1953.39 848.052 1951.45 850.064 1948.94 850.749L1794.47 892.798C1793.93 892.946 1793.37 893.028 1792.81 893.044L1606.54 898.147C1602.75 898.251 1599.55 895.348 1599.28 891.563L1585.04 688.832C1584.84 685.954 1586.4 683.241 1588.99 681.973L1666.87 643.865C1667.57 643.52 1668.33 643.295 1669.11 643.198Z" fill="#57EB9F" stroke="#232422" stroke-width="1.77076"/>
<circle cx="1364.65" cy="1286.98" r="36.2122" fill="#F4F6F7" stroke="#232422" stroke-width="1.52072"/>
<path d="M1372.1 1276.29L1373.29 1297.25H1370.46L1369.87 1286.62C1369.83 1285.87 1369.81 1285.12 1369.79 1284.38C1369.77 1283.63 1369.75 1282.92 1369.74 1282.24C1369.74 1281.56 1369.74 1280.94 1369.74 1280.38C1369.75 1279.83 1369.76 1279.36 1369.77 1279L1366.43 1293.52H1363.6L1360.01 1279C1360.03 1279.35 1360.05 1279.82 1360.06 1280.4C1360.08 1280.98 1360.09 1281.62 1360.09 1282.31C1360.1 1283.01 1360.1 1283.73 1360.09 1284.47C1360.08 1285.21 1360.06 1285.93 1360.04 1286.62L1359.54 1297.25H1356.77L1357.96 1276.29H1361.87L1365.09 1290.51L1368.16 1276.29H1372.1Z" fill="#1A1C1C"/>
<circle cx="1137.17" cy="1063.01" r="36.2122" fill="#F4F6F7" stroke="#232422" stroke-width="1.52072"/>
<path d="M1144.63 1052.33L1145.81 1073.28H1142.98L1142.39 1062.65C1142.36 1061.9 1142.33 1061.16 1142.31 1060.42C1142.29 1059.67 1142.28 1058.95 1142.27 1058.27C1142.27 1057.59 1142.27 1056.98 1142.27 1056.42C1142.28 1055.86 1142.29 1055.4 1142.3 1055.03L1138.95 1069.56H1136.13L1132.54 1055.03C1132.56 1055.39 1132.57 1055.86 1132.58 1056.43C1132.6 1057.01 1132.61 1057.65 1132.61 1058.35C1132.62 1059.05 1132.62 1059.77 1132.61 1060.51C1132.6 1061.25 1132.59 1061.96 1132.57 1062.65L1132.06 1073.28H1129.3L1130.48 1052.33H1134.39L1137.62 1066.55L1140.69 1052.33H1144.63Z" fill="#1A1C1C"/>
<circle cx="1017.64" cy="1146.97" r="36.2122" fill="#F4F6F7" stroke="#232422" stroke-width="1.52072"/>
<path d="M1025.09 1136.29L1026.28 1157.25H1023.45L1022.85 1146.62C1022.82 1145.87 1022.8 1145.12 1022.78 1144.38C1022.76 1143.63 1022.74 1142.92 1022.73 1142.24C1022.73 1141.56 1022.73 1140.94 1022.73 1140.38C1022.74 1139.82 1022.75 1139.36 1022.76 1139L1019.42 1153.52H1016.59L1013 1139C1013.02 1139.35 1013.03 1139.82 1013.04 1140.4C1013.07 1140.97 1013.08 1141.61 1013.08 1142.31C1013.09 1143.01 1013.09 1143.73 1013.08 1144.47C1013.07 1145.21 1013.05 1145.93 1013.03 1146.62L1012.53 1157.25H1009.76L1010.95 1136.29H1014.85L1018.08 1150.51L1021.15 1136.29H1025.09Z" fill="#1A1C1C"/>
<circle cx="868.51" cy="1110.1" r="36.2122" fill="#F4F6F7" stroke="#232422" stroke-width="1.52072"/>
<path d="M875.962 1099.41L877.148 1120.37H874.32L873.727 1109.74C873.696 1108.99 873.671 1108.24 873.651 1107.5C873.63 1106.75 873.615 1106.04 873.605 1105.36C873.605 1104.68 873.605 1104.06 873.605 1103.5C873.615 1102.95 873.625 1102.49 873.635 1102.12L870.29 1116.64H867.461L863.872 1102.12C863.893 1102.48 863.908 1102.94 863.918 1103.52C863.938 1104.1 863.948 1104.74 863.948 1105.44C863.959 1106.14 863.959 1106.85 863.948 1107.6C863.938 1108.34 863.923 1109.05 863.903 1109.74L863.401 1120.37H860.633L861.819 1099.41H865.728L868.952 1113.63L872.023 1099.41H875.962Z" fill="#1A1C1C"/>
<circle cx="938.435" cy="989.066" r="36.2122" fill="#F4F6F7" stroke="#232422" stroke-width="1.52072"/>
<path d="M945.888 978.382L947.074 999.338H944.245L943.652 988.708C943.622 987.958 943.597 987.213 943.576 986.473C943.556 985.722 943.541 985.008 943.531 984.328C943.531 983.649 943.531 983.031 943.531 982.473C943.541 981.915 943.551 981.454 943.561 981.089L940.216 995.612H937.387L933.798 981.089C933.818 981.444 933.834 981.91 933.844 982.488C933.864 983.066 933.874 983.705 933.874 984.404C933.884 985.104 933.884 985.824 933.874 986.564C933.864 987.304 933.849 988.019 933.829 988.708L933.327 999.338H930.559L931.745 978.382H935.653L938.877 992.601L941.949 978.382H945.888Z" fill="#1A1C1C"/>
<circle cx="980.664" cy="863.982" r="36.2122" fill="#F4F6F7" stroke="#232422" stroke-width="1.52072"/>
<path d="M988.116 853.298L989.303 874.254H986.474L985.881 863.624C985.85 862.874 985.825 862.129 985.805 861.389C985.785 860.638 985.769 859.924 985.759 859.244C985.759 858.565 985.759 857.947 985.759 857.389C985.769 856.832 985.78 856.37 985.79 856.005L982.444 870.528H979.616L976.027 856.005C976.047 856.36 976.062 856.826 976.072 857.404C976.093 857.982 976.103 858.621 976.103 859.32C976.113 860.02 976.113 860.74 976.103 861.48C976.093 862.22 976.077 862.935 976.057 863.624L975.555 874.254H972.787L973.974 853.298H977.882L981.106 867.517L984.178 853.298H988.116Z" fill="#1A1C1C"/>
<circle cx="956.844" cy="322.746" r="36.2122" fill="#F4F6F7" stroke="#232422" stroke-width="1.52072"/>
<path d="M964.296 312.062L965.482 333.018H962.654L962.061 322.388C962.03 321.638 962.005 320.892 961.985 320.152C961.964 319.402 961.949 318.687 961.939 318.008C961.939 317.329 961.939 316.71 961.939 316.153C961.949 315.595 961.959 315.134 961.969 314.769L958.624 329.292H955.795L952.206 314.769C952.227 315.124 952.242 315.59 952.252 316.168C952.272 316.746 952.282 317.385 952.282 318.084C952.292 318.784 952.292 319.503 952.282 320.244C952.272 320.984 952.257 321.698 952.237 322.388L951.735 333.018H948.967L950.153 312.062H954.062L957.286 326.281L960.357 312.062H964.296Z" fill="#1A1C1C"/>
<circle cx="1556.67" cy="530.418" r="36.2122" fill="#F4F6F7" stroke="#232422" stroke-width="1.52072"/>
<path d="M1564.12 519.734L1565.31 540.689H1562.48L1561.88 530.06C1561.85 529.309 1561.83 528.564 1561.81 527.824C1561.79 527.074 1561.77 526.359 1561.76 525.68C1561.76 525.001 1561.76 524.382 1561.76 523.825C1561.77 523.267 1561.78 522.806 1561.79 522.441L1558.45 536.964H1555.62L1552.03 522.441C1552.05 522.796 1552.07 523.262 1552.08 523.84C1552.1 524.418 1552.11 525.056 1552.11 525.756C1552.12 526.456 1552.12 527.175 1552.11 527.915C1552.1 528.655 1552.08 529.37 1552.06 530.06L1551.56 540.689H1548.79L1549.98 519.734H1553.89L1557.11 533.953L1560.18 519.734H1564.12Z" fill="#1A1C1C"/>
<circle cx="1401.62" cy="503.092" r="36.2122" fill="#F4F6F7" stroke="#232422" stroke-width="1.52072"/>
<path d="M1409.08 492.408L1410.26 513.363H1407.43L1406.84 502.733C1406.81 501.983 1406.78 501.238 1406.76 500.498C1406.74 499.748 1406.73 499.033 1406.72 498.354C1406.72 497.675 1406.72 497.056 1406.72 496.498C1406.73 495.941 1406.74 495.48 1406.75 495.115L1403.4 509.638H1400.57L1396.99 495.115C1397.01 495.469 1397.02 495.936 1397.03 496.514C1397.05 497.092 1397.06 497.73 1397.06 498.43C1397.07 499.129 1397.07 499.849 1397.06 500.589C1397.05 501.329 1397.04 502.044 1397.02 502.733L1396.51 513.363H1393.75L1394.93 492.408H1398.84L1402.06 506.626L1405.14 492.408H1409.08Z" fill="#1A1C1C"/>
<circle cx="1279.29" cy="540.062" r="36.2122" fill="#F4F6F7" stroke="#232422" stroke-width="1.52072"/>
<path d="M1286.74 529.378L1287.93 550.334H1285.1L1284.51 539.704C1284.48 538.954 1284.45 538.209 1284.43 537.469C1284.41 536.718 1284.39 536.004 1284.38 535.324C1284.38 534.645 1284.38 534.027 1284.38 533.469C1284.39 532.912 1284.4 532.45 1284.41 532.085L1281.07 546.608H1278.24L1274.65 532.085C1274.67 532.44 1274.69 532.907 1274.7 533.484C1274.72 534.062 1274.73 534.701 1274.73 535.401C1274.74 536.1 1274.74 536.82 1274.73 537.56C1274.72 538.3 1274.7 539.015 1274.68 539.704L1274.18 550.334H1271.41L1272.6 529.378H1276.51L1279.73 543.597L1282.8 529.378H1286.74Z" fill="#1A1C1C"/>
<circle cx="1306.79" cy="396.691" r="36.2122" fill="#F4F6F7" stroke="#232422" stroke-width="1.52072"/>
<path d="M1314.25 386.007L1315.43 406.963H1312.6L1312.01 396.333C1311.98 395.583 1311.95 394.838 1311.93 394.098C1311.91 393.347 1311.9 392.633 1311.89 391.953C1311.89 391.274 1311.89 390.656 1311.89 390.098C1311.9 389.54 1311.91 389.079 1311.92 388.714L1308.57 403.237H1305.74L1302.16 388.714C1302.18 389.069 1302.19 389.535 1302.2 390.113C1302.22 390.691 1302.23 391.33 1302.23 392.029C1302.24 392.729 1302.24 393.449 1302.23 394.189C1302.22 394.929 1302.21 395.644 1302.19 396.333L1301.68 406.963H1298.92L1300.1 386.007H1304.01L1307.23 400.226L1310.31 386.007H1314.25Z" fill="#1A1C1C"/>
<circle cx="1475.57" cy="369.646" r="36.2122" fill="#F4F6F7" stroke="#232422" stroke-width="1.52072"/>
<path d="M1483.02 358.962L1484.2 379.918H1481.38L1480.78 369.288C1480.75 368.538 1480.73 367.793 1480.71 367.053C1480.69 366.302 1480.67 365.588 1480.66 364.908C1480.66 364.229 1480.66 363.611 1480.66 363.053C1480.67 362.496 1480.68 362.034 1480.69 361.669L1477.35 376.192H1474.52L1470.93 361.669C1470.95 362.024 1470.96 362.491 1470.97 363.068C1470.99 363.646 1471.01 364.285 1471.01 364.984C1471.02 365.684 1471.02 366.404 1471.01 367.144C1470.99 367.884 1470.98 368.599 1470.96 369.288L1470.46 379.918H1467.69L1468.88 358.962H1472.78L1476.01 373.181L1479.08 358.962H1483.02Z" fill="#1A1C1C"/>
<rect x="1334.63" y="661.714" width="154.545" height="43.6263" rx="2.65613" fill="#232422" stroke="#1A1C1C" stroke-width="1.77076"/>
<path d="M1358.03 674.68C1359.08 674.68 1359.96 674.814 1360.68 675.083C1361.4 675.351 1362.07 675.742 1362.7 676.257L1361.47 677.707C1360.98 677.3 1360.46 677.005 1359.9 676.821C1359.36 676.629 1358.78 676.533 1358.17 676.533C1357.34 676.533 1356.57 676.736 1355.85 677.143C1355.15 677.55 1354.58 678.217 1354.15 679.146C1353.72 680.074 1353.5 681.321 1353.5 682.886C1353.5 684.413 1353.71 685.641 1354.11 686.569C1354.53 687.49 1355.09 688.162 1355.78 688.584C1356.49 688.998 1357.28 689.205 1358.14 689.205C1359.02 689.205 1359.74 689.071 1360.3 688.802C1360.86 688.526 1361.36 688.212 1361.79 687.859L1362.93 689.32C1362.43 689.804 1361.78 690.226 1360.99 690.586C1360.2 690.939 1359.23 691.116 1358.09 691.116C1356.77 691.116 1355.59 690.801 1354.54 690.172C1353.49 689.543 1352.66 688.618 1352.04 687.398C1351.44 686.17 1351.13 684.666 1351.13 682.886C1351.13 681.106 1351.44 679.606 1352.07 678.386C1352.7 677.166 1353.53 676.245 1354.58 675.624C1355.63 674.994 1356.78 674.68 1358.03 674.68ZM1370.52 678.409C1371.68 678.409 1372.65 678.67 1373.43 679.192C1374.22 679.713 1374.82 680.45 1375.22 681.402C1375.62 682.345 1375.83 683.462 1375.83 684.751C1375.83 686.002 1375.62 687.107 1375.2 688.066C1374.8 689.017 1374.2 689.765 1373.41 690.31C1372.62 690.847 1371.65 691.116 1370.5 691.116C1369.35 691.116 1368.37 690.855 1367.57 690.333C1366.78 689.811 1366.18 689.075 1365.78 688.123C1365.37 687.172 1365.17 686.055 1365.17 684.774C1365.17 683.515 1365.37 682.411 1365.78 681.459C1366.19 680.5 1366.8 679.752 1367.6 679.215C1368.39 678.677 1369.37 678.409 1370.52 678.409ZM1370.52 680.17C1369.52 680.17 1368.77 680.546 1368.26 681.298C1367.76 682.042 1367.5 683.201 1367.5 684.774C1367.5 686.332 1367.75 687.486 1368.25 688.238C1368.75 688.983 1369.5 689.355 1370.5 689.355C1371.49 689.355 1372.24 688.983 1372.74 688.238C1373.24 687.486 1373.49 686.324 1373.49 684.751C1373.49 683.186 1373.24 682.031 1372.74 681.286C1372.25 680.542 1371.51 680.17 1370.52 680.17ZM1387.75 678.409C1388.17 678.409 1388.57 678.501 1388.93 678.685C1389.29 678.869 1389.58 679.207 1389.8 679.698C1390.02 680.181 1390.13 680.884 1390.13 681.804V690.828H1388.12V682.127C1388.12 681.421 1388.07 680.914 1387.98 680.607C1387.9 680.293 1387.65 680.135 1387.25 680.135C1386.91 680.135 1386.57 680.239 1386.24 680.446C1385.91 680.653 1385.59 680.999 1385.27 681.482V690.828H1383.33V682.127C1383.33 681.421 1383.29 680.914 1383.19 680.607C1383.11 680.293 1382.86 680.135 1382.46 680.135C1382.11 680.135 1381.77 680.239 1381.44 680.446C1381.12 680.653 1380.8 680.999 1380.48 681.482V690.828H1378.46V678.697H1380.17L1380.31 680.055C1380.64 679.579 1381.01 679.188 1381.42 678.881C1381.84 678.566 1382.34 678.409 1382.93 678.409C1383.39 678.409 1383.82 678.52 1384.21 678.743C1384.61 678.965 1384.9 679.38 1385.08 679.986C1385.41 679.518 1385.79 679.138 1386.21 678.846C1386.63 678.555 1387.15 678.409 1387.75 678.409ZM1399.03 678.409C1400.11 678.409 1400.97 678.674 1401.61 679.203C1402.26 679.725 1402.72 680.462 1403.01 681.413C1403.29 682.357 1403.43 683.469 1403.43 684.751C1403.43 685.979 1403.26 687.072 1402.91 688.031C1402.57 688.99 1402.05 689.746 1401.36 690.299C1400.67 690.843 1399.8 691.116 1398.76 691.116C1397.45 691.116 1396.39 690.655 1395.6 689.735V695.478L1393.39 695.743V678.697H1395.29L1395.45 680.331C1395.91 679.71 1396.44 679.234 1397.05 678.904C1397.67 678.574 1398.33 678.409 1399.03 678.409ZM1398.47 680.147C1397.84 680.147 1397.28 680.339 1396.8 680.722C1396.32 681.098 1395.92 681.528 1395.6 682.012V687.882C1395.91 688.334 1396.29 688.691 1396.73 688.952C1397.18 689.205 1397.67 689.332 1398.22 689.332C1399.17 689.332 1399.89 688.964 1400.37 688.227C1400.85 687.483 1401.09 686.324 1401.09 684.751C1401.09 683.7 1401 682.836 1400.81 682.161C1400.61 681.478 1400.32 680.972 1399.93 680.642C1399.55 680.312 1399.06 680.147 1398.47 680.147ZM1409.41 678.697V687.237C1409.41 688.004 1409.56 688.557 1409.88 688.894C1410.19 689.224 1410.67 689.389 1411.32 689.389C1411.94 689.389 1412.53 689.209 1413.09 688.848C1413.65 688.488 1414.09 688.058 1414.4 687.559V678.697H1416.61V690.828H1414.71L1414.55 689.228C1414.09 689.834 1413.51 690.303 1412.81 690.632C1412.12 690.955 1411.41 691.116 1410.7 691.116C1409.52 691.116 1408.64 690.797 1408.06 690.161C1407.48 689.524 1407.2 688.641 1407.2 687.513V678.697H1409.41ZM1430.85 690.207C1430.42 690.483 1429.9 690.702 1429.3 690.863C1428.69 691.031 1428.09 691.116 1427.48 691.116C1426.13 691.116 1425.09 690.763 1424.37 690.057C1423.66 689.351 1423.3 688.434 1423.3 687.306V680.354H1420.55V678.697H1423.3V675.957L1425.51 675.693V678.697H1429.66L1429.4 680.354H1425.51V687.283C1425.51 687.951 1425.68 688.453 1426.02 688.791C1426.36 689.128 1426.94 689.297 1427.73 689.297C1428.19 689.297 1428.6 689.244 1428.98 689.136C1429.35 689.029 1429.7 688.891 1430.02 688.722L1430.85 690.207ZM1436.59 685.511C1436.63 686.401 1436.81 687.13 1437.13 687.697C1437.44 688.258 1437.85 688.672 1438.36 688.94C1438.87 689.201 1439.43 689.332 1440.04 689.332C1440.65 689.332 1441.2 689.24 1441.71 689.056C1442.22 688.871 1442.73 688.603 1443.25 688.25L1444.25 689.643C1443.68 690.095 1443.03 690.456 1442.28 690.725C1441.54 690.985 1440.77 691.116 1439.97 691.116C1438.76 691.116 1437.73 690.851 1436.87 690.322C1436.03 689.785 1435.39 689.04 1434.94 688.089C1434.5 687.137 1434.29 686.032 1434.29 684.774C1434.29 683.554 1434.5 682.464 1434.94 681.505C1435.39 680.546 1436.01 679.79 1436.82 679.238C1437.62 678.685 1438.58 678.409 1439.69 678.409C1440.74 678.409 1441.64 678.651 1442.39 679.134C1443.15 679.617 1443.73 680.308 1444.14 681.206C1444.54 682.096 1444.75 683.163 1444.75 684.406C1444.75 684.613 1444.74 684.812 1444.74 685.004C1444.73 685.196 1444.72 685.365 1444.7 685.511H1436.59ZM1439.72 680.135C1438.86 680.135 1438.14 680.442 1437.57 681.056C1437 681.67 1436.67 682.618 1436.59 683.899H1442.62C1442.6 682.671 1442.33 681.739 1441.81 681.102C1441.31 680.458 1440.61 680.135 1439.72 680.135ZM1466.44 674.68C1467.47 674.68 1468.36 674.875 1469.08 675.267C1469.81 675.658 1470.37 676.191 1470.75 676.867C1471.14 677.542 1471.33 678.298 1471.33 679.134C1471.33 679.848 1471.21 680.546 1470.96 681.229C1470.72 681.912 1470.32 682.629 1469.76 683.381C1469.22 684.126 1468.5 684.954 1467.61 685.867C1466.72 686.78 1465.63 687.824 1464.34 688.998H1471.7L1471.43 690.828H1461.82V689.09C1462.99 687.97 1463.99 686.988 1464.81 686.144C1465.65 685.292 1466.34 684.544 1466.89 683.899C1467.43 683.255 1467.86 682.675 1468.18 682.161C1468.49 681.639 1468.71 681.148 1468.83 680.688C1468.96 680.22 1469.03 679.736 1469.03 679.238C1469.03 678.386 1468.79 677.714 1468.3 677.223C1467.83 676.732 1467.16 676.487 1466.31 676.487C1465.55 676.487 1464.93 676.621 1464.43 676.89C1463.95 677.151 1463.46 677.576 1462.97 678.167L1461.5 677.028C1462.12 676.253 1462.82 675.67 1463.61 675.278C1464.39 674.879 1465.33 674.68 1466.44 674.68Z" fill="white"/>
<path d="M1232.42 1108.85L1325.05 971.607C1326.31 969.739 1328.39 968.583 1330.64 968.492L1458.98 963.324L1615.95 971.173C1617.5 971.25 1618.99 971.84 1620.18 972.849L1714.04 1052.59C1716.58 1054.75 1717.27 1058.39 1715.7 1061.33L1600.76 1275.99C1599.15 1279 1595.63 1280.43 1592.38 1279.4L1389.94 1215.34C1388.77 1214.97 1387.52 1214.91 1386.31 1215.17L1286.93 1236.59C1285.95 1236.8 1284.94 1236.8 1283.96 1236.59L1225.31 1224.08C1221.75 1223.32 1219.35 1219.99 1219.74 1216.37L1231.25 1112.03C1231.37 1110.89 1231.77 1109.8 1232.42 1108.85Z" fill="#57EB9F" stroke="#232422" stroke-width="1.77076"/>
<rect x="1080.39" y="821.665" width="154.545" height="43.6263" rx="2.65613" fill="#232422" stroke="#1A1C1C" stroke-width="1.77076"/>
<path d="M1103.79 834.631C1104.84 834.631 1105.72 834.765 1106.44 835.034C1107.16 835.302 1107.83 835.694 1108.46 836.208L1107.23 837.658C1106.74 837.251 1106.22 836.956 1105.67 836.772C1105.12 836.58 1104.54 836.484 1103.93 836.484C1103.1 836.484 1102.33 836.687 1101.61 837.094C1100.91 837.501 1100.34 838.168 1099.91 839.097C1099.48 840.025 1099.27 841.272 1099.27 842.837C1099.27 844.364 1099.47 845.592 1099.88 846.521C1100.29 847.441 1100.85 848.113 1101.55 848.535C1102.25 848.949 1103.04 849.156 1103.91 849.156C1104.78 849.156 1105.5 849.022 1106.06 848.754C1106.63 848.477 1107.12 848.163 1107.55 847.81L1108.69 849.271C1108.19 849.755 1107.55 850.177 1106.75 850.538C1105.96 850.891 1104.99 851.067 1103.85 851.067C1102.54 851.067 1101.35 850.752 1100.3 850.123C1099.25 849.494 1098.42 848.569 1097.8 847.349C1097.2 846.122 1096.9 844.618 1096.9 842.837C1096.9 841.057 1097.21 839.557 1097.83 838.337C1098.46 837.117 1099.29 836.196 1100.34 835.575C1101.39 834.945 1102.54 834.631 1103.79 834.631ZM1116.28 838.36C1117.44 838.36 1118.41 838.621 1119.19 839.143C1119.98 839.665 1120.58 840.401 1120.98 841.353C1121.38 842.296 1121.59 843.413 1121.59 844.702C1121.59 845.953 1121.38 847.058 1120.97 848.017C1120.56 848.968 1119.96 849.717 1119.17 850.261C1118.38 850.798 1117.41 851.067 1116.26 851.067C1115.11 851.067 1114.13 850.806 1113.33 850.284C1112.54 849.763 1111.95 849.026 1111.54 848.074C1111.13 847.123 1110.93 846.007 1110.93 844.725C1110.93 843.467 1111.13 842.362 1111.54 841.41C1111.95 840.451 1112.56 839.703 1113.36 839.166C1114.16 838.629 1115.13 838.36 1116.28 838.36ZM1116.28 840.121C1115.28 840.121 1114.53 840.497 1114.02 841.249C1113.52 841.993 1113.27 843.152 1113.27 844.725C1113.27 846.283 1113.51 847.438 1114.01 848.19C1114.51 848.934 1115.26 849.306 1116.26 849.306C1117.26 849.306 1118 848.934 1118.5 848.19C1119 847.438 1119.25 846.275 1119.25 844.702C1119.25 843.137 1119 841.982 1118.5 841.238C1118.01 840.493 1117.27 840.121 1116.28 840.121ZM1133.51 838.36C1133.94 838.36 1134.33 838.452 1134.69 838.636C1135.05 838.82 1135.34 839.158 1135.56 839.649C1135.78 840.133 1135.9 840.835 1135.9 841.756V850.779H1133.88V842.078C1133.88 841.372 1133.84 840.865 1133.74 840.558C1133.66 840.244 1133.41 840.087 1133.01 840.087C1132.67 840.087 1132.34 840.19 1132.01 840.397C1131.68 840.605 1131.35 840.95 1131.03 841.433V850.779H1129.09V842.078C1129.09 841.372 1129.05 840.865 1128.96 840.558C1128.87 840.244 1128.63 840.087 1128.22 840.087C1127.87 840.087 1127.54 840.19 1127.21 840.397C1126.88 840.605 1126.56 840.95 1126.24 841.433V850.779H1124.23V838.648H1125.93L1126.07 840.006C1126.4 839.53 1126.78 839.139 1127.18 838.832C1127.6 838.517 1128.1 838.36 1128.69 838.36C1129.15 838.36 1129.58 838.471 1129.97 838.694C1130.37 838.916 1130.66 839.331 1130.84 839.937C1131.17 839.469 1131.55 839.089 1131.97 838.797C1132.39 838.506 1132.91 838.36 1133.51 838.36ZM1144.8 838.36C1145.87 838.36 1146.73 838.625 1147.37 839.154C1148.02 839.676 1148.48 840.413 1148.77 841.364C1149.05 842.308 1149.19 843.421 1149.19 844.702C1149.19 845.93 1149.02 847.023 1148.67 847.982C1148.33 848.942 1147.81 849.697 1147.12 850.25C1146.43 850.795 1145.56 851.067 1144.52 851.067C1143.21 851.067 1142.16 850.607 1141.37 849.686V855.429L1139.16 855.694V838.648H1141.06L1141.22 840.282C1141.67 839.661 1142.2 839.185 1142.82 838.855C1143.43 838.525 1144.09 838.36 1144.8 838.36ZM1144.23 840.098C1143.6 840.098 1143.05 840.29 1142.56 840.674C1142.08 841.05 1141.68 841.479 1141.37 841.963V847.833C1141.67 848.285 1142.05 848.642 1142.49 848.903C1142.94 849.156 1143.43 849.283 1143.98 849.283C1144.93 849.283 1145.65 848.915 1146.13 848.178C1146.61 847.434 1146.86 846.275 1146.86 844.702C1146.86 843.651 1146.76 842.788 1146.57 842.112C1146.38 841.429 1146.09 840.923 1145.69 840.593C1145.31 840.263 1144.82 840.098 1144.23 840.098ZM1155.17 838.648V847.188C1155.17 847.956 1155.33 848.508 1155.64 848.846C1155.96 849.176 1156.43 849.341 1157.08 849.341C1157.7 849.341 1158.29 849.16 1158.85 848.8C1159.41 848.439 1159.85 848.009 1160.16 847.51V838.648H1162.37V850.779H1160.47L1160.31 849.179C1159.85 849.786 1159.27 850.254 1158.58 850.584C1157.88 850.906 1157.17 851.067 1156.46 851.067C1155.28 851.067 1154.41 850.749 1153.82 850.112C1153.25 849.475 1152.96 848.592 1152.96 847.464V838.648H1155.17ZM1176.61 850.158C1176.18 850.434 1175.67 850.653 1175.06 850.814C1174.45 850.983 1173.85 851.067 1173.24 851.067C1171.89 851.067 1170.86 850.714 1170.13 850.008C1169.42 849.302 1169.06 848.385 1169.06 847.257V840.305H1166.31V838.648H1169.06V835.908L1171.27 835.644V838.648H1175.42L1175.16 840.305H1171.27V847.234C1171.27 847.902 1171.44 848.404 1171.78 848.742C1172.13 849.08 1172.7 849.248 1173.5 849.248C1173.95 849.248 1174.36 849.195 1174.74 849.087C1175.11 848.98 1175.46 848.842 1175.79 848.673L1176.61 850.158ZM1182.35 845.462C1182.39 846.352 1182.58 847.081 1182.89 847.649C1183.2 848.209 1183.61 848.623 1184.12 848.892C1184.63 849.153 1185.19 849.283 1185.8 849.283C1186.41 849.283 1186.96 849.191 1187.47 849.007C1187.98 848.823 1188.49 848.554 1189.01 848.201L1190.01 849.594C1189.45 850.046 1188.79 850.407 1188.05 850.676C1187.3 850.937 1186.53 851.067 1185.73 851.067C1184.52 851.067 1183.49 850.802 1182.64 850.273C1181.79 849.736 1181.15 848.991 1180.7 848.04C1180.27 847.088 1180.05 845.983 1180.05 844.725C1180.05 843.505 1180.27 842.415 1180.7 841.456C1181.15 840.497 1181.77 839.741 1182.58 839.189C1183.38 838.636 1184.34 838.36 1185.46 838.36C1186.5 838.36 1187.4 838.602 1188.15 839.085C1188.91 839.569 1189.49 840.259 1189.9 841.157C1190.31 842.047 1190.51 843.114 1190.51 844.357C1190.51 844.564 1190.51 844.763 1190.5 844.955C1190.49 845.147 1190.48 845.316 1190.46 845.462H1182.35ZM1185.48 840.087C1184.62 840.087 1183.9 840.394 1183.33 841.007C1182.76 841.621 1182.43 842.569 1182.35 843.85H1188.38C1188.36 842.623 1188.09 841.69 1187.57 841.053C1187.07 840.409 1186.37 840.087 1185.48 840.087ZM1214.75 834.919V850.319H1212.56V837.244L1208.98 839.431L1208.02 837.865L1212.81 834.919H1214.75ZM1218.01 849.007V850.779H1208.67V849.007H1218.01Z" fill="white"/>
<circle cx="1282.26" cy="1173.54" r="36.2122" fill="#F4F6F7" stroke="#232422" stroke-width="1.52072"/>
<path d="M1289.71 1162.85L1290.9 1183.81H1288.07L1287.48 1173.18C1287.45 1172.43 1287.42 1171.68 1287.4 1170.94C1287.38 1170.19 1287.37 1169.48 1287.35 1168.8C1287.35 1168.12 1287.35 1167.5 1287.35 1166.94C1287.37 1166.39 1287.38 1165.92 1287.39 1165.56L1284.04 1180.08H1281.21L1277.62 1165.56C1277.64 1165.91 1277.66 1166.38 1277.67 1166.96C1277.69 1167.54 1277.7 1168.18 1277.7 1168.88C1277.71 1169.57 1277.71 1170.29 1277.7 1171.03C1277.69 1171.77 1277.67 1172.49 1277.65 1173.18L1277.15 1183.81H1274.38L1275.57 1162.85H1279.48L1282.7 1177.07L1285.77 1162.85H1289.71Z" fill="#1A1C1C"/>
<circle cx="1453.09" cy="1163.7" r="36.2122" fill="#F4F6F7" stroke="#232422" stroke-width="1.52072"/>
<path d="M1460.54 1153.02L1461.73 1173.97H1458.9L1458.3 1163.34C1458.27 1162.59 1458.25 1161.85 1458.23 1161.11C1458.21 1160.36 1458.19 1159.64 1458.18 1158.97C1458.18 1158.29 1458.18 1157.67 1458.18 1157.11C1458.19 1156.55 1458.2 1156.09 1458.21 1155.73L1454.87 1170.25H1452.04L1448.45 1155.73C1448.47 1156.08 1448.49 1156.55 1448.5 1157.13C1448.52 1157.7 1448.53 1158.34 1448.53 1159.04C1448.54 1159.74 1448.54 1160.46 1448.53 1161.2C1448.52 1161.94 1448.5 1162.66 1448.48 1163.34L1447.98 1173.97H1445.21L1446.4 1153.02H1450.31L1453.53 1167.24L1456.6 1153.02H1460.54Z" fill="#1A1C1C"/>
<circle cx="1584.01" cy="1193.78" r="36.2122" fill="#F4F6F7" stroke="#232422" stroke-width="1.52072"/>
<path d="M1591.46 1183.1L1592.64 1204.05H1589.82L1589.22 1193.42C1589.19 1192.67 1589.17 1191.93 1589.15 1191.19C1589.13 1190.44 1589.11 1189.72 1589.1 1189.04C1589.1 1188.36 1589.1 1187.75 1589.1 1187.19C1589.11 1186.63 1589.12 1186.17 1589.13 1185.8L1585.79 1200.33H1582.96L1579.37 1185.8C1579.39 1186.16 1579.4 1186.63 1579.41 1187.2C1579.43 1187.78 1579.44 1188.42 1579.44 1189.12C1579.45 1189.82 1579.45 1190.54 1579.44 1191.28C1579.43 1192.02 1579.42 1192.73 1579.4 1193.42L1578.9 1204.05H1576.13L1577.32 1183.1H1581.22L1584.45 1197.32L1587.52 1183.1H1591.46Z" fill="#1A1C1C"/>
<circle cx="1638.66" cy="1071.44" r="36.2122" fill="#F4F6F7" stroke="#232422" stroke-width="1.52072"/>
<path d="M1646.11 1060.75L1647.3 1081.71H1644.47L1643.88 1071.08C1643.85 1070.33 1643.82 1069.58 1643.8 1068.84C1643.78 1068.09 1643.77 1067.38 1643.76 1066.7C1643.76 1066.02 1643.76 1065.4 1643.76 1064.84C1643.77 1064.28 1643.78 1063.82 1643.79 1063.46L1640.44 1077.98H1637.61L1634.02 1063.46C1634.04 1063.81 1634.06 1064.28 1634.07 1064.86C1634.09 1065.44 1634.1 1066.07 1634.1 1066.77C1634.11 1067.47 1634.11 1068.19 1634.1 1068.93C1634.09 1069.67 1634.07 1070.39 1634.05 1071.08L1633.55 1081.71H1630.78L1631.97 1060.75H1635.88L1639.1 1074.97L1642.17 1060.75H1646.11Z" fill="#1A1C1C"/>
<rect x="1337.25" y="989.952" width="154.545" height="43.6263" rx="2.65613" fill="#232422" stroke="#1A1C1C" stroke-width="1.77076"/>
<path d="M1360.65 1002.92C1361.7 1002.92 1362.59 1003.05 1363.3 1003.32C1364.02 1003.59 1364.7 1003.98 1365.33 1004.49L1364.09 1005.95C1363.6 1005.54 1363.08 1005.24 1362.53 1005.06C1361.98 1004.87 1361.41 1004.77 1360.79 1004.77C1359.96 1004.77 1359.19 1004.97 1358.48 1005.38C1357.77 1005.79 1357.2 1006.46 1356.77 1007.38C1356.34 1008.31 1356.13 1009.56 1356.13 1011.12C1356.13 1012.65 1356.33 1013.88 1356.74 1014.81C1357.15 1015.73 1357.71 1016.4 1358.41 1016.82C1359.11 1017.24 1359.9 1017.44 1360.77 1017.44C1361.64 1017.44 1362.36 1017.31 1362.92 1017.04C1363.49 1016.76 1363.99 1016.45 1364.42 1016.1L1365.56 1017.56C1365.06 1018.04 1364.41 1018.46 1363.61 1018.82C1362.82 1019.18 1361.85 1019.35 1360.71 1019.35C1359.4 1019.35 1358.22 1019.04 1357.17 1018.41C1356.11 1017.78 1355.28 1016.86 1354.67 1015.64C1354.06 1014.41 1353.76 1012.9 1353.76 1011.12C1353.76 1009.34 1354.07 1007.84 1354.69 1006.62C1355.32 1005.4 1356.16 1004.48 1357.2 1003.86C1358.25 1003.23 1359.4 1002.92 1360.65 1002.92ZM1373.14 1006.65C1374.3 1006.65 1375.27 1006.91 1376.06 1007.43C1376.85 1007.95 1377.44 1008.69 1377.84 1009.64C1378.25 1010.58 1378.45 1011.7 1378.45 1012.99C1378.45 1014.24 1378.24 1015.34 1377.83 1016.3C1377.42 1017.26 1376.82 1018 1376.03 1018.55C1375.24 1019.09 1374.27 1019.35 1373.12 1019.35C1371.97 1019.35 1371 1019.09 1370.2 1018.57C1369.41 1018.05 1368.81 1017.31 1368.4 1016.36C1368 1015.41 1367.79 1014.29 1367.79 1013.01C1367.79 1011.75 1368 1010.65 1368.4 1009.7C1368.82 1008.74 1369.42 1007.99 1370.22 1007.45C1371.02 1006.92 1371.99 1006.65 1373.14 1006.65ZM1373.14 1008.41C1372.15 1008.41 1371.39 1008.78 1370.89 1009.54C1370.38 1010.28 1370.13 1011.44 1370.13 1013.01C1370.13 1014.57 1370.38 1015.72 1370.88 1016.48C1371.38 1017.22 1372.12 1017.59 1373.12 1017.59C1374.12 1017.59 1374.87 1017.22 1375.37 1016.48C1375.86 1015.72 1376.11 1014.56 1376.11 1012.99C1376.11 1011.42 1375.86 1010.27 1375.37 1009.52C1374.87 1008.78 1374.13 1008.41 1373.14 1008.41ZM1390.38 1006.65C1390.8 1006.65 1391.19 1006.74 1391.55 1006.92C1391.91 1007.11 1392.2 1007.45 1392.43 1007.94C1392.65 1008.42 1392.76 1009.12 1392.76 1010.04V1019.07H1390.75V1010.36C1390.75 1009.66 1390.7 1009.15 1390.61 1008.85C1390.52 1008.53 1390.28 1008.37 1389.87 1008.37C1389.53 1008.37 1389.2 1008.48 1388.87 1008.68C1388.54 1008.89 1388.21 1009.24 1387.89 1009.72V1019.07H1385.96V1010.36C1385.96 1009.66 1385.91 1009.15 1385.82 1008.85C1385.73 1008.53 1385.49 1008.37 1385.08 1008.37C1384.74 1008.37 1384.4 1008.48 1384.07 1008.68C1383.75 1008.89 1383.42 1009.24 1383.1 1009.72V1019.07H1381.09V1006.93H1382.79L1382.93 1008.29C1383.27 1007.82 1383.64 1007.43 1384.05 1007.12C1384.46 1006.8 1384.96 1006.65 1385.55 1006.65C1386.01 1006.65 1386.44 1006.76 1386.83 1006.98C1387.23 1007.2 1387.52 1007.62 1387.71 1008.22C1388.04 1007.76 1388.41 1007.38 1388.83 1007.08C1389.26 1006.79 1389.77 1006.65 1390.38 1006.65ZM1401.66 1006.65C1402.73 1006.65 1403.59 1006.91 1404.24 1007.44C1404.88 1007.96 1405.35 1008.7 1405.63 1009.65C1405.91 1010.6 1406.06 1011.71 1406.06 1012.99C1406.06 1014.22 1405.88 1015.31 1405.54 1016.27C1405.19 1017.23 1404.67 1017.98 1403.98 1018.54C1403.29 1019.08 1402.43 1019.35 1401.38 1019.35C1400.07 1019.35 1399.02 1018.89 1398.23 1017.97V1023.72L1396.02 1023.98V1006.93H1397.92L1398.08 1008.57C1398.53 1007.95 1399.07 1007.47 1399.68 1007.14C1400.29 1006.81 1400.95 1006.65 1401.66 1006.65ZM1401.1 1008.39C1400.47 1008.39 1399.91 1008.58 1399.43 1008.96C1398.94 1009.34 1398.54 1009.77 1398.23 1010.25V1016.12C1398.54 1016.57 1398.91 1016.93 1399.36 1017.19C1399.8 1017.44 1400.3 1017.57 1400.84 1017.57C1401.79 1017.57 1402.51 1017.2 1402.99 1016.47C1403.48 1015.72 1403.72 1014.56 1403.72 1012.99C1403.72 1011.94 1403.62 1011.07 1403.43 1010.4C1403.24 1009.72 1402.95 1009.21 1402.56 1008.88C1402.17 1008.55 1401.69 1008.39 1401.1 1008.39ZM1412.03 1006.93V1015.48C1412.03 1016.24 1412.19 1016.8 1412.5 1017.13C1412.82 1017.46 1413.3 1017.63 1413.94 1017.63C1414.56 1017.63 1415.16 1017.45 1415.72 1017.09C1416.28 1016.73 1416.71 1016.3 1417.03 1015.8V1006.93H1419.24V1019.07H1417.34L1417.18 1017.47C1416.72 1018.07 1416.14 1018.54 1415.44 1018.87C1414.74 1019.19 1414.03 1019.35 1413.32 1019.35C1412.15 1019.35 1411.27 1019.04 1410.69 1018.4C1410.11 1017.76 1409.82 1016.88 1409.82 1015.75V1006.93H1412.03ZM1433.48 1018.44C1433.05 1018.72 1432.53 1018.94 1431.92 1019.1C1431.32 1019.27 1430.71 1019.35 1430.11 1019.35C1428.75 1019.35 1427.72 1019 1427 1018.3C1426.28 1017.59 1425.93 1016.67 1425.93 1015.54V1008.59H1423.18V1006.93H1425.93V1004.2L1428.14 1003.93V1006.93H1432.28L1432.03 1008.59H1428.14V1015.52C1428.14 1016.19 1428.31 1016.69 1428.64 1017.03C1428.99 1017.37 1429.56 1017.54 1430.36 1017.54C1430.81 1017.54 1431.23 1017.48 1431.6 1017.37C1431.98 1017.27 1432.33 1017.13 1432.65 1016.96L1433.48 1018.44ZM1439.21 1013.75C1439.26 1014.64 1439.44 1015.37 1439.75 1015.94C1440.07 1016.5 1440.48 1016.91 1440.98 1017.18C1441.49 1017.44 1442.05 1017.57 1442.67 1017.57C1443.27 1017.57 1443.83 1017.48 1444.33 1017.29C1444.84 1017.11 1445.35 1016.84 1445.88 1016.49L1446.88 1017.88C1446.31 1018.33 1445.65 1018.69 1444.91 1018.96C1444.17 1019.22 1443.39 1019.35 1442.6 1019.35C1441.38 1019.35 1440.35 1019.09 1439.5 1018.56C1438.66 1018.02 1438.01 1017.28 1437.57 1016.33C1437.13 1015.38 1436.91 1014.27 1436.91 1013.01C1436.91 1011.79 1437.13 1010.7 1437.57 1009.74C1438.01 1008.78 1438.64 1008.03 1439.44 1007.48C1440.25 1006.92 1441.21 1006.65 1442.32 1006.65C1443.36 1006.65 1444.26 1006.89 1445.01 1007.37C1445.77 1007.86 1446.36 1008.55 1446.76 1009.44C1447.17 1010.33 1447.37 1011.4 1447.37 1012.64C1447.37 1012.85 1447.37 1013.05 1447.36 1013.24C1447.35 1013.43 1447.34 1013.6 1447.33 1013.75H1439.21ZM1442.34 1008.37C1441.48 1008.37 1440.77 1008.68 1440.19 1009.29C1439.62 1009.91 1439.3 1010.86 1439.21 1012.14H1445.24C1445.22 1010.91 1444.95 1009.98 1444.44 1009.34C1443.93 1008.7 1443.23 1008.37 1442.34 1008.37ZM1469 1002.92L1470.86 1003.68L1466.71 1013.55H1475.09V1015.29H1464.39V1013.73L1469 1002.92ZM1473.11 1009.17V1019.07H1470.98L1470.97 1013.92L1471.27 1009.17H1473.11Z" fill="white"/>
<circle cx="1863" cy="794.629" r="36.2122" fill="#F4F6F7" stroke="#232422" stroke-width="1.52072"/>
<path d="M1870.46 783.945L1871.64 804.9H1868.81L1868.22 794.271C1868.19 793.52 1868.16 792.775 1868.14 792.035C1868.12 791.285 1868.11 790.57 1868.1 789.891C1868.1 789.212 1868.1 788.593 1868.1 788.036C1868.11 787.478 1868.12 787.017 1868.13 786.652L1864.78 801.175H1861.96L1858.37 786.652C1858.39 787.007 1858.4 787.473 1858.41 788.051C1858.43 788.629 1858.44 789.267 1858.44 789.967C1858.45 790.666 1858.45 791.386 1858.44 792.126C1858.43 792.866 1858.42 793.581 1858.4 794.271L1857.9 804.9H1855.13L1856.31 783.945H1860.22L1863.45 798.164L1866.52 783.945H1870.46Z" fill="#1A1C1C"/>
<circle cx="1647.79" cy="713.416" r="36.2122" fill="#F4F6F7" stroke="#232422" stroke-width="1.52072"/>
<path d="M1655.24 702.732L1656.43 723.688H1653.6L1653 713.058C1652.97 712.307 1652.95 711.562 1652.93 710.822C1652.91 710.072 1652.89 709.357 1652.88 708.678C1652.88 707.999 1652.88 707.38 1652.88 706.823C1652.89 706.265 1652.9 705.804 1652.91 705.439L1649.57 719.962H1646.74L1643.15 705.439C1643.17 705.794 1643.19 706.26 1643.2 706.838C1643.22 707.416 1643.23 708.054 1643.23 708.754C1643.24 709.454 1643.24 710.173 1643.23 710.913C1643.22 711.654 1643.2 712.368 1643.18 713.058L1642.68 723.688H1639.91L1641.1 702.732H1645L1648.23 716.951L1651.3 702.732H1655.24Z" fill="#1A1C1C"/>
<circle cx="1938.47" cy="666.609" r="36.2122" fill="#F4F6F7" stroke="#232422" stroke-width="1.52072"/>
<path d="M1945.93 655.925L1947.12 676.881H1944.29L1943.69 666.251C1943.66 665.501 1943.64 664.756 1943.62 664.016C1943.6 663.265 1943.58 662.551 1943.57 661.871C1943.57 661.192 1943.57 660.574 1943.57 660.016C1943.58 659.458 1943.59 658.997 1943.6 658.632L1940.26 673.155H1937.43L1933.84 658.632C1933.86 658.987 1933.87 659.453 1933.88 660.031C1933.91 660.609 1933.92 661.248 1933.92 661.947C1933.93 662.647 1933.93 663.367 1933.92 664.107C1933.91 664.847 1933.89 665.562 1933.87 666.251L1933.37 676.881H1930.6L1931.79 655.925H1935.69L1938.92 670.144L1941.99 655.925H1945.93Z" fill="#1A1C1C"/>
<rect x="1621.86" y="819.471" width="154.545" height="43.6263" rx="2.65613" fill="#232422" stroke="#1A1C1C" stroke-width="1.77076"/>
<path d="M1645.26 832.438C1646.32 832.438 1647.2 832.572 1647.91 832.84C1648.63 833.109 1649.31 833.5 1649.94 834.014L1648.71 835.465C1648.22 835.058 1647.69 834.763 1647.14 834.578C1646.6 834.387 1646.02 834.291 1645.4 834.291C1644.57 834.291 1643.8 834.494 1643.09 834.901C1642.38 835.307 1641.82 835.975 1641.39 836.903C1640.96 837.832 1640.74 839.079 1640.74 840.644C1640.74 842.171 1640.94 843.399 1641.35 844.327C1641.77 845.248 1642.32 845.919 1643.02 846.342C1643.73 846.756 1644.51 846.963 1645.38 846.963C1646.25 846.963 1646.97 846.829 1647.53 846.56C1648.1 846.284 1648.6 845.969 1649.03 845.616L1650.17 847.078C1649.67 847.562 1649.02 847.984 1648.22 848.344C1647.43 848.697 1646.47 848.874 1645.32 848.874C1644.01 848.874 1642.83 848.559 1641.78 847.93C1640.73 847.301 1639.89 846.376 1639.28 845.156C1638.67 843.928 1638.37 842.424 1638.37 840.644C1638.37 838.864 1638.68 837.364 1639.3 836.144C1639.93 834.924 1640.77 834.003 1641.81 833.381C1642.86 832.752 1644.01 832.438 1645.26 832.438ZM1657.76 836.167C1658.91 836.167 1659.88 836.428 1660.67 836.949C1661.46 837.471 1662.05 838.208 1662.45 839.159C1662.86 840.103 1663.06 841.22 1663.06 842.509C1663.06 843.759 1662.85 844.864 1662.44 845.824C1662.03 846.775 1661.43 847.523 1660.64 848.068C1659.85 848.605 1658.88 848.874 1657.73 848.874C1656.58 848.874 1655.61 848.613 1654.81 848.091C1654.02 847.569 1653.42 846.833 1653.01 845.881C1652.61 844.93 1652.4 843.813 1652.4 842.532C1652.4 841.273 1652.61 840.168 1653.01 839.217C1653.43 838.258 1654.03 837.51 1654.83 836.972C1655.63 836.435 1656.6 836.167 1657.76 836.167ZM1657.76 837.928C1656.76 837.928 1656.01 838.304 1655.5 839.056C1654.99 839.8 1654.74 840.959 1654.74 842.532C1654.74 844.089 1654.99 845.244 1655.49 845.996C1655.99 846.741 1656.73 847.113 1657.73 847.113C1658.73 847.113 1659.48 846.741 1659.98 845.996C1660.48 845.244 1660.72 844.082 1660.72 842.509C1660.72 840.943 1660.48 839.789 1659.98 839.044C1659.49 838.3 1658.75 837.928 1657.76 837.928ZM1674.99 836.167C1675.41 836.167 1675.8 836.259 1676.16 836.443C1676.52 836.627 1676.81 836.965 1677.04 837.456C1677.26 837.939 1677.37 838.641 1677.37 839.562V848.586H1675.36V839.884C1675.36 839.179 1675.31 838.672 1675.22 838.365C1675.13 838.051 1674.89 837.893 1674.48 837.893C1674.14 837.893 1673.81 837.997 1673.48 838.204C1673.15 838.411 1672.82 838.756 1672.5 839.24V848.586H1670.57V839.884C1670.57 839.179 1670.52 838.672 1670.43 838.365C1670.35 838.051 1670.1 837.893 1669.69 837.893C1669.35 837.893 1669.01 837.997 1668.68 838.204C1668.36 838.411 1668.04 838.756 1667.71 839.24V848.586H1665.7V836.454H1667.4L1667.54 837.813C1667.88 837.337 1668.25 836.946 1668.66 836.639C1669.07 836.324 1669.57 836.167 1670.17 836.167C1670.63 836.167 1671.05 836.278 1671.44 836.501C1671.84 836.723 1672.13 837.137 1672.32 837.744C1672.65 837.276 1673.02 836.896 1673.45 836.604C1673.87 836.313 1674.38 836.167 1674.99 836.167ZM1686.27 836.167C1687.34 836.167 1688.2 836.431 1688.85 836.961C1689.49 837.483 1689.96 838.219 1690.24 839.171C1690.53 840.115 1690.67 841.227 1690.67 842.509C1690.67 843.736 1690.49 844.83 1690.15 845.789C1689.8 846.748 1689.29 847.504 1688.6 848.056C1687.9 848.601 1687.04 848.874 1685.99 848.874C1684.68 848.874 1683.63 848.413 1682.84 847.492V853.236L1680.63 853.501V836.454H1682.53L1682.69 838.089C1683.14 837.467 1683.68 836.992 1684.29 836.662C1684.9 836.332 1685.56 836.167 1686.27 836.167ZM1685.71 837.905C1685.08 837.905 1684.52 838.097 1684.04 838.48C1683.55 838.856 1683.16 839.286 1682.84 839.769V845.639C1683.15 846.092 1683.52 846.449 1683.97 846.71C1684.41 846.963 1684.91 847.09 1685.45 847.09C1686.4 847.09 1687.12 846.721 1687.61 845.985C1688.09 845.24 1688.33 844.082 1688.33 842.509C1688.33 841.457 1688.23 840.594 1688.04 839.919C1687.85 839.236 1687.56 838.73 1687.17 838.4C1686.78 838.07 1686.3 837.905 1685.71 837.905ZM1696.64 836.454V844.995C1696.64 845.762 1696.8 846.315 1697.12 846.652C1697.43 846.982 1697.91 847.147 1698.55 847.147C1699.18 847.147 1699.77 846.967 1700.33 846.606C1700.89 846.246 1701.32 845.816 1701.64 845.317V836.454H1703.85V848.586H1701.95L1701.79 846.986C1701.33 847.592 1700.75 848.06 1700.05 848.39C1699.35 848.713 1698.65 848.874 1697.93 848.874C1696.76 848.874 1695.88 848.555 1695.3 847.918C1694.72 847.281 1694.43 846.399 1694.43 845.271V836.454H1696.64ZM1718.09 847.964C1717.66 848.241 1717.14 848.459 1716.54 848.62C1715.93 848.789 1715.32 848.874 1714.72 848.874C1713.37 848.874 1712.33 848.521 1711.61 847.815C1710.9 847.109 1710.54 846.192 1710.54 845.064V838.112H1707.79V836.454H1710.54V833.715L1712.75 833.45V836.454H1716.89L1716.64 838.112H1712.75V845.041C1712.75 845.708 1712.92 846.211 1713.25 846.549C1713.6 846.886 1714.17 847.055 1714.97 847.055C1715.42 847.055 1715.84 847.001 1716.21 846.894C1716.59 846.787 1716.94 846.648 1717.26 846.48L1718.09 847.964ZM1723.82 843.268C1723.87 844.158 1724.05 844.887 1724.36 845.455C1724.68 846.015 1725.09 846.43 1725.6 846.698C1726.1 846.959 1726.66 847.09 1727.28 847.09C1727.88 847.09 1728.44 846.998 1728.95 846.813C1729.45 846.629 1729.97 846.361 1730.49 846.008L1731.49 847.4C1730.92 847.853 1730.27 848.214 1729.52 848.482C1728.78 848.743 1728.01 848.874 1727.21 848.874C1725.99 848.874 1724.96 848.609 1724.11 848.08C1723.27 847.542 1722.62 846.798 1722.18 845.847C1721.74 844.895 1721.52 843.79 1721.52 842.532C1721.52 841.312 1721.74 840.222 1722.18 839.263C1722.62 838.304 1723.25 837.548 1724.05 836.995C1724.86 836.443 1725.82 836.167 1726.93 836.167C1727.97 836.167 1728.87 836.408 1729.62 836.892C1730.38 837.375 1730.97 838.066 1731.37 838.964C1731.78 839.854 1731.98 840.92 1731.98 842.163C1731.98 842.371 1731.98 842.57 1731.97 842.762C1731.96 842.954 1731.95 843.123 1731.94 843.268H1723.82ZM1726.95 837.893C1726.09 837.893 1725.38 838.2 1724.8 838.814C1724.23 839.428 1723.91 840.376 1723.82 841.657H1729.85C1729.83 840.429 1729.56 839.497 1729.05 838.86C1728.54 838.216 1727.84 837.893 1726.95 837.893ZM1753.64 832.438C1754.66 832.438 1755.54 832.618 1756.27 832.978C1757.02 833.339 1757.59 833.823 1757.99 834.429C1758.4 835.035 1758.6 835.699 1758.6 836.42C1758.6 837.065 1758.46 837.648 1758.17 838.169C1757.9 838.684 1757.52 839.109 1757.05 839.447C1756.58 839.785 1756.06 840.015 1755.48 840.138C1756.12 840.191 1756.71 840.372 1757.25 840.679C1757.81 840.978 1758.25 841.408 1758.59 841.968C1758.93 842.52 1759.11 843.207 1759.11 844.028C1759.11 844.941 1758.87 845.766 1758.4 846.503C1757.94 847.232 1757.29 847.811 1756.45 848.241C1755.6 848.663 1754.62 848.874 1753.5 848.874C1752.56 848.874 1751.65 848.697 1750.76 848.344C1749.88 847.991 1749.13 847.446 1748.51 846.71L1749.93 845.513C1750.39 846.042 1750.92 846.437 1751.53 846.698C1752.15 846.952 1752.78 847.078 1753.42 847.078C1754.47 847.078 1755.3 846.806 1755.9 846.261C1756.5 845.708 1756.8 844.953 1756.8 843.993C1756.8 843.265 1756.67 842.689 1756.39 842.267C1756.12 841.845 1755.75 841.542 1755.26 841.358C1754.79 841.174 1754.24 841.081 1753.62 841.081H1752.27L1752.53 839.401H1753.48C1753.98 839.401 1754.46 839.305 1754.91 839.113C1755.35 838.921 1755.71 838.63 1755.99 838.239C1756.26 837.84 1756.4 837.341 1756.4 836.742C1756.4 835.914 1756.12 835.28 1755.56 834.843C1755 834.398 1754.32 834.176 1753.51 834.176C1752.84 834.176 1752.24 834.298 1751.73 834.544C1751.21 834.782 1750.7 835.142 1750.19 835.626L1748.99 834.314C1749.67 833.669 1750.4 833.197 1751.19 832.898C1751.97 832.591 1752.79 832.438 1753.64 832.438Z" fill="white"/>
</svg>
